<svg class="main-svg" xmlns="http://www.w3.org/2000/svg" xmlns:xlink="http://www.w3.org/1999/xlink" width="900" height="800" style="" viewBox="0 0 900 800"><rect x="0" y="0" width="900" height="800" style="fill: rgb(255, 255, 255); fill-opacity: 1;"/><defs id="defs-2b40eb"><g class="clips"><clipPath id="clip2b40ebxyplot" class="plotclip"><rect width="740" height="118.60199999999998"/></clipPath><clipPath id="clip2b40ebx2y2plot" class="plotclip"><rect width="740" height="474.408"/></clipPath><clipPath class="axesclip" id="clip2b40ebx"><rect x="80" y="0" width="740" height="800"/></clipPath><clipPath class="axesclip" id="clip2b40eby"><rect x="0" y="100" width="900" height="118.60199999999998"/></clipPath><clipPath class="axesclip" id="clip2b40ebxy"><rect x="80" y="100" width="740" height="118.60199999999998"/></clipPath><clipPath class="axesclip" id="clip2b40eby2"><rect x="0" y="224.59199999999998" width="900" height="474.408"/></clipPath><clipPath class="axesclip" id="clip2b40ebxy2"><rect x="80" y="224.59199999999998" width="740" height="474.408"/></clipPath><clipPath class="axesclip" id="clip2b40ebx2"><rect x="80" y="0" width="740" height="800"/></clipPath><clipPath class="axesclip" id="clip2b40ebx2y"><rect x="80" y="100" width="740" height="118.60199999999998"/></clipPath><clipPath class="axesclip" id="clip2b40ebx2y2"><rect x="80" y="224.59199999999998" width="740" height="474.408"/></clipPath></g><g class="gradients"/></defs><g class="bglayer"><rect class="bg" x="80" y="100" width="740" height="118.60199999999998" style="fill: rgb(229, 236, 246); fill-opacity: 1; stroke-width: 0;"/><rect class="bg" x="80" y="224.59199999999998" width="740" height="474.408" style="fill: rgb(229, 236, 246); fill-opacity: 1; stroke-width: 0;"/></g><g class="layer-below"><g class="imagelayer"/><g class="shapelayer"/></g><g class="cartesianlayer"><g class="subplot xy"><g class="layer-subplot"><g class="shapelayer"/><g class="imagelayer"/></g><g class="gridlayer"><g class="x"><path class="xgrid crisp" transform="translate(194.7,0)" d="M0,100v118.60199999999998" style="stroke: rgb(255, 255, 255); stroke-opacity: 1; stroke-width: 1px;"/><path class="xgrid crisp" transform="translate(302,0)" d="M0,100v118.60199999999998" style="stroke: rgb(255, 255, 255); stroke-opacity: 1; stroke-width: 1px;"/><path class="xgrid crisp" transform="translate(416.7,0)" d="M0,100v118.60199999999998" style="stroke: rgb(255, 255, 255); stroke-opacity: 1; stroke-width: 1px;"/><path class="xgrid crisp" transform="translate(527.7,0)" d="M0,100v118.60199999999998" style="stroke: rgb(255, 255, 255); stroke-opacity: 1; stroke-width: 1px;"/><path class="xgrid crisp" transform="translate(642.4,0)" d="M0,100v118.60199999999998" style="stroke: rgb(255, 255, 255); stroke-opacity: 1; stroke-width: 1px;"/><path class="xgrid crisp" transform="translate(753.4,0)" d="M0,100v118.60199999999998" style="stroke: rgb(255, 255, 255); stroke-opacity: 1; stroke-width: 1px;"/></g><g class="y"/></g><g class="zerolinelayer"><path class="yzl zl crisp" transform="translate(0,212.67000000000002)" d="M80,0h740" style="stroke: rgb(255, 255, 255); stroke-opacity: 1; stroke-width: 2px;"/></g><path class="xlines-below"/><path class="ylines-below"/><g class="overlines-below"/><g class="xaxislayer-below"/><g class="yaxislayer-below"/><g class="overaxes-below"/><g class="plot" transform="translate(80, 100)" clip-path="url('#clip2b40ebxyplot')"><g class="scatterlayer mlayer"><g class="trace scatter trace7a7232" style="stroke-miterlimit: 2; opacity: 1;"><g class="fills"/><g class="errorbars"/><g class="lines"><path class="js-line" d="M0,112.67L148,112.67L155.4,17.66L162.8,78.85L170.2,55.98L192.4,64.11L199.8,65.75L214.6,70.56L222,73.3L251.6,85.23L259,88.64L273.8,96.29L281.2,100.54L296,110.05L303.4,112.67L740,112.67" style="vector-effect: non-scaling-stroke; fill: none; stroke: rgb(145, 13, 0); stroke-opacity: 1; stroke-width: 1.5px; opacity: 1;"/></g><g class="points"/><g class="text"/></g><g class="trace scatter traced341cd" style="stroke-miterlimit: 2; opacity: 1;"><g class="fills"/><g class="errorbars"/><g class="lines"><path class="js-line" d="M0,112.67L140.6,112.67L148,91.34L155.4,5.93L162.8,77.16L170.2,51.43L177.6,62.54L185,61.2L192.4,64.65L199.8,66.28L207.2,68.91L229.4,76.65L236.8,79.59L259,89.44L266.4,92.97L273.8,95.73L281.2,96.94L288.6,112.67L296,112.67L740,112.67" style="vector-effect: non-scaling-stroke; fill: none; stroke: rgb(30, 144, 255); stroke-opacity: 1; stroke-width: 1.5px; opacity: 1;"/></g><g class="points"/><g class="text"/></g></g></g><g class="overplot"/><path class="xlines-above crisp" style="fill: none;" d="M0,0"/><path class="ylines-above crisp" style="fill: none;" d="M0,0"/><g class="overlines-above"/><g class="xaxislayer-above"/><g class="yaxislayer-above"><g class="ytick"><text text-anchor="end" x="79" y="4.199999999999999" transform="translate(0,212.67000000000002)" style="font-family: 'Open Sans', verdana, arial, sans-serif; font-size: 12px; fill: rgb(42, 63, 95); fill-opacity: 1; white-space: pre;">0</text></g><g class="ytick"><text text-anchor="end" x="79" y="4.199999999999999" transform="translate(0,145.96)" style="font-family: 'Open Sans', verdana, arial, sans-serif; font-size: 12px; fill: rgb(42, 63, 95); fill-opacity: 1; white-space: pre;">0.5</text></g></g><g class="overaxes-above"/></g><g class="subplot x2y2"><g class="layer-subplot"><g class="shapelayer"/><g class="imagelayer"/></g><g class="gridlayer"><g class="x2"><path class="x2grid crisp" transform="translate(194.7,0)" d="M0,224.59199999999998v474.408" style="stroke: rgb(255, 255, 255); stroke-opacity: 1; stroke-width: 1px;"/><path class="x2grid crisp" transform="translate(302,0)" d="M0,224.59199999999998v474.408" style="stroke: rgb(255, 255, 255); stroke-opacity: 1; stroke-width: 1px;"/><path class="x2grid crisp" transform="translate(416.7,0)" d="M0,224.59199999999998v474.408" style="stroke: rgb(255, 255, 255); stroke-opacity: 1; stroke-width: 1px;"/><path class="x2grid crisp" transform="translate(527.7,0)" d="M0,224.59199999999998v474.408" style="stroke: rgb(255, 255, 255); stroke-opacity: 1; stroke-width: 1px;"/><path class="x2grid crisp" transform="translate(642.4,0)" d="M0,224.59199999999998v474.408" style="stroke: rgb(255, 255, 255); stroke-opacity: 1; stroke-width: 1px;"/><path class="x2grid crisp" transform="translate(753.4,0)" d="M0,224.59199999999998v474.408" style="stroke: rgb(255, 255, 255); stroke-opacity: 1; stroke-width: 1px;"/></g><g class="y2"/></g><g class="zerolinelayer"><path class="y2zl zl crisp" transform="translate(0,675.2819999999999)" d="M80,0h740" style="stroke: rgb(255, 255, 255); stroke-opacity: 1; stroke-width: 2px;"/></g><path class="xlines-below"/><path class="ylines-below"/><g class="overlines-below"/><g class="xaxislayer-below"/><g class="yaxislayer-below"/><g class="overaxes-below"/><g class="plot" transform="translate(80, 224.59199999999998)" clip-path="url('#clip2b40ebx2y2plot')"><g class="scatterlayer mlayer"><g class="trace scatter trace557edb" style="stroke-miterlimit: 2; opacity: 0.8;"><g class="fills"/><g class="errorbars"/><g class="lines"><path class="js-line" d="M0,450.69L88.8,449.96L96.2,449.58L111,448.18L118.4,446.92L125.8,445.03L133.2,442.21L140.6,438.05L148,431.94L155.4,423.08L162.8,411.28L333,121.25L340.4,109.8L355.2,89.19L362.6,80.2L377.4,65L384.8,58.73L399.6,48.61L407,44.6L421.8,38.3L429.2,35.87L444,32.13L451.4,30.71L473.6,27.72L481,27.05L510.6,25.33L518,25.06L577.2,24.1L584.6,24.05L740,23.84" style="vector-effect: non-scaling-stroke; fill: none; stroke: rgb(56, 9, 21); stroke-opacity: 1; stroke-width: 1.5px; opacity: 1;"/></g><g class="points"/><g class="text"/></g><g class="trace scatter tracec3e23a" style="stroke-miterlimit: 2; opacity: 0.8;"><g class="fills"/><g class="errorbars"/><g class="lines"><path class="js-line" d="M0,450.69L74,450.01L81.4,449.67L96.2,448.39L103.6,447.24L111,445.51L118.4,442.94L125.8,439.12L133.2,433.5L140.6,425.33L148,413.66L155.4,397.78L162.8,387.55L177.6,387.46L185,387.42L310.8,387.49L318.2,388.09L325.6,389.56L333,391.98L347.8,399.19L355.2,403.57L384.8,421.59L392.2,425.52L407,432.28L414.4,435.08L429.2,439.62L436.6,441.42L458.8,445.32L466.2,446.23L495.8,448.6L503.2,448.96L547.6,450.14L555,450.24L658.6,450.66L666,450.66L740,450.68" style="vector-effect: non-scaling-stroke; fill: none; stroke: rgb(204, 57, 123); stroke-opacity: 1; stroke-width: 1.5px; opacity: 1;"/></g><g class="points"/><g class="text"/></g><g class="trace scatter traceae99f0" style="stroke-miterlimit: 2; opacity: 0.8;"><g class="fills"/><g class="errorbars"/><g class="lines"><path class="js-line" d="M0,450.69L88.8,449.95L96.2,449.58L111,448.17L118.4,446.9L125.8,445L133.2,442.17L140.6,437.96L148,431.67L155.4,421.89L162.8,409.4L333,119.72L340.4,108.32L355.2,87.89L362.6,79.01L377.4,64.05L384.8,57.9L399.6,47.98L407,44.06L421.8,37.9L429.2,35.52L444,31.86L451.4,30.47L473.6,27.54L481,26.88L510.6,25.19L518,24.93L577.2,23.98L584.6,23.93L740,23.72" style="vector-effect: non-scaling-stroke; fill: none; stroke: rgb(30, 144, 255); stroke-opacity: 1; stroke-width: 1.5px; opacity: 1;"/></g><g class="points"/><g class="text"/></g><g class="trace scatter trace0b193c" style="stroke-miterlimit: 2; opacity: 0.8;"><g class="fills"/><g class="errorbars"/><g class="lines"><path class="js-line" d="M0,450.69L74,450.01L81.4,449.67L96.2,448.38L103.6,447.23L111,445.49L118.4,442.9L125.8,439.06L133.2,433.39L140.6,425.14L148,412.39L155.4,392.37L162.8,387.4L185,387.42L192.4,387.4L281.2,387.46L288.6,388.2L303.4,387.72L310.8,387.4L318.2,387.94L325.6,389.51L333,392.07L340.4,395.49L355.2,404L362.6,408.65L384.8,422.03L392.2,425.93L407,432.59L414.4,435.34L429.2,439.8L436.6,441.57L458.8,445.4L466.2,446.29L495.8,448.62L503.2,448.98L547.6,450.15L555,450.24L658.6,450.66L666,450.66L740,450.68" style="vector-effect: non-scaling-stroke; fill: none; stroke: rgb(30, 144, 255); stroke-opacity: 1; stroke-width: 1.5px; opacity: 1;"/></g><g class="points"/><g class="text"/></g></g></g><g class="overplot"/><path class="xlines-above crisp" style="fill: none;" d="M0,0"/><path class="ylines-above crisp" style="fill: none;" d="M0,0"/><g class="overlines-above"/><g class="xaxislayer-above"><g class="x2tick"><text text-anchor="middle" x="0" y="712" transform="translate(80,0)" style="font-family: 'Open Sans', verdana, arial, sans-serif; font-size: 12px; fill: rgb(42, 63, 95); fill-opacity: 1; white-space: pre;">Jan 2020</text></g><g class="x2tick"><text text-anchor="middle" x="0" y="712" transform="translate(194.7,0)" style="font-family: 'Open Sans', verdana, arial, sans-serif; font-size: 12px; fill: rgb(42, 63, 95); fill-opacity: 1; white-space: pre;">Feb 2020</text></g><g class="x2tick"><text text-anchor="middle" x="0" y="712" transform="translate(302,0)" style="font-family: 'Open Sans', verdana, arial, sans-serif; font-size: 12px; fill: rgb(42, 63, 95); fill-opacity: 1; white-space: pre;">Mar 2020</text></g><g class="x2tick"><text text-anchor="middle" x="0" y="712" transform="translate(416.7,0)" style="font-family: 'Open Sans', verdana, arial, sans-serif; font-size: 12px; fill: rgb(42, 63, 95); fill-opacity: 1; white-space: pre;">Apr 2020</text></g><g class="x2tick"><text text-anchor="middle" x="0" y="712" transform="translate(527.7,0)" style="font-family: 'Open Sans', verdana, arial, sans-serif; font-size: 12px; fill: rgb(42, 63, 95); fill-opacity: 1; white-space: pre;">May 2020</text></g><g class="x2tick"><text text-anchor="middle" x="0" y="712" transform="translate(642.4,0)" style="font-family: 'Open Sans', verdana, arial, sans-serif; font-size: 12px; fill: rgb(42, 63, 95); fill-opacity: 1; white-space: pre;">Jun 2020</text></g><g class="x2tick"><text text-anchor="middle" x="0" y="712" transform="translate(753.4,0)" style="font-family: 'Open Sans', verdana, arial, sans-serif; font-size: 12px; fill: rgb(42, 63, 95); fill-opacity: 1; white-space: pre;">Jul 2020</text></g></g><g class="yaxislayer-above"><g class="y2tick"><text text-anchor="end" x="79" y="4.199999999999999" transform="translate(0,675.2819999999999)" style="font-family: 'Open Sans', verdana, arial, sans-serif; font-size: 12px; fill: rgb(42, 63, 95); fill-opacity: 1; white-space: pre;">0</text></g><g class="y2tick"><text text-anchor="end" x="79" y="4.199999999999999" transform="translate(0,517.062)" style="font-family: 'Open Sans', verdana, arial, sans-serif; font-size: 12px; fill: rgb(42, 63, 95); fill-opacity: 1; white-space: pre;">500</text></g><g class="y2tick"><text text-anchor="end" x="79" y="4.199999999999999" transform="translate(0,358.852)" style="font-family: 'Open Sans', verdana, arial, sans-serif; font-size: 12px; fill: rgb(42, 63, 95); fill-opacity: 1; white-space: pre;">1000</text></g></g><g class="overaxes-above"/></g></g><g class="polarlayer"/><g class="ternarylayer"/><g class="geolayer"/><g class="funnelarealayer"/><g class="pielayer"/><g class="treemaplayer"/><g class="sunburstlayer"/><g class="glimages"/><defs id="topdefs-2b40eb"><g class="clips"/><clipPath id="legend2b40eb"><rect width="665" height="29" x="0" y="0"/></clipPath></defs><g class="layer-above"><g class="imagelayer"/><g class="shapelayer"/></g><g class="infolayer"><g class="legend" pointer-events="all" transform="translate(80, 758.9000000000001)"><rect class="bg" shape-rendering="crispEdges" style="stroke: rgb(68, 68, 68); stroke-opacity: 1; fill: rgb(0, 0, 0); fill-opacity: 0; stroke-width: 0px;" width="665" height="29" x="0" y="0"/><g class="scrollbox" transform="translate(0, 0)" clip-path="url('#legend2b40eb')"><g class="groups"><g class="traces" style="opacity: 1;" transform="translate(0, 14.5)"><text class="legendtext user-select-none" text-anchor="start" x="40" y="4.680000000000001" style="font-family: 'Open Sans', verdana, arial, sans-serif; font-size: 12px; fill: rgb(42, 63, 95); fill-opacity: 1; white-space: pre;">Control (u)</text><g class="layers" style="opacity: 1;"><g class="legendfill"/><g class="legendlines"><path class="js-line" d="M5,0h30" style="fill: none; stroke: rgb(145, 13, 0); stroke-opacity: 1; stroke-width: 5px;"/></g><g class="legendsymbols"><g class="legendpoints"/></g></g><rect class="legendtoggle" pointer-events="all" x="0" y="-9.5" width="108.90625" height="19" style="cursor: pointer; fill: rgb(0, 0, 0); fill-opacity: 0;"/></g><g class="traces" style="opacity: 1;" transform="translate(111.40625, 14.5)"><text class="legendtext user-select-none" text-anchor="start" x="40" y="4.680000000000001" style="font-family: 'Open Sans', verdana, arial, sans-serif; font-size: 12px; fill: rgb(42, 63, 95); fill-opacity: 1; white-space: pre;">Deceased</text><g class="layers" style="opacity: 0.8;"><g class="legendfill"/><g class="legendlines"><path class="js-line" d="M5,0h30" style="fill: none; stroke: rgb(56, 9, 21); stroke-opacity: 1; stroke-width: 5px;"/></g><g class="legendsymbols"><g class="legendpoints"/></g></g><rect class="legendtoggle" pointer-events="all" x="0" y="-9.5" width="100.390625" height="19" style="cursor: pointer; fill: rgb(0, 0, 0); fill-opacity: 0;"/></g><g class="traces" style="opacity: 1;" transform="translate(214.296875, 14.5)"><text class="legendtext user-select-none" text-anchor="start" x="40" y="4.680000000000001" style="font-family: 'Open Sans', verdana, arial, sans-serif; font-size: 12px; fill: rgb(42, 63, 95); fill-opacity: 1; white-space: pre;">Hospitalized</text><g class="layers" style="opacity: 0.8;"><g class="legendfill"/><g class="legendlines"><path class="js-line" d="M5,0h30" style="fill: none; stroke: rgb(204, 57, 123); stroke-opacity: 1; stroke-width: 5px;"/></g><g class="legendsymbols"><g class="legendpoints"/></g></g><rect class="legendtoggle" pointer-events="all" x="0" y="-9.5" width="115.28125" height="19" style="cursor: pointer; fill: rgb(0, 0, 0); fill-opacity: 0;"/></g><g class="traces" style="opacity: 1;" transform="translate(332.078125, 14.5)"><text class="legendtext user-select-none" text-anchor="start" x="40" y="4.680000000000001" style="font-family: 'Open Sans', verdana, arial, sans-serif; font-size: 12px; fill: rgb(42, 63, 95); fill-opacity: 1; white-space: pre;">Control (u)</text><g class="layers" style="opacity: 1;"><g class="legendfill"/><g class="legendlines"><path class="js-line" d="M5,0h30" style="fill: none; stroke: rgb(30, 144, 255); stroke-opacity: 1; stroke-width: 5px;"/></g><g class="legendsymbols"><g class="legendpoints"/></g></g><rect class="legendtoggle" pointer-events="all" x="0" y="-9.5" width="108.90625" height="19" style="cursor: pointer; fill: rgb(0, 0, 0); fill-opacity: 0;"/></g><g class="traces" style="opacity: 1;" transform="translate(443.484375, 14.5)"><text class="legendtext user-select-none" text-anchor="start" x="40" y="4.680000000000001" style="font-family: 'Open Sans', verdana, arial, sans-serif; font-size: 12px; fill: rgb(42, 63, 95); fill-opacity: 1; white-space: pre;">Deceased</text><g class="layers" style="opacity: 0.8;"><g class="legendfill"/><g class="legendlines"><path class="js-line" d="M5,0h30" style="fill: none; stroke: rgb(30, 144, 255); stroke-opacity: 1; stroke-width: 5px;"/></g><g class="legendsymbols"><g class="legendpoints"/></g></g><rect class="legendtoggle" pointer-events="all" x="0" y="-9.5" width="100.390625" height="19" style="cursor: pointer; fill: rgb(0, 0, 0); fill-opacity: 0;"/></g><g class="traces" style="opacity: 1;" transform="translate(546.375, 14.5)"><text class="legendtext user-select-none" text-anchor="start" x="40" y="4.680000000000001" style="font-family: 'Open Sans', verdana, arial, sans-serif; font-size: 12px; fill: rgb(42, 63, 95); fill-opacity: 1; white-space: pre;">Hospitalized</text><g class="layers" style="opacity: 0.8;"><g class="legendfill"/><g class="legendlines"><path class="js-line" d="M5,0h30" style="fill: none; stroke: rgb(30, 144, 255); stroke-opacity: 1; stroke-width: 5px;"/></g><g class="legendsymbols"><g class="legendpoints"/></g></g><rect class="legendtoggle" pointer-events="all" x="0" y="-9.5" width="115.28125" height="19" style="cursor: pointer; fill: rgb(0, 0, 0); fill-opacity: 0;"/></g></g></g><rect class="scrollbar" rx="20" ry="3" width="0" height="0" style="fill: rgb(128, 139, 164); fill-opacity: 1;" x="0" y="0"/></g><g class="g-gtitle"><text class="gtitle" x="405" y="56" text-anchor="middle" dy="0.7em" style="font-family: 'Open Sans', verdana, arial, sans-serif; font-size: 17px; fill: rgb(42, 63, 95); opacity: 1; font-weight: normal; white-space: pre;">Model comparison: MSEIR vs Gekko+IPOPT</text></g><g class="g-xtitle"/><g class="g-x2title"/><g class="g-ytitle"><text class="ytitle" transform="rotate(-90,34.575,159.301)" x="34.575" y="159.301" text-anchor="middle" style="font-family: 'Open Sans', verdana, arial, sans-serif; font-size: 14px; fill: rgb(42, 63, 95); opacity: 1; font-weight: normal; white-space: pre;">Control</text></g><g class="g-y2title"><text class="y2title" transform="rotate(-90,23.684375000000003,461.796)" x="23.684375000000003" y="461.796" text-anchor="middle" style="font-family: 'Open Sans', verdana, arial, sans-serif; font-size: 14px; fill: rgb(42, 63, 95); opacity: 1; font-weight: normal; white-space: pre;">Compartments</text></g></g></svg>