<svg class="main-svg" xmlns="http://www.w3.org/2000/svg" xmlns:xlink="http://www.w3.org/1999/xlink" width="900" height="800" style="" viewBox="0 0 900 800"><rect x="0" y="0" width="900" height="800" style="fill: rgb(255, 255, 255); fill-opacity: 1;"/><defs id="defs-8f37d6"><g class="clips"><clipPath id="clip8f37d6xyplot" class="plotclip"><rect width="732.6" height="83.77736842105266"/></clipPath><clipPath id="clip8f37d6x2y2plot" class="plotclip"><rect width="732.6" height="279.257894736842"/></clipPath><clipPath id="clip8f37d6x3y3plot" class="plotclip"><rect width="732.6" height="83.77736842105263"/></clipPath><clipPath class="axesclip" id="clip8f37d6x"><rect x="80" y="0" width="732.6" height="800"/></clipPath><clipPath class="axesclip" id="clip8f37d6y"><rect x="0" y="189.24736842105267" width="900" height="83.77736842105266"/></clipPath><clipPath class="axesclip" id="clip8f37d6xy"><rect x="80" y="189.24736842105267" width="732.6" height="83.77736842105266"/></clipPath><clipPath class="axesclip" id="clip8f37d6y2"><rect x="0" y="278.49473684210534" width="900" height="279.257894736842"/></clipPath><clipPath class="axesclip" id="clip8f37d6xy2"><rect x="80" y="278.49473684210534" width="732.6" height="279.257894736842"/></clipPath><clipPath class="axesclip" id="clip8f37d6y3"><rect x="0" y="563.2226315789474" width="900" height="83.77736842105263"/></clipPath><clipPath class="axesclip" id="clip8f37d6xy3"><rect x="80" y="563.2226315789474" width="732.6" height="83.77736842105263"/></clipPath><clipPath class="axesclip" id="clip8f37d6x2"><rect x="80" y="0" width="732.6" height="800"/></clipPath><clipPath class="axesclip" id="clip8f37d6x2y"><rect x="80" y="189.24736842105267" width="732.6" height="83.77736842105266"/></clipPath><clipPath class="axesclip" id="clip8f37d6x2y2"><rect x="80" y="278.49473684210534" width="732.6" height="279.257894736842"/></clipPath><clipPath class="axesclip" id="clip8f37d6x2y3"><rect x="80" y="563.2226315789474" width="732.6" height="83.77736842105263"/></clipPath><clipPath class="axesclip" id="clip8f37d6x3"><rect x="80" y="0" width="732.6" height="800"/></clipPath><clipPath class="axesclip" id="clip8f37d6x3y"><rect x="80" y="189.24736842105267" width="732.6" height="83.77736842105266"/></clipPath><clipPath class="axesclip" id="clip8f37d6x3y2"><rect x="80" y="278.49473684210534" width="732.6" height="279.257894736842"/></clipPath><clipPath class="axesclip" id="clip8f37d6x3y3"><rect x="80" y="563.2226315789474" width="732.6" height="83.77736842105263"/></clipPath></g><g class="gradients"/></defs><g class="bglayer"><rect class="bg" x="80" y="189.24736842105267" width="732.6" height="83.77736842105266" style="fill: rgb(229, 236, 246); fill-opacity: 1; stroke-width: 0;"/><rect class="bg" x="80" y="278.49473684210534" width="732.6" height="279.257894736842" style="fill: rgb(229, 236, 246); fill-opacity: 1; stroke-width: 0;"/><rect class="bg" x="80" y="563.2226315789474" width="732.6" height="83.77736842105263" style="fill: rgb(229, 236, 246); fill-opacity: 1; stroke-width: 0;"/></g><g class="layer-below"><g class="imagelayer"/><g class="shapelayer"/></g><g class="cartesianlayer"><g class="subplot xy"><g class="layer-subplot"><g class="shapelayer"/><g class="imagelayer"/></g><g class="gridlayer"><g class="x"><path class="xgrid crisp" transform="translate(171.32,0)" d="M0,189.24736842105267v83.77736842105266" style="stroke: rgb(255, 255, 255); stroke-opacity: 1; stroke-width: 1px;"/><path class="xgrid crisp" transform="translate(262.65,0)" d="M0,189.24736842105267v83.77736842105266" style="stroke: rgb(255, 255, 255); stroke-opacity: 1; stroke-width: 1px;"/><path class="xgrid crisp" transform="translate(354.98,0)" d="M0,189.24736842105267v83.77736842105266" style="stroke: rgb(255, 255, 255); stroke-opacity: 1; stroke-width: 1px;"/><path class="xgrid crisp" transform="translate(447.3,0)" d="M0,189.24736842105267v83.77736842105266" style="stroke: rgb(255, 255, 255); stroke-opacity: 1; stroke-width: 1px;"/><path class="xgrid crisp" transform="translate(537.62,0)" d="M0,189.24736842105267v83.77736842105266" style="stroke: rgb(255, 255, 255); stroke-opacity: 1; stroke-width: 1px;"/><path class="xgrid crisp" transform="translate(628.95,0)" d="M0,189.24736842105267v83.77736842105266" style="stroke: rgb(255, 255, 255); stroke-opacity: 1; stroke-width: 1px;"/><path class="xgrid crisp" transform="translate(721.28,0)" d="M0,189.24736842105267v83.77736842105266" style="stroke: rgb(255, 255, 255); stroke-opacity: 1; stroke-width: 1px;"/></g><g class="y"/></g><g class="zerolinelayer"><path class="yzl zl crisp" transform="translate(0,268.8373684210527)" d="M80,0h732.6" style="stroke: rgb(255, 255, 255); stroke-opacity: 1; stroke-width: 2px;"/></g><path class="xlines-below"/><path class="ylines-below"/><g class="overlines-below"/><g class="xaxislayer-below"/><g class="yaxislayer-below"/><g class="overaxes-below"/><g class="plot" transform="translate(80, 189.24736842105267)" clip-path="url('#clip8f37d6xyplot')"><g class="scatterlayer mlayer"><g class="trace scatter trace5b0b9b" style="stroke-miterlimit: 2; opacity: 1;"><g class="fills"/><g class="errorbars"/><g class="lines"><path class="js-line" d="M0,79.59L35.12,79.59L36.13,32.46L83.3,32.46L84.3,4.19L107.38,4.19L108.38,41.89L119.42,41.89L120.43,79.59L732.6,79.59" style="vector-effect: non-scaling-stroke; fill: none; stroke: rgb(145, 13, 0); stroke-opacity: 1; stroke-width: 1.5px; opacity: 1;"/></g><g class="points"/><g class="text"/></g></g></g><g class="overplot"/><path class="xlines-above crisp" d="M0,0" style="fill: none;"/><path class="ylines-above crisp" d="M0,0" style="fill: none;"/><g class="overlines-above"/><g class="xaxislayer-above"/><g class="yaxislayer-above"><g class="ytick"><text text-anchor="end" x="79" y="4.199999999999999" transform="translate(0,268.8373684210527)" style="font-family: 'Open Sans', verdana, arial, sans-serif; font-size: 12px; fill: rgb(42, 63, 95); fill-opacity: 1; white-space: pre;">0</text></g><g class="ytick"><text text-anchor="end" x="79" y="4.199999999999999" transform="translate(0,221.70736842105268)" style="font-family: 'Open Sans', verdana, arial, sans-serif; font-size: 12px; fill: rgb(42, 63, 95); fill-opacity: 1; white-space: pre;">0.5</text></g></g><g class="overaxes-above"/></g><g class="subplot x2y2"><g class="layer-subplot"><g class="shapelayer"/><g class="imagelayer"/></g><g class="gridlayer"><g class="x2"><path class="x2grid crisp" transform="translate(171.32,0)" d="M0,278.49473684210534v279.257894736842" style="stroke: rgb(255, 255, 255); stroke-opacity: 1; stroke-width: 1px;"/><path class="x2grid crisp" transform="translate(262.65,0)" d="M0,278.49473684210534v279.257894736842" style="stroke: rgb(255, 255, 255); stroke-opacity: 1; stroke-width: 1px;"/><path class="x2grid crisp" transform="translate(354.98,0)" d="M0,278.49473684210534v279.257894736842" style="stroke: rgb(255, 255, 255); stroke-opacity: 1; stroke-width: 1px;"/><path class="x2grid crisp" transform="translate(447.3,0)" d="M0,278.49473684210534v279.257894736842" style="stroke: rgb(255, 255, 255); stroke-opacity: 1; stroke-width: 1px;"/><path class="x2grid crisp" transform="translate(537.62,0)" d="M0,278.49473684210534v279.257894736842" style="stroke: rgb(255, 255, 255); stroke-opacity: 1; stroke-width: 1px;"/><path class="x2grid crisp" transform="translate(628.95,0)" d="M0,278.49473684210534v279.257894736842" style="stroke: rgb(255, 255, 255); stroke-opacity: 1; stroke-width: 1px;"/><path class="x2grid crisp" transform="translate(721.28,0)" d="M0,278.49473684210534v279.257894736842" style="stroke: rgb(255, 255, 255); stroke-opacity: 1; stroke-width: 1px;"/></g><g class="y2"/></g><g class="zerolinelayer"><path class="y2zl zl crisp" transform="translate(0,543.7847368421053)" d="M80,0h732.6" style="stroke: rgb(255, 255, 255); stroke-opacity: 1; stroke-width: 2px;"/></g><path class="xlines-below"/><path class="ylines-below"/><g class="overlines-below"/><g class="xaxislayer-below"/><g class="yaxislayer-below"/><g class="overaxes-below"/><g class="plot" transform="translate(80, 278.49473684210534)" clip-path="url('#clip8f37d6x2y2plot')"><g class="scatterlayer mlayer"><g class="trace scatter trace8b1441" style="stroke-miterlimit: 2; opacity: 0.8;"><g class="fills"/><g class="errorbars"/><g class="lines"><path class="js-line" d="M0,265.29L30.11,264.62L31.11,264.43L35.12,262.9L36.13,262.21L40.14,260.51L41.15,260.19L50.18,256.36L51.18,255.8L58.21,250.94L59.21,250.09L66.24,242.98L67.24,241.79L75.27,230.86L76.27,229.35L84.3,217.13L85.3,217.63L88.31,229.17L89.32,233.27L93.33,246.15L94.33,248.51L98.35,255.42L99.35,256.65L103.37,260.22L104.37,260.86L109.39,262.89L110.39,262.88L119.42,261.24L120.43,260.99L122.43,259.61L123.44,258.46L126.45,253.21L127.45,250.69L130.46,239.74L131.47,234.62L134.48,213.1L135.48,203.46L138.49,165.81L139.5,150.36L147.52,23.6L148.53,16.84L149.53,13.96L150.53,15.06L152.54,28.34L153.54,39.63L157.56,101.03L158.56,117.41L163.58,186.73L164.58,197.18L168.6,228.08L169.6,233.5L173.62,248.63L174.62,251.16L177.63,256.71L178.63,258.03L182.65,261.59L183.65,262.16L188.67,263.95L189.67,264.16L198.71,265.05L199.71,265.09L230.82,265.29L231.82,265.29L732.6,265.29" style="vector-effect: non-scaling-stroke; fill: none; stroke: rgb(8, 109, 113); stroke-opacity: 1; stroke-width: 1.5px; opacity: 1;"/></g><g class="points"/><g class="text"/></g><g class="trace scatter trace56ee55" style="stroke-miterlimit: 2; opacity: 0.8;"><g class="fills"/><g class="errorbars"/><g class="lines"><path class="js-line" d="M0,265.29L41.15,264.62L42.15,264.53L61.22,262.29L62.22,262.1L75.27,258.86L76.27,258.54L88.31,255.11L89.32,255.29L95.34,257.81L96.34,258.31L105.37,262.01L106.38,262.3L114.41,263.82L115.41,263.91L124.44,263.97L125.45,263.85L130.46,262.39L131.47,261.86L135.48,258.45L136.48,257.16L139.5,251.94L140.5,249.69L144.51,238.19L145.52,234.87L150.53,219.39L151.54,217.19L153.54,214.3L154.55,213.66L156.56,213.99L157.56,214.88L160.57,219.8L161.57,221.97L173.62,248.7L174.62,250.29L179.64,256.47L180.64,257.4L185.66,260.84L186.66,261.33L193.69,263.59L194.69,263.79L205.73,264.92L206.73,264.96L233.83,265.29L234.83,265.29L732.6,265.29" style="vector-effect: non-scaling-stroke; fill: none; stroke: rgb(204, 57, 123); stroke-opacity: 1; stroke-width: 1.5px; opacity: 1;"/></g><g class="points"/><g class="text"/></g><g class="trace scatter trace32a47f" style="stroke-miterlimit: 2; opacity: 0.8;"><g class="fills"/><g class="errorbars"/><g class="lines"><path class="js-line" d="M0,265.29L52.19,264.61L53.19,264.53L68.24,262.62L69.25,262.42L77.27,260.22L78.28,259.6L86.31,253.59L87.31,252.72L96.34,245.82L97.35,245.41L106.38,243.64L107.38,243.52L124.44,242.38L125.45,242.32L134.48,241.19L135.48,240.92L139.5,237.61L140.5,236.39L143.51,231.41L144.51,229.25L148.53,217.78L149.53,214.22L156.56,184.75L157.56,180.4L163.58,157.23L164.58,154.03L169.6,141.18L170.61,139.2L174.62,132.89L175.62,131.66L180.64,127.16L181.64,126.52L186.66,125.27L187.67,125.11L199.71,124.16L200.71,124.12L232.83,123.89L233.83,123.89L732.6,123.88" style="vector-effect: non-scaling-stroke; fill: none; stroke: rgb(56, 9, 21); stroke-opacity: 1; stroke-width: 1.5px; opacity: 1;"/></g><g class="points"/><g class="text"/></g><g class="trace scatter trace2fefa0" style="stroke-miterlimit: 2; opacity: 1;"><g class="fills"/><g class="errorbars"/><g class="lines"><path class="js-line" d="M0,258.47L732.6,258.47" style="vector-effect: non-scaling-stroke; fill: none; stroke: rgb(204, 57, 123); stroke-opacity: 1; stroke-width: 1.5px; opacity: 1; stroke-dasharray: 3px, 3px;"/></g><g class="points"/><g class="text"/></g></g></g><g class="overplot"/><path class="xlines-above crisp" d="M0,0" style="fill: none;"/><path class="ylines-above crisp" d="M0,0" style="fill: none;"/><g class="overlines-above"/><g class="xaxislayer-above"/><g class="yaxislayer-above"><g class="y2tick"><text text-anchor="end" x="79" y="4.199999999999999" transform="translate(0,543.7847368421053)" style="font-family: 'Open Sans', verdana, arial, sans-serif; font-size: 12px; fill: rgb(42, 63, 95); fill-opacity: 1; white-space: pre;">0</text></g><g class="y2tick"><text text-anchor="end" x="79" y="4.199999999999999" transform="translate(0,407.23473684210535)" style="font-family: 'Open Sans', verdana, arial, sans-serif; font-size: 12px; fill: rgb(42, 63, 95); fill-opacity: 1; white-space: pre;">200k</text></g></g><g class="overaxes-above"/></g><g class="subplot x3y3"><g class="layer-subplot"><g class="shapelayer"/><g class="imagelayer"/></g><g class="gridlayer"><g class="x3"><path class="x3grid crisp" transform="translate(171.32,0)" d="M0,563.2226315789474v83.77736842105263" style="stroke: rgb(255, 255, 255); stroke-opacity: 1; stroke-width: 1px;"/><path class="x3grid crisp" transform="translate(262.65,0)" d="M0,563.2226315789474v83.77736842105263" style="stroke: rgb(255, 255, 255); stroke-opacity: 1; stroke-width: 1px;"/><path class="x3grid crisp" transform="translate(354.98,0)" d="M0,563.2226315789474v83.77736842105263" style="stroke: rgb(255, 255, 255); stroke-opacity: 1; stroke-width: 1px;"/><path class="x3grid crisp" transform="translate(447.3,0)" d="M0,563.2226315789474v83.77736842105263" style="stroke: rgb(255, 255, 255); stroke-opacity: 1; stroke-width: 1px;"/><path class="x3grid crisp" transform="translate(537.62,0)" d="M0,563.2226315789474v83.77736842105263" style="stroke: rgb(255, 255, 255); stroke-opacity: 1; stroke-width: 1px;"/><path class="x3grid crisp" transform="translate(628.95,0)" d="M0,563.2226315789474v83.77736842105263" style="stroke: rgb(255, 255, 255); stroke-opacity: 1; stroke-width: 1px;"/><path class="x3grid crisp" transform="translate(721.28,0)" d="M0,563.2226315789474v83.77736842105263" style="stroke: rgb(255, 255, 255); stroke-opacity: 1; stroke-width: 1px;"/></g><g class="y3"/></g><g class="zerolinelayer"><path class="y3zl zl crisp" transform="translate(0,642.8126315789474)" d="M80,0h732.6" style="stroke: rgb(255, 255, 255); stroke-opacity: 1; stroke-width: 2px;"/></g><path class="xlines-below"/><path class="ylines-below"/><g class="overlines-below"/><g class="xaxislayer-below"/><g class="yaxislayer-below"/><g class="overaxes-below"/><g class="plot" transform="translate(80, 563.2226315789474)" clip-path="url('#clip8f37d6x3y3plot')"><g class="scatterlayer mlayer"><g class="trace scatter trace3cef39" style="stroke-miterlimit: 2; opacity: 0.3;"><g class="fills"/><g class="errorbars"/><g class="lines"><path class="js-line" d="M1,79.59L31.11,78.96L32.11,78.78L36.13,77.38L37.13,78.24L57.2,74.76L58.21,74.49L70.25,70.26L71.25,69.84L84.3,64.51L85.3,73.6L97.35,78.19L98.35,78.36L108.38,79.27L109.39,78.71L120.43,78.04L121.43,76.73L124.44,74.72L125.45,73.72L128.46,69.37L129.46,67.35L132.47,58.99L133.47,55.31L137.49,35.95L138.49,30.27L142.51,9.69L143.51,6.49L145.52,4.19L146.52,5.28L148.53,11.51L149.53,16.2L157.56,56.57L158.56,59.92L162.58,69.36L163.58,70.93L167.59,75.17L168.6,75.86L173.62,77.99L174.62,78.24L182.65,79.24L183.65,79.3L208.74,79.58L209.74,79.58L286.02,79.59L287.02,79.59L732.6,79.59" style="vector-effect: non-scaling-stroke; fill: none; stroke: rgb(8, 109, 113); stroke-opacity: 1; stroke-width: 1.5px; opacity: 1;"/></g><g class="points"/><g class="text"/></g><g class="trace scatter trace4ab7d2" style="stroke-miterlimit: 2; opacity: 0.6;"><g class="fills"/><g class="errorbars"/><g class="lines"><path class="js-line" d="M1,79.59L30.11,78.97L31.11,78.79L35.12,77.38L36.13,78.24L56.2,74.76L57.2,74.49L69.25,70.26L70.25,69.85L83.3,64.51L84.3,73.6L96.34,78.19L97.35,78.36L107.38,79.26L108.38,78.71L119.42,78.04" style="vector-effect: non-scaling-stroke; fill: none; stroke: rgb(8, 109, 113); stroke-opacity: 1; stroke-width: 1.5px; opacity: 1;"/></g><g class="points"/><g class="text"/></g></g></g><g class="overplot"/><path class="xlines-above crisp" d="M0,0" style="fill: none;"/><path class="ylines-above crisp" d="M0,0" style="fill: none;"/><g class="overlines-above"/><g class="xaxislayer-above"><g class="x3tick"><text text-anchor="middle" x="0" y="660" transform="translate(80,0)" style="font-family: 'Open Sans', verdana, arial, sans-serif; font-size: 12px; fill: rgb(42, 63, 95); fill-opacity: 1; white-space: pre;">Jan 2020</text></g><g class="x3tick"><text text-anchor="middle" x="0" y="660" transform="translate(171.32,0)" style="font-family: 'Open Sans', verdana, arial, sans-serif; font-size: 12px; fill: rgb(42, 63, 95); fill-opacity: 1; white-space: pre;">Apr 2020</text></g><g class="x3tick"><text text-anchor="middle" x="0" y="660" transform="translate(262.65,0)" style="font-family: 'Open Sans', verdana, arial, sans-serif; font-size: 12px; fill: rgb(42, 63, 95); fill-opacity: 1; white-space: pre;">Jul 2020</text></g><g class="x3tick"><text text-anchor="middle" x="0" y="660" transform="translate(354.98,0)" style="font-family: 'Open Sans', verdana, arial, sans-serif; font-size: 12px; fill: rgb(42, 63, 95); fill-opacity: 1; white-space: pre;">Oct 2020</text></g><g class="x3tick"><text text-anchor="middle" x="0" y="660" transform="translate(447.3,0)" style="font-family: 'Open Sans', verdana, arial, sans-serif; font-size: 12px; fill: rgb(42, 63, 95); fill-opacity: 1; white-space: pre;">Jan 2021</text></g><g class="x3tick"><text text-anchor="middle" x="0" y="660" transform="translate(537.62,0)" style="font-family: 'Open Sans', verdana, arial, sans-serif; font-size: 12px; fill: rgb(42, 63, 95); fill-opacity: 1; white-space: pre;">Apr 2021</text></g><g class="x3tick"><text text-anchor="middle" x="0" y="660" transform="translate(628.95,0)" style="font-family: 'Open Sans', verdana, arial, sans-serif; font-size: 12px; fill: rgb(42, 63, 95); fill-opacity: 1; white-space: pre;">Jul 2021</text></g><g class="x3tick"><text text-anchor="middle" x="0" y="660" transform="translate(721.28,0)" style="font-family: 'Open Sans', verdana, arial, sans-serif; font-size: 12px; fill: rgb(42, 63, 95); fill-opacity: 1; white-space: pre;">Oct 2021</text></g></g><g class="yaxislayer-above"><g class="y3tick"><text text-anchor="end" x="79" y="4.199999999999999" transform="translate(0,642.8126315789474)" style="font-family: 'Open Sans', verdana, arial, sans-serif; font-size: 12px; fill: rgb(42, 63, 95); fill-opacity: 1; white-space: pre;">0</text></g><g class="y3tick"><text text-anchor="end" x="79" y="4.199999999999999" transform="translate(0,620.8726315789473)" style="font-family: 'Open Sans', verdana, arial, sans-serif; font-size: 12px; fill: rgb(42, 63, 95); fill-opacity: 1; white-space: pre;">5k</text></g><g class="y3tick"><text text-anchor="end" x="79" y="4.199999999999999" transform="translate(0,598.9326315789474)" style="font-family: 'Open Sans', verdana, arial, sans-serif; font-size: 12px; fill: rgb(42, 63, 95); fill-opacity: 1; white-space: pre;">10k</text></g><g class="y3tick"><text text-anchor="end" x="79" y="4.199999999999999" transform="translate(0,576.9826315789473)" style="font-family: 'Open Sans', verdana, arial, sans-serif; font-size: 12px; fill: rgb(42, 63, 95); fill-opacity: 1; white-space: pre;">15k</text></g></g><g class="overaxes-above"/></g></g><g class="polarlayer"/><g class="ternarylayer"/><g class="geolayer"/><g class="funnelarealayer"/><g class="pielayer"/><g class="treemaplayer"/><g class="sunburstlayer"/><g class="glimages"/><g class="table" overflow="visible" width="892" height="336" transform="translate(0,0)" style="box-sizing: content-box; position: absolute; left: 0px; overflow: visible; shape-rendering: crispedges; pointer-events: all;"><g class="table-control-view" transform="translate(80 100)" clip-path="url('#clip8f37d6_scrollAreaBottomClip_497fd7true')" style="box-sizing: content-box;"><rect class="scroll-background" fill="none" width="732" height="83"/><g class="y-column" transform="translate(0 0)" clip-path="url('#clip8f37d6_columnBoundaryClippath_497fd7true_0')"><g class="column-block" id="cells1" transform="translate(0 0)" style="cursor: default;"><g class="column-cells"><g class="column-cell" transform="translate(0 16)"><rect class="cell-rect" width="366" stroke-width="1" style="stroke: rgb(255, 255, 255); stroke-opacity: 1; fill: rgb(255, 255, 255); fill-opacity: 1;" height="20"/><g class="cell-text-holder" transform="translate(358 8)" text-anchor="end" style="shape-rendering: geometricprecision;"><text class="cell-text" dy="0.75em" x="0" y="0" style="cursor: auto; font-family: 'Open Sans', verdana, arial, sans-serif; font-size: 13px; fill: rgb(42, 63, 95); fill-opacity: 1; white-space: pre;">Control Strenght</text></g></g><g class="column-cell" transform="translate(0 36)"><rect class="cell-rect" width="366" stroke-width="1" style="stroke: rgb(255, 255, 255); stroke-opacity: 1; fill: rgb(255, 255, 255); fill-opacity: 1;" height="20"/><g class="cell-text-holder" transform="translate(358 8)" text-anchor="end" style="shape-rendering: geometricprecision;"><text class="cell-text" dy="0.75em" x="0" y="0" style="cursor: auto; font-family: 'Open Sans', verdana, arial, sans-serif; font-size: 13px; fill: rgb(42, 63, 95); fill-opacity: 1; white-space: pre;">Total Infected (% Population)</text></g></g><g class="column-cell" transform="translate(0 56)"><rect class="cell-rect" width="366" stroke-width="1" style="stroke: rgb(255, 255, 255); stroke-opacity: 1; fill: rgb(255, 255, 255); fill-opacity: 1;" height="20"/><g class="cell-text-holder" transform="translate(358 8)" text-anchor="end" style="shape-rendering: geometricprecision;"><text class="cell-text" dy="0.75em" x="0" y="0" style="cursor: auto; font-family: 'Open Sans', verdana, arial, sans-serif; font-size: 13px; fill: rgb(42, 63, 95); fill-opacity: 1; white-space: pre;">Total Deceased (% Infected)</text></g></g></g></g><g class="column-block" id="cells2" transform="translate(0 0)" style="cursor: default;"><g class="column-cells"/></g><g class="column-block" id="header" style="cursor: ew-resize;"><g class="column-cells"><g class="column-cell" transform="translate(0 0)"><rect class="cell-rect" width="366" stroke-width="1" height="16" style="stroke: rgb(255, 255, 255); stroke-opacity: 1; fill: rgb(255, 255, 255); fill-opacity: 1;"/><g class="cell-text-holder" transform="translate(183 8)" text-anchor="middle" style="shape-rendering: geometricprecision;"><text class="cell-text" dy="0.75em" style="cursor: auto; font-family: 'Open Sans', verdana, arial, sans-serif; font-size: 12px; fill: rgb(42, 63, 95); fill-opacity: 1;"/></g></g></g></g><g class="column-boundary"/><clipPath class="column-boundary-clippath" id="clip8f37d6_columnBoundaryClippath_497fd7true_0"><rect class="column-boundary-rect" fill="none" width="368" height="90" x="-1" y="-1"/></clipPath></g><g class="y-column" transform="translate(366 0)" clip-path="url('#clip8f37d6_columnBoundaryClippath_497fd7true_1')"><g class="column-block" id="cells1" transform="translate(0 0)" style="cursor: default;"><g class="column-cells"><g class="column-cell" transform="translate(0 16)"><rect class="cell-rect" width="366" stroke-width="1" style="stroke: rgb(255, 255, 255); stroke-opacity: 1; fill: rgb(255, 255, 255); fill-opacity: 1;" height="20"/><g class="cell-text-holder" transform="translate(8 8)" text-anchor="start" style="shape-rendering: geometricprecision;"><text class="cell-text" dy="0.75em" style="cursor: auto; font-family: 'Open Sans', verdana, arial, sans-serif; font-size: 13px; fill: rgb(42, 63, 95); fill-opacity: 1;">6.58%</text></g></g><g class="column-cell" transform="translate(0 36)"><rect class="cell-rect" width="366" stroke-width="1" style="stroke: rgb(255, 255, 255); stroke-opacity: 1; fill: rgb(255, 255, 255); fill-opacity: 1;" height="20"/><g class="cell-text-holder" transform="translate(8 8)" text-anchor="start" style="shape-rendering: geometricprecision;"><text class="cell-text" dy="0.75em" style="cursor: auto; font-family: 'Open Sans', verdana, arial, sans-serif; font-size: 13px; fill: rgb(42, 63, 95); fill-opacity: 1;">87.64%</text></g></g><g class="column-cell" transform="translate(0 56)"><rect class="cell-rect" width="366" stroke-width="1" style="stroke: rgb(255, 255, 255); stroke-opacity: 1; fill: rgb(255, 255, 255); fill-opacity: 1;" height="20"/><g class="cell-text-holder" transform="translate(8 8)" text-anchor="start" style="shape-rendering: geometricprecision;"><text class="cell-text" dy="0.75em" style="cursor: auto; font-family: 'Open Sans', verdana, arial, sans-serif; font-size: 13px; fill: rgb(42, 63, 95); fill-opacity: 1;">4.73%</text></g></g></g></g><g class="column-block" id="cells2" transform="translate(0 0)" style="cursor: default;"><g class="column-cells"/></g><g class="column-block" id="header" style="cursor: ew-resize;"><g class="column-cells"><g class="column-cell" transform="translate(0 0)"><rect class="cell-rect" width="366" stroke-width="1" height="16" style="stroke: rgb(255, 255, 255); stroke-opacity: 1; fill: rgb(255, 255, 255); fill-opacity: 1;"/><g class="cell-text-holder" transform="translate(183 8)" text-anchor="middle" style="shape-rendering: geometricprecision;"><text class="cell-text" dy="0.75em" style="cursor: auto; font-family: 'Open Sans', verdana, arial, sans-serif; font-size: 12px; fill: rgb(42, 63, 95); fill-opacity: 1;"/></g></g></g></g><g class="column-boundary"/><clipPath class="column-boundary-clippath" id="clip8f37d6_columnBoundaryClippath_497fd7true_1"><rect class="column-boundary-rect" fill="none" width="368" height="90" x="-1" y="-1"/></clipPath></g><clipPath class="scroll-area-clip" id="clip8f37d6_scrollAreaBottomClip_497fd7true"><rect class="scroll-area-clip-rect" x="-45" y="-5" fill="none" width="822" height="88"/></clipPath></g></g><defs id="topdefs-8f37d6"><g class="clips"/><clipPath id="legend8f37d6"><rect width="523" height="86" x="0" y="0"/></clipPath></defs><g class="layer-above"><g class="imagelayer"/><g class="shapelayer"/></g><g class="infolayer"><g class="legend" pointer-events="all" transform="translate(80, 701.7)"><rect class="bg" shape-rendering="crispEdges" width="523" height="86" x="0" y="0" style="stroke: rgb(68, 68, 68); stroke-opacity: 1; fill: rgb(0, 0, 0); fill-opacity: 0; stroke-width: 0px;"/><g class="scrollbox" transform="translate(0, 0)" clip-path="url('#legend8f37d6')"><g class="groups"><g class="traces" transform="translate(0, 14.5)" style="opacity: 1;"><text class="legendtext user-select-none" text-anchor="start" x="40" y="4.680000000000001" style="font-family: 'Open Sans', verdana, arial, sans-serif; font-size: 12px; fill: rgb(42, 63, 95); fill-opacity: 1; white-space: pre;">Control (u)</text><g class="layers" style="opacity: 1;"><g class="legendfill"/><g class="legendlines"><path class="js-line" d="M5,0h30" style="fill: none; stroke: rgb(145, 13, 0); stroke-opacity: 1; stroke-width: 5px;"/></g><g class="legendsymbols"><g class="legendpoints"/></g></g><rect class="legendtoggle" pointer-events="all" x="0" y="-9.5" width="108.90625" height="19" style="cursor: pointer; fill: rgb(0, 0, 0); fill-opacity: 0;"/></g><g class="traces" transform="translate(188.015625, 14.5)" style="opacity: 0.5;"><text class="legendtext user-select-none" text-anchor="start" x="40" y="4.680000000000001" style="font-family: 'Open Sans', verdana, arial, sans-serif; font-size: 12px; fill: rgb(42, 63, 95); fill-opacity: 1; white-space: pre;">Susceptible</text><g class="layers" style="opacity: 1;"><g class="legendfill"/><g class="legendlines"><path class="js-line" d="M5,0h30" style="fill: none; stroke: rgb(114, 159, 207); stroke-opacity: 1; stroke-width: 5px;"/></g><g class="legendsymbols"><g class="legendpoints"/></g></g><rect class="legendtoggle" pointer-events="all" x="0" y="-9.5" width="111.375" height="19" style="cursor: pointer; fill: rgb(0, 0, 0); fill-opacity: 0;"/></g><g class="traces" transform="translate(376.03125, 14.5)" style="opacity: 0.5;"><text class="legendtext user-select-none" text-anchor="start" x="40" y="4.680000000000001" style="font-family: 'Open Sans', verdana, arial, sans-serif; font-size: 12px; fill: rgb(42, 63, 95); fill-opacity: 1; white-space: pre;">Exposed</text><g class="layers" style="opacity: 0.8;"><g class="legendfill"/><g class="legendlines"><path class="js-line" d="M5,0h30" style="fill: none; stroke: rgb(52, 101, 164); stroke-opacity: 1; stroke-width: 5px;"/></g><g class="legendsymbols"><g class="legendpoints"/></g></g><rect class="legendtoggle" pointer-events="all" x="0" y="-9.5" width="92.828125" height="19" style="cursor: pointer; fill: rgb(0, 0, 0); fill-opacity: 0;"/></g><g class="traces" transform="translate(0, 33.5)" style="opacity: 1;"><text class="legendtext user-select-none" text-anchor="start" x="40" y="4.680000000000001" style="font-family: 'Open Sans', verdana, arial, sans-serif; font-size: 12px; fill: rgb(42, 63, 95); fill-opacity: 1; white-space: pre;">Infected</text><g class="layers" style="opacity: 0.8;"><g class="legendfill"/><g class="legendlines"><path class="js-line" d="M5,0h30" style="fill: none; stroke: rgb(8, 109, 113); stroke-opacity: 1; stroke-width: 5px;"/></g><g class="legendsymbols"><g class="legendpoints"/></g></g><rect class="legendtoggle" pointer-events="all" x="0" y="-9.5" width="92.125" height="19" style="cursor: pointer; fill: rgb(0, 0, 0); fill-opacity: 0;"/></g><g class="traces" transform="translate(188.015625, 33.5)" style="opacity: 1;"><text class="legendtext user-select-none" text-anchor="start" x="40" y="4.680000000000001" style="font-family: 'Open Sans', verdana, arial, sans-serif; font-size: 12px; fill: rgb(42, 63, 95); fill-opacity: 1; white-space: pre;">Hospitalized</text><g class="layers" style="opacity: 0.8;"><g class="legendfill"/><g class="legendlines"><path class="js-line" d="M5,0h30" style="fill: none; stroke: rgb(204, 57, 123); stroke-opacity: 1; stroke-width: 5px;"/></g><g class="legendsymbols"><g class="legendpoints"/></g></g><rect class="legendtoggle" pointer-events="all" x="0" y="-9.5" width="115.28125" height="19" style="cursor: pointer; fill: rgb(0, 0, 0); fill-opacity: 0;"/></g><g class="traces" transform="translate(376.03125, 33.5)" style="opacity: 0.5;"><text class="legendtext user-select-none" text-anchor="start" x="40" y="4.680000000000001" style="font-family: 'Open Sans', verdana, arial, sans-serif; font-size: 12px; fill: rgb(42, 63, 95); fill-opacity: 1; white-space: pre;">Recovered</text><g class="layers" style="opacity: 1;"><g class="legendfill"/><g class="legendlines"><path class="js-line" d="M5,0h30" style="fill: none; stroke: rgb(156, 164, 196); stroke-opacity: 1; stroke-width: 5px;"/></g><g class="legendsymbols"><g class="legendpoints"/></g></g><rect class="legendtoggle" pointer-events="all" x="0" y="-9.5" width="105.53125" height="19" style="cursor: pointer; fill: rgb(0, 0, 0); fill-opacity: 0;"/></g><g class="traces" transform="translate(0, 52.5)" style="opacity: 1;"><text class="legendtext user-select-none" text-anchor="start" x="40" y="4.680000000000001" style="font-family: 'Open Sans', verdana, arial, sans-serif; font-size: 12px; fill: rgb(42, 63, 95); fill-opacity: 1; white-space: pre;">Deceased</text><g class="layers" style="opacity: 0.8;"><g class="legendfill"/><g class="legendlines"><path class="js-line" d="M5,0h30" style="fill: none; stroke: rgb(56, 9, 21); stroke-opacity: 1; stroke-width: 5px;"/></g><g class="legendsymbols"><g class="legendpoints"/></g></g><rect class="legendtoggle" pointer-events="all" x="0" y="-9.5" width="100.390625" height="19" style="cursor: pointer; fill: rgb(0, 0, 0); fill-opacity: 0;"/></g><g class="traces" transform="translate(188.015625, 52.5)" style="opacity: 1;"><text class="legendtext user-select-none" text-anchor="start" x="40" y="4.680000000000001" style="font-family: 'Open Sans', verdana, arial, sans-serif; font-size: 12px; fill: rgb(42, 63, 95); fill-opacity: 1; white-space: pre;">Healthcare capacity (Q)</text><g class="layers" style="opacity: 1;"><g class="legendfill"/><g class="legendlines"><path class="js-line" d="M5,0h30" style="fill: none; stroke: rgb(204, 57, 123); stroke-opacity: 1; stroke-dasharray: 5px, 5px; stroke-width: 5px;"/></g><g class="legendsymbols"><g class="legendpoints"/></g></g><rect class="legendtoggle" pointer-events="all" x="0" y="-9.5" width="185.515625" height="19" style="cursor: pointer; fill: rgb(0, 0, 0); fill-opacity: 0;"/></g><g class="traces" transform="translate(376.03125, 52.5)" style="opacity: 1;"><text class="legendtext user-select-none" text-anchor="start" x="40" y="4.680000000000001" style="font-family: 'Open Sans', verdana, arial, sans-serif; font-size: 12px; fill: rgb(42, 63, 95); fill-opacity: 1; white-space: pre;">Infected (model)</text><g class="layers" style="opacity: 0.3;"><g class="legendfill"/><g class="legendlines"><path class="js-line" d="M5,0h30" style="fill: none; stroke: rgb(8, 109, 113); stroke-opacity: 1; stroke-width: 5px;"/></g><g class="legendsymbols"><g class="legendpoints"/></g></g><rect class="legendtoggle" pointer-events="all" x="0" y="-9.5" width="144.109375" height="19" style="cursor: pointer; fill: rgb(0, 0, 0); fill-opacity: 0;"/></g><g class="traces" transform="translate(0, 71.5)" style="opacity: 1;"><text class="legendtext user-select-none" text-anchor="start" x="40" y="4.680000000000001" style="font-family: 'Open Sans', verdana, arial, sans-serif; font-size: 12px; fill: rgb(42, 63, 95); fill-opacity: 1; white-space: pre;">Infected (real)</text><g class="layers" style="opacity: 0.6;"><g class="legendfill"/><g class="legendlines"><path class="js-line" d="M5,0h30" style="fill: none; stroke: rgb(8, 109, 113); stroke-opacity: 1; stroke-width: 5px;"/></g><g class="legendsymbols"><g class="legendpoints"/></g></g><rect class="legendtoggle" pointer-events="all" x="0" y="-9.5" width="130.015625" height="19" style="cursor: pointer; fill: rgb(0, 0, 0); fill-opacity: 0;"/></g></g></g><rect class="scrollbar" rx="20" ry="3" width="0" height="0" x="0" y="0" style="fill: rgb(128, 139, 164); fill-opacity: 1;"/></g><g class="g-gtitle"><text class="gtitle" x="405" y="80" text-anchor="middle" dy="0.7em" style="font-family: 'Open Sans', verdana, arial, sans-serif; font-size: 17px; fill: rgb(42, 63, 95); opacity: 1; font-weight: normal; white-space: pre;">From current to zero control</text></g><g class="g-xtitle"/><g class="g-x2title"/><g class="g-x3title"/><g class="g-ytitle"><text class="ytitle" transform="rotate(-90,34.575,231.136052631579)" x="34.575" y="231.136052631579" text-anchor="middle" style="font-family: 'Open Sans', verdana, arial, sans-serif; font-size: 14px; fill: rgb(42, 63, 95); opacity: 1; font-weight: normal; white-space: pre;">Control</text></g><g class="g-y2title"><text class="y2title" transform="rotate(-90,24.200000000000003,418.12368421052633)" x="24.200000000000003" y="418.12368421052633" text-anchor="middle" style="font-family: 'Open Sans', verdana, arial, sans-serif; font-size: 14px; fill: rgb(42, 63, 95); opacity: 1; font-weight: normal; white-space: pre;">Compartments</text></g><g class="g-y3title"><text class="y3title" transform="rotate(-90,31.840625000000003,605.1113157894737)" x="31.840625000000003" y="605.1113157894737" text-anchor="middle" style="font-family: 'Open Sans', verdana, arial, sans-serif; font-size: 14px; fill: rgb(42, 63, 95); opacity: 1; font-weight: normal; white-space: pre;">Comparison</text></g></g></svg>