<svg class="main-svg" xmlns="http://www.w3.org/2000/svg" xmlns:xlink="http://www.w3.org/1999/xlink" width="900" height="800" style="" viewBox="0 0 900 800"><rect x="0" y="0" width="900" height="800" style="fill: rgb(255, 255, 255); fill-opacity: 1;"/><defs id="defs-12fc4a"><g class="clips"><clipPath id="clip12fc4axyplot" class="plotclip"><rect width="732.6" height="83.77736842105266"/></clipPath><clipPath id="clip12fc4ax2y2plot" class="plotclip"><rect width="732.6" height="279.257894736842"/></clipPath><clipPath id="clip12fc4ax3y3plot" class="plotclip"><rect width="732.6" height="83.77736842105263"/></clipPath><clipPath class="axesclip" id="clip12fc4ax"><rect x="80" y="0" width="732.6" height="800"/></clipPath><clipPath class="axesclip" id="clip12fc4ay"><rect x="0" y="189.24736842105267" width="900" height="83.77736842105266"/></clipPath><clipPath class="axesclip" id="clip12fc4axy"><rect x="80" y="189.24736842105267" width="732.6" height="83.77736842105266"/></clipPath><clipPath class="axesclip" id="clip12fc4ay2"><rect x="0" y="278.49473684210534" width="900" height="279.257894736842"/></clipPath><clipPath class="axesclip" id="clip12fc4axy2"><rect x="80" y="278.49473684210534" width="732.6" height="279.257894736842"/></clipPath><clipPath class="axesclip" id="clip12fc4ay3"><rect x="0" y="563.2226315789474" width="900" height="83.77736842105263"/></clipPath><clipPath class="axesclip" id="clip12fc4axy3"><rect x="80" y="563.2226315789474" width="732.6" height="83.77736842105263"/></clipPath><clipPath class="axesclip" id="clip12fc4ax2"><rect x="80" y="0" width="732.6" height="800"/></clipPath><clipPath class="axesclip" id="clip12fc4ax2y"><rect x="80" y="189.24736842105267" width="732.6" height="83.77736842105266"/></clipPath><clipPath class="axesclip" id="clip12fc4ax2y2"><rect x="80" y="278.49473684210534" width="732.6" height="279.257894736842"/></clipPath><clipPath class="axesclip" id="clip12fc4ax2y3"><rect x="80" y="563.2226315789474" width="732.6" height="83.77736842105263"/></clipPath><clipPath class="axesclip" id="clip12fc4ax3"><rect x="80" y="0" width="732.6" height="800"/></clipPath><clipPath class="axesclip" id="clip12fc4ax3y"><rect x="80" y="189.24736842105267" width="732.6" height="83.77736842105266"/></clipPath><clipPath class="axesclip" id="clip12fc4ax3y2"><rect x="80" y="278.49473684210534" width="732.6" height="279.257894736842"/></clipPath><clipPath class="axesclip" id="clip12fc4ax3y3"><rect x="80" y="563.2226315789474" width="732.6" height="83.77736842105263"/></clipPath></g><g class="gradients"/></defs><g class="bglayer"><rect class="bg" x="80" y="189.24736842105267" width="732.6" height="83.77736842105266" style="fill: rgb(229, 236, 246); fill-opacity: 1; stroke-width: 0;"/><rect class="bg" x="80" y="278.49473684210534" width="732.6" height="279.257894736842" style="fill: rgb(229, 236, 246); fill-opacity: 1; stroke-width: 0;"/><rect class="bg" x="80" y="563.2226315789474" width="732.6" height="83.77736842105263" style="fill: rgb(229, 236, 246); fill-opacity: 1; stroke-width: 0;"/></g><g class="layer-below"><g class="imagelayer"/><g class="shapelayer"/></g><g class="cartesianlayer"><g class="subplot xy"><g class="layer-subplot"><g class="shapelayer"/><g class="imagelayer"/></g><g class="gridlayer"><g class="x"><path class="xgrid crisp" transform="translate(171.32,0)" d="M0,189.24736842105267v83.77736842105266" style="stroke: rgb(255, 255, 255); stroke-opacity: 1; stroke-width: 1px;"/><path class="xgrid crisp" transform="translate(262.65,0)" d="M0,189.24736842105267v83.77736842105266" style="stroke: rgb(255, 255, 255); stroke-opacity: 1; stroke-width: 1px;"/><path class="xgrid crisp" transform="translate(354.98,0)" d="M0,189.24736842105267v83.77736842105266" style="stroke: rgb(255, 255, 255); stroke-opacity: 1; stroke-width: 1px;"/><path class="xgrid crisp" transform="translate(447.3,0)" d="M0,189.24736842105267v83.77736842105266" style="stroke: rgb(255, 255, 255); stroke-opacity: 1; stroke-width: 1px;"/><path class="xgrid crisp" transform="translate(537.62,0)" d="M0,189.24736842105267v83.77736842105266" style="stroke: rgb(255, 255, 255); stroke-opacity: 1; stroke-width: 1px;"/><path class="xgrid crisp" transform="translate(628.95,0)" d="M0,189.24736842105267v83.77736842105266" style="stroke: rgb(255, 255, 255); stroke-opacity: 1; stroke-width: 1px;"/><path class="xgrid crisp" transform="translate(721.28,0)" d="M0,189.24736842105267v83.77736842105266" style="stroke: rgb(255, 255, 255); stroke-opacity: 1; stroke-width: 1px;"/></g><g class="y"/></g><g class="zerolinelayer"><path class="yzl zl crisp" transform="translate(0,268.8373684210527)" d="M80,0h732.6" style="stroke: rgb(255, 255, 255); stroke-opacity: 1; stroke-width: 2px;"/></g><path class="xlines-below"/><path class="ylines-below"/><g class="overlines-below"/><g class="xaxislayer-below"/><g class="yaxislayer-below"/><g class="overaxes-below"/><g class="plot" transform="translate(80, 189.24736842105267)" clip-path="url('#clip12fc4axyplot')"><g class="scatterlayer mlayer"><g class="trace scatter trace825162" style="stroke-miterlimit: 2; opacity: 1;"><g class="fills"/><g class="errorbars"/><g class="lines"><path class="js-line" d="M0,79.59L43.15,79.59L44.16,74.78L46.16,20.44L47.17,9.49L48.17,4.86L49.17,4.19L52.19,4.19L53.19,14.57L54.19,32.04L55.2,28.6L57.2,23.87L58.21,22.58L60.21,21.58L61.22,21.55L64.23,21.55L65.23,23.1L68.24,23.44L69.25,23.44L71.25,23.44L72.26,24.22L78.28,24.75L79.28,25.26L84.3,25.8L85.3,26.3L90.32,26.87L91.32,27.39L96.34,27.96L97.35,28.55L101.36,29.06L102.36,29.33L130.46,35.57L131.47,36.35L135.48,37.06L136.48,37.45L151.54,41.68L152.54,42.65L154.55,42.65L155.55,43.56L157.56,43.81L158.56,44.64L160.57,44.67L161.57,45.86L163.58,45.86L164.58,46.69L167.59,47.52L168.6,48.38L170.61,48.65L171.61,49.72L173.62,49.72L174.62,51.02L176.63,51.02L177.63,52.34L179.64,52.37L180.64,53.71L182.65,53.73L183.65,55.18L185.66,55.19L186.66,56.61L188.67,56.68L189.67,58.29L191.68,58.3L192.68,59.64L193.69,59.64L194.69,60.62L195.69,60.66L196.7,61.96L198.71,62.42L199.71,63.86L201.72,63.94L202.72,65.88L204.73,65.89L205.73,67.63L207.74,68.19L208.74,69.7L210.75,70.05L211.75,72.03L213.76,72.06L214.76,74.29L216.77,74.37L217.77,76.75L219.78,76.78L220.78,79.19L732.6,79.59" style="vector-effect: non-scaling-stroke; fill: none; stroke: rgb(145, 13, 0); stroke-opacity: 1; stroke-width: 1.5px; opacity: 1;"/></g><g class="points"/><g class="text"/></g></g></g><g class="overplot"/><path class="xlines-above crisp" d="M0,0" style="fill: none;"/><path class="ylines-above crisp" d="M0,0" style="fill: none;"/><g class="overlines-above"/><g class="xaxislayer-above"/><g class="yaxislayer-above"><g class="ytick"><text text-anchor="end" x="79" y="4.199999999999999" transform="translate(0,268.8373684210527)" style="font-family: 'Open Sans', verdana, arial, sans-serif; font-size: 12px; fill: rgb(42, 63, 95); fill-opacity: 1; white-space: pre;">0</text></g><g class="ytick"><text text-anchor="end" x="79" y="4.199999999999999" transform="translate(0,220.30736842105267)" style="font-family: 'Open Sans', verdana, arial, sans-serif; font-size: 12px; fill: rgb(42, 63, 95); fill-opacity: 1; white-space: pre;">0.5</text></g></g><g class="overaxes-above"/></g><g class="subplot x2y2"><g class="layer-subplot"><g class="shapelayer"/><g class="imagelayer"/></g><g class="gridlayer"><g class="x2"><path class="x2grid crisp" transform="translate(171.32,0)" d="M0,278.49473684210534v279.257894736842" style="stroke: rgb(255, 255, 255); stroke-opacity: 1; stroke-width: 1px;"/><path class="x2grid crisp" transform="translate(262.65,0)" d="M0,278.49473684210534v279.257894736842" style="stroke: rgb(255, 255, 255); stroke-opacity: 1; stroke-width: 1px;"/><path class="x2grid crisp" transform="translate(354.98,0)" d="M0,278.49473684210534v279.257894736842" style="stroke: rgb(255, 255, 255); stroke-opacity: 1; stroke-width: 1px;"/><path class="x2grid crisp" transform="translate(447.3,0)" d="M0,278.49473684210534v279.257894736842" style="stroke: rgb(255, 255, 255); stroke-opacity: 1; stroke-width: 1px;"/><path class="x2grid crisp" transform="translate(537.62,0)" d="M0,278.49473684210534v279.257894736842" style="stroke: rgb(255, 255, 255); stroke-opacity: 1; stroke-width: 1px;"/><path class="x2grid crisp" transform="translate(628.95,0)" d="M0,278.49473684210534v279.257894736842" style="stroke: rgb(255, 255, 255); stroke-opacity: 1; stroke-width: 1px;"/><path class="x2grid crisp" transform="translate(721.28,0)" d="M0,278.49473684210534v279.257894736842" style="stroke: rgb(255, 255, 255); stroke-opacity: 1; stroke-width: 1px;"/></g><g class="y2"/></g><g class="zerolinelayer"><path class="y2zl zl crisp" transform="translate(0,543.7847368421053)" d="M80,0h732.6" style="stroke: rgb(255, 255, 255); stroke-opacity: 1; stroke-width: 2px;"/></g><path class="xlines-below"/><path class="ylines-below"/><g class="overlines-below"/><g class="xaxislayer-below"/><g class="yaxislayer-below"/><g class="overaxes-below"/><g class="plot" transform="translate(80, 278.49473684210534)" clip-path="url('#clip12fc4ax2y2plot')"><g class="scatterlayer mlayer"><g class="trace scatter trace2288f1" style="stroke-miterlimit: 2; opacity: 0.8;"><g class="fills"/><g class="errorbars"/><g class="lines"><path class="js-line" d="M0,265.29L25.09,264.55L26.09,264.34L30.11,262.64L31.11,261.88L34.12,257.98L35.12,255.87L37.13,249.65L38.14,245.16L40.14,231.97L41.15,222.46L43.15,194.78L44.16,175.01L47.17,111.05L48.17,106.5L49.17,110.62L50.18,119.77L54.19,162.34L55.2,166.04L56.2,164.96L57.2,162.73L59.21,159.41L60.21,158.71L62.22,158.58L63.22,158.86L67.24,160.21L68.24,160.12L76.27,160.03L77.27,160.05L114.41,160.04L115.41,160.05L225.8,160.48L226.8,160.92L229.82,163.28L230.82,164.4L234.83,170.36L235.84,172.16L242.86,187.19L243.87,189.54L257.92,221.19L258.92,223.14L265.94,235.1L266.95,236.57L273.97,245.27L274.98,246.3L282,252.29L283,252.99L291.03,257.42L292.04,257.85L301.07,260.84L302.07,261.09L315.12,263.31L316.12,263.42L334.19,264.64L335.19,264.68L378.34,265.25L379.35,265.25L732.6,265.29" style="vector-effect: non-scaling-stroke; fill: none; stroke: rgb(8, 109, 113); stroke-opacity: 1; stroke-width: 1.5px; opacity: 1;"/></g><g class="points"/><g class="text"/></g><g class="trace scatter trace118301" style="stroke-miterlimit: 2; opacity: 0.8;"><g class="fills"/><g class="errorbars"/><g class="lines"><path class="js-line" d="M0,265.29L34.12,264.66L35.12,264.47L39.14,263.03L40.14,262.38L43.15,259.09L44.16,257.33L47.17,249.23L48.17,246.2L51.18,239.94L52.19,238.98L54.19,238.43L55.2,238.57L60.21,238.7L61.22,238.62L72.26,238.42L73.26,238.42L233.83,239.16L234.83,239.37L241.86,241.63L242.86,242.06L253.9,247.74L254.9,248.29L269.96,255.84L270.96,256.26L283,260.23L284.01,260.48L297.05,262.88L298.06,263.01L316.12,264.46L317.13,264.51L352.25,265.19L353.25,265.2L732.6,265.29" style="vector-effect: non-scaling-stroke; fill: none; stroke: rgb(204, 57, 123); stroke-opacity: 1; stroke-width: 1.5px; opacity: 1;"/></g><g class="points"/><g class="text"/></g><g class="trace scatter tracef05efc" style="stroke-miterlimit: 2; opacity: 0.8;"><g class="fills"/><g class="errorbars"/><g class="lines"><path class="js-line" d="M0,265.29L41.15,264.67L42.15,264.49L46.16,263.09L47.17,262.48L51.18,258.85L52.19,257.75L243.87,39.65L244.87,38.68L254.9,30.26L255.91,29.54L264.94,24.14L265.94,23.65L275.98,19.77L276.98,19.47L288.02,16.99L289.03,16.83L303.08,15.27L304.08,15.19L332.18,14.21L333.18,14.19L430.53,13.96L431.53,13.96L732.6,13.96" style="vector-effect: non-scaling-stroke; fill: none; stroke: rgb(56, 9, 21); stroke-opacity: 1; stroke-width: 1.5px; opacity: 1;"/></g><g class="points"/><g class="text"/></g><g class="trace scatter trace8294d7" style="stroke-miterlimit: 2; opacity: 1;"><g class="fills"/><g class="errorbars"/><g class="lines"><path class="js-line" d="M0,238.42L732.6,238.42" style="vector-effect: non-scaling-stroke; fill: none; stroke: rgb(204, 57, 123); stroke-opacity: 1; stroke-width: 1.5px; opacity: 1; stroke-dasharray: 3px, 3px;"/></g><g class="points"/><g class="text"/></g></g></g><g class="overplot"/><path class="xlines-above crisp" d="M0,0" style="fill: none;"/><path class="ylines-above crisp" d="M0,0" style="fill: none;"/><g class="overlines-above"/><g class="xaxislayer-above"/><g class="yaxislayer-above"><g class="y2tick"><text text-anchor="end" x="79" y="4.199999999999999" transform="translate(0,543.7847368421053)" style="font-family: 'Open Sans', verdana, arial, sans-serif; font-size: 12px; fill: rgb(42, 63, 95); fill-opacity: 1; white-space: pre;">0</text></g><g class="y2tick"><text text-anchor="end" x="79" y="4.199999999999999" transform="translate(0,409.42473684210535)" style="font-family: 'Open Sans', verdana, arial, sans-serif; font-size: 12px; fill: rgb(42, 63, 95); fill-opacity: 1; white-space: pre;">50k</text></g></g><g class="overaxes-above"/></g><g class="subplot x3y3"><g class="layer-subplot"><g class="shapelayer"/><g class="imagelayer"/></g><g class="gridlayer"><g class="x3"><path class="x3grid crisp" transform="translate(171.32,0)" d="M0,563.2226315789474v83.77736842105263" style="stroke: rgb(255, 255, 255); stroke-opacity: 1; stroke-width: 1px;"/><path class="x3grid crisp" transform="translate(262.65,0)" d="M0,563.2226315789474v83.77736842105263" style="stroke: rgb(255, 255, 255); stroke-opacity: 1; stroke-width: 1px;"/><path class="x3grid crisp" transform="translate(354.98,0)" d="M0,563.2226315789474v83.77736842105263" style="stroke: rgb(255, 255, 255); stroke-opacity: 1; stroke-width: 1px;"/><path class="x3grid crisp" transform="translate(447.3,0)" d="M0,563.2226315789474v83.77736842105263" style="stroke: rgb(255, 255, 255); stroke-opacity: 1; stroke-width: 1px;"/><path class="x3grid crisp" transform="translate(537.62,0)" d="M0,563.2226315789474v83.77736842105263" style="stroke: rgb(255, 255, 255); stroke-opacity: 1; stroke-width: 1px;"/><path class="x3grid crisp" transform="translate(628.95,0)" d="M0,563.2226315789474v83.77736842105263" style="stroke: rgb(255, 255, 255); stroke-opacity: 1; stroke-width: 1px;"/><path class="x3grid crisp" transform="translate(721.28,0)" d="M0,563.2226315789474v83.77736842105263" style="stroke: rgb(255, 255, 255); stroke-opacity: 1; stroke-width: 1px;"/></g><g class="y3"/></g><g class="zerolinelayer"><path class="y3zl zl crisp" transform="translate(0,642.8126315789474)" d="M80,0h732.6" style="stroke: rgb(255, 255, 255); stroke-opacity: 1; stroke-width: 2px;"/></g><path class="xlines-below"/><path class="ylines-below"/><g class="overlines-below"/><g class="xaxislayer-below"/><g class="yaxislayer-below"/><g class="overaxes-below"/><g class="plot" transform="translate(80, 563.2226315789474)" clip-path="url('#clip12fc4ax3y3plot')"><g class="scatterlayer mlayer"><g class="trace scatter trace01fa3f" style="stroke-miterlimit: 2; opacity: 0.3;"><g class="fills"/><g class="errorbars"/><g class="lines"><path class="js-line" d="M1,79.59L26.09,78.9L27.1,78.7L31.11,77.14L32.11,76.44L35.12,72.85L36.13,70.92L38.14,65.25L39.14,61.17L41.15,49.31L42.15,40.87L45.16,4.19L46.16,21.93L48.17,48.89L49.17,54.78L53.19,62.28L54.19,56.15L55.2,45.04L56.2,47.3L59.21,50.28L60.21,50.7L65.23,51.71L66.24,50.82L70.25,50.97L71.25,51.08L76.27,51.11L77.27,50.87L85.3,51.07L86.31,50.86L94.33,51.09L95.34,50.88L102.36,51.02L103.37,50.98L133.47,50.97L134.48,51.11L138.49,50.98L139.5,51.03L145.52,51.03L146.52,51.11L148.53,50.98L149.53,51.14L151.54,51.01L152.54,51.13L154.55,50.98L155.55,51.14L158.56,51.08L159.57,50.86L164.58,51.13L165.59,50.93L174.62,51.18L175.62,50.82L180.64,51.18L181.64,50.83L186.66,51.18L187.67,50.84L192.68,51.18L193.69,50.88L196.7,51.13L197.7,50.87L202.72,51.23L203.72,50.78L208.74,51.11L209.74,50.85L214.76,51.25L215.77,50.8L220.78,51.26L221.79,50.8L229.82,53.47L230.82,53.98L239.85,59.5L240.85,60.17L255.91,69.17L256.91,69.66L266.95,73.59L267.95,73.9L279.99,76.63L281,76.79L297.05,78.46L298.06,78.52L324.15,79.35L325.15,79.37L422.5,79.59L423.5,79.59L732.6,79.59" style="vector-effect: non-scaling-stroke; fill: none; stroke: rgb(8, 109, 113); stroke-opacity: 1; stroke-width: 1.5px; opacity: 1;"/></g><g class="points"/><g class="text"/></g><g class="trace scatter trace459373" style="stroke-miterlimit: 2; opacity: 0.6;"><g class="fills"/><g class="errorbars"/><g class="lines"/><g class="points"/><g class="text"/></g></g></g><g class="overplot"/><path class="xlines-above crisp" d="M0,0" style="fill: none;"/><path class="ylines-above crisp" d="M0,0" style="fill: none;"/><g class="overlines-above"/><g class="xaxislayer-above"><g class="x3tick"><text text-anchor="middle" x="0" y="660" transform="translate(80,0)" style="font-family: 'Open Sans', verdana, arial, sans-serif; font-size: 12px; fill: rgb(42, 63, 95); fill-opacity: 1; white-space: pre;">Jan 2020</text></g><g class="x3tick"><text text-anchor="middle" x="0" y="660" transform="translate(171.32,0)" style="font-family: 'Open Sans', verdana, arial, sans-serif; font-size: 12px; fill: rgb(42, 63, 95); fill-opacity: 1; white-space: pre;">Apr 2020</text></g><g class="x3tick"><text text-anchor="middle" x="0" y="660" transform="translate(262.65,0)" style="font-family: 'Open Sans', verdana, arial, sans-serif; font-size: 12px; fill: rgb(42, 63, 95); fill-opacity: 1; white-space: pre;">Jul 2020</text></g><g class="x3tick"><text text-anchor="middle" x="0" y="660" transform="translate(354.98,0)" style="font-family: 'Open Sans', verdana, arial, sans-serif; font-size: 12px; fill: rgb(42, 63, 95); fill-opacity: 1; white-space: pre;">Oct 2020</text></g><g class="x3tick"><text text-anchor="middle" x="0" y="660" transform="translate(447.3,0)" style="font-family: 'Open Sans', verdana, arial, sans-serif; font-size: 12px; fill: rgb(42, 63, 95); fill-opacity: 1; white-space: pre;">Jan 2021</text></g><g class="x3tick"><text text-anchor="middle" x="0" y="660" transform="translate(537.62,0)" style="font-family: 'Open Sans', verdana, arial, sans-serif; font-size: 12px; fill: rgb(42, 63, 95); fill-opacity: 1; white-space: pre;">Apr 2021</text></g><g class="x3tick"><text text-anchor="middle" x="0" y="660" transform="translate(628.95,0)" style="font-family: 'Open Sans', verdana, arial, sans-serif; font-size: 12px; fill: rgb(42, 63, 95); fill-opacity: 1; white-space: pre;">Jul 2021</text></g><g class="x3tick"><text text-anchor="middle" x="0" y="660" transform="translate(721.28,0)" style="font-family: 'Open Sans', verdana, arial, sans-serif; font-size: 12px; fill: rgb(42, 63, 95); fill-opacity: 1; white-space: pre;">Oct 2021</text></g></g><g class="yaxislayer-above"><g class="y3tick"><text text-anchor="end" x="79" y="4.199999999999999" transform="translate(0,642.8126315789474)" style="font-family: 'Open Sans', verdana, arial, sans-serif; font-size: 12px; fill: rgb(42, 63, 95); fill-opacity: 1; white-space: pre;">0</text></g><g class="y3tick"><text text-anchor="end" x="79" y="4.199999999999999" transform="translate(0,608.4326315789474)" style="font-family: 'Open Sans', verdana, arial, sans-serif; font-size: 12px; fill: rgb(42, 63, 95); fill-opacity: 1; white-space: pre;">2000</text></g><g class="y3tick"><text text-anchor="end" x="79" y="4.199999999999999" transform="translate(0,574.0426315789474)" style="font-family: 'Open Sans', verdana, arial, sans-serif; font-size: 12px; fill: rgb(42, 63, 95); fill-opacity: 1; white-space: pre;">4000</text></g></g><g class="overaxes-above"/></g></g><g class="polarlayer"/><g class="ternarylayer"/><g class="geolayer"/><g class="funnelarealayer"/><g class="pielayer"/><g class="treemaplayer"/><g class="sunburstlayer"/><g class="glimages"/><g class="table" overflow="visible" width="892" height="336" transform="translate(0,0)" style="box-sizing: content-box; position: absolute; left: 0px; overflow: visible; shape-rendering: crispedges; pointer-events: all;"><g class="table-control-view" transform="translate(80 100)" clip-path="url('#clip12fc4a_scrollAreaBottomClip_cbc3fdtrue')" style="box-sizing: content-box;"><rect class="scroll-background" fill="none" width="732" height="83"/><g class="y-column" transform="translate(0 0)" clip-path="url('#clip12fc4a_columnBoundaryClippath_cbc3fdtrue_0')"><g class="column-block" id="cells1" transform="translate(0 0)" style="cursor: default;"><g class="column-cells"><g class="column-cell" transform="translate(0 16)"><rect class="cell-rect" width="366" stroke-width="1" style="stroke: rgb(255, 255, 255); stroke-opacity: 1; fill: rgb(255, 255, 255); fill-opacity: 1;" height="20"/><g class="cell-text-holder" transform="translate(358 8)" text-anchor="end" style="shape-rendering: geometricprecision;"><text class="cell-text" dy="0.75em" x="0" y="0" style="cursor: auto; font-family: 'Open Sans', verdana, arial, sans-serif; font-size: 13px; fill: rgb(42, 63, 95); fill-opacity: 1; white-space: pre;">Control Strenght</text></g></g><g class="column-cell" transform="translate(0 36)"><rect class="cell-rect" width="366" stroke-width="1" style="stroke: rgb(255, 255, 255); stroke-opacity: 1; fill: rgb(255, 255, 255); fill-opacity: 1;" height="20"/><g class="cell-text-holder" transform="translate(358 8)" text-anchor="end" style="shape-rendering: geometricprecision;"><text class="cell-text" dy="0.75em" x="0" y="0" style="cursor: auto; font-family: 'Open Sans', verdana, arial, sans-serif; font-size: 13px; fill: rgb(42, 63, 95); fill-opacity: 1; white-space: pre;">Total Infected (% Population)</text></g></g><g class="column-cell" transform="translate(0 56)"><rect class="cell-rect" width="366" stroke-width="1" style="stroke: rgb(255, 255, 255); stroke-opacity: 1; fill: rgb(255, 255, 255); fill-opacity: 1;" height="20"/><g class="cell-text-holder" transform="translate(358 8)" text-anchor="end" style="shape-rendering: geometricprecision;"><text class="cell-text" dy="0.75em" x="0" y="0" style="cursor: auto; font-family: 'Open Sans', verdana, arial, sans-serif; font-size: 13px; fill: rgb(42, 63, 95); fill-opacity: 1; white-space: pre;">Total Deceased (% Infected)</text></g></g></g></g><g class="column-block" id="cells2" transform="translate(0 0)" style="cursor: default;"><g class="column-cells"/></g><g class="column-block" id="header" style="cursor: ew-resize;"><g class="column-cells"><g class="column-cell" transform="translate(0 0)"><rect class="cell-rect" width="366" stroke-width="1" height="16" style="stroke: rgb(255, 255, 255); stroke-opacity: 1; fill: rgb(255, 255, 255); fill-opacity: 1;"/><g class="cell-text-holder" transform="translate(183 8)" text-anchor="middle" style="shape-rendering: geometricprecision;"><text class="cell-text" dy="0.75em" style="cursor: auto; font-family: 'Open Sans', verdana, arial, sans-serif; font-size: 12px; fill: rgb(42, 63, 95); fill-opacity: 1;"/></g></g></g></g><g class="column-boundary"/><clipPath class="column-boundary-clippath" id="clip12fc4a_columnBoundaryClippath_cbc3fdtrue_0"><rect class="column-boundary-rect" fill="none" width="368" height="90" x="-1" y="-1"/></clipPath></g><g class="y-column" transform="translate(366 0)" clip-path="url('#clip12fc4a_columnBoundaryClippath_cbc3fdtrue_1')"><g class="column-block" id="cells1" transform="translate(0 0)" style="cursor: default;"><g class="column-cells"><g class="column-cell" transform="translate(0 16)"><rect class="cell-rect" width="366" stroke-width="1" style="stroke: rgb(255, 255, 255); stroke-opacity: 1; fill: rgb(255, 255, 255); fill-opacity: 1;" height="20"/><g class="cell-text-holder" transform="translate(8 8)" text-anchor="start" style="shape-rendering: geometricprecision;"><text class="cell-text" dy="0.75em" style="cursor: auto; font-family: 'Open Sans', verdana, arial, sans-serif; font-size: 13px; fill: rgb(42, 63, 95); fill-opacity: 1;">9.83%</text></g></g><g class="column-cell" transform="translate(0 36)"><rect class="cell-rect" width="366" stroke-width="1" style="stroke: rgb(255, 255, 255); stroke-opacity: 1; fill: rgb(255, 255, 255); fill-opacity: 1;" height="20"/><g class="cell-text-holder" transform="translate(8 8)" text-anchor="start" style="shape-rendering: geometricprecision;"><text class="cell-text" dy="0.75em" style="cursor: auto; font-family: 'Open Sans', verdana, arial, sans-serif; font-size: 13px; fill: rgb(42, 63, 95); fill-opacity: 1;">73.0%</text></g></g><g class="column-cell" transform="translate(0 56)"><rect class="cell-rect" width="366" stroke-width="1" style="stroke: rgb(255, 255, 255); stroke-opacity: 1; fill: rgb(255, 255, 255); fill-opacity: 1;" height="20"/><g class="cell-text-holder" transform="translate(8 8)" text-anchor="start" style="shape-rendering: geometricprecision;"><text class="cell-text" dy="0.75em" style="cursor: auto; font-family: 'Open Sans', verdana, arial, sans-serif; font-size: 13px; fill: rgb(42, 63, 95); fill-opacity: 1;">2.56%</text></g></g></g></g><g class="column-block" id="cells2" transform="translate(0 0)" style="cursor: default;"><g class="column-cells"/></g><g class="column-block" id="header" style="cursor: ew-resize;"><g class="column-cells"><g class="column-cell" transform="translate(0 0)"><rect class="cell-rect" width="366" stroke-width="1" height="16" style="stroke: rgb(255, 255, 255); stroke-opacity: 1; fill: rgb(255, 255, 255); fill-opacity: 1;"/><g class="cell-text-holder" transform="translate(183 8)" text-anchor="middle" style="shape-rendering: geometricprecision;"><text class="cell-text" dy="0.75em" style="cursor: auto; font-family: 'Open Sans', verdana, arial, sans-serif; font-size: 12px; fill: rgb(42, 63, 95); fill-opacity: 1;"/></g></g></g></g><g class="column-boundary"/><clipPath class="column-boundary-clippath" id="clip12fc4a_columnBoundaryClippath_cbc3fdtrue_1"><rect class="column-boundary-rect" fill="none" width="368" height="90" x="-1" y="-1"/></clipPath></g><clipPath class="scroll-area-clip" id="clip12fc4a_scrollAreaBottomClip_cbc3fdtrue"><rect class="scroll-area-clip-rect" x="-45" y="-5" fill="none" width="822" height="88"/></clipPath></g></g><defs id="topdefs-12fc4a"><g class="clips"/><clipPath id="legend12fc4a"><rect width="523" height="86" x="0" y="0"/></clipPath></defs><g class="layer-above"><g class="imagelayer"/><g class="shapelayer"/></g><g class="infolayer"><g class="legend" pointer-events="all" transform="translate(80, 701.7)"><rect class="bg" shape-rendering="crispEdges" width="523" height="86" x="0" y="0" style="stroke: rgb(68, 68, 68); stroke-opacity: 1; fill: rgb(0, 0, 0); fill-opacity: 0; stroke-width: 0px;"/><g class="scrollbox" transform="translate(0, 0)" clip-path="url('#legend12fc4a')"><g class="groups"><g class="traces" transform="translate(0, 14.5)" style="opacity: 1;"><text class="legendtext user-select-none" text-anchor="start" x="40" y="4.680000000000001" style="font-family: 'Open Sans', verdana, arial, sans-serif; font-size: 12px; fill: rgb(42, 63, 95); fill-opacity: 1; white-space: pre;">Control (u)</text><g class="layers" style="opacity: 1;"><g class="legendfill"/><g class="legendlines"><path class="js-line" d="M5,0h30" style="fill: none; stroke: rgb(145, 13, 0); stroke-opacity: 1; stroke-width: 5px;"/></g><g class="legendsymbols"><g class="legendpoints"/></g></g><rect class="legendtoggle" pointer-events="all" x="0" y="-9.5" width="108.90625" height="19" style="cursor: pointer; fill: rgb(0, 0, 0); fill-opacity: 0;"/></g><g class="traces" transform="translate(188.015625, 14.5)" style="opacity: 0.5;"><text class="legendtext user-select-none" text-anchor="start" x="40" y="4.680000000000001" style="font-family: 'Open Sans', verdana, arial, sans-serif; font-size: 12px; fill: rgb(42, 63, 95); fill-opacity: 1; white-space: pre;">Susceptible</text><g class="layers" style="opacity: 1;"><g class="legendfill"/><g class="legendlines"><path class="js-line" d="M5,0h30" style="fill: none; stroke: rgb(114, 159, 207); stroke-opacity: 1; stroke-width: 5px;"/></g><g class="legendsymbols"><g class="legendpoints"/></g></g><rect class="legendtoggle" pointer-events="all" x="0" y="-9.5" width="111.375" height="19" style="cursor: pointer; fill: rgb(0, 0, 0); fill-opacity: 0;"/></g><g class="traces" transform="translate(376.03125, 14.5)" style="opacity: 0.5;"><text class="legendtext user-select-none" text-anchor="start" x="40" y="4.680000000000001" style="font-family: 'Open Sans', verdana, arial, sans-serif; font-size: 12px; fill: rgb(42, 63, 95); fill-opacity: 1; white-space: pre;">Exposed</text><g class="layers" style="opacity: 0.8;"><g class="legendfill"/><g class="legendlines"><path class="js-line" d="M5,0h30" style="fill: none; stroke: rgb(52, 101, 164); stroke-opacity: 1; stroke-width: 5px;"/></g><g class="legendsymbols"><g class="legendpoints"/></g></g><rect class="legendtoggle" pointer-events="all" x="0" y="-9.5" width="92.828125" height="19" style="cursor: pointer; fill: rgb(0, 0, 0); fill-opacity: 0;"/></g><g class="traces" transform="translate(0, 33.5)" style="opacity: 1;"><text class="legendtext user-select-none" text-anchor="start" x="40" y="4.680000000000001" style="font-family: 'Open Sans', verdana, arial, sans-serif; font-size: 12px; fill: rgb(42, 63, 95); fill-opacity: 1; white-space: pre;">Infected</text><g class="layers" style="opacity: 0.8;"><g class="legendfill"/><g class="legendlines"><path class="js-line" d="M5,0h30" style="fill: none; stroke: rgb(8, 109, 113); stroke-opacity: 1; stroke-width: 5px;"/></g><g class="legendsymbols"><g class="legendpoints"/></g></g><rect class="legendtoggle" pointer-events="all" x="0" y="-9.5" width="92.125" height="19" style="cursor: pointer; fill: rgb(0, 0, 0); fill-opacity: 0;"/></g><g class="traces" transform="translate(188.015625, 33.5)" style="opacity: 1;"><text class="legendtext user-select-none" text-anchor="start" x="40" y="4.680000000000001" style="font-family: 'Open Sans', verdana, arial, sans-serif; font-size: 12px; fill: rgb(42, 63, 95); fill-opacity: 1; white-space: pre;">Hospitalized</text><g class="layers" style="opacity: 0.8;"><g class="legendfill"/><g class="legendlines"><path class="js-line" d="M5,0h30" style="fill: none; stroke: rgb(204, 57, 123); stroke-opacity: 1; stroke-width: 5px;"/></g><g class="legendsymbols"><g class="legendpoints"/></g></g><rect class="legendtoggle" pointer-events="all" x="0" y="-9.5" width="115.28125" height="19" style="cursor: pointer; fill: rgb(0, 0, 0); fill-opacity: 0;"/></g><g class="traces" transform="translate(376.03125, 33.5)" style="opacity: 0.5;"><text class="legendtext user-select-none" text-anchor="start" x="40" y="4.680000000000001" style="font-family: 'Open Sans', verdana, arial, sans-serif; font-size: 12px; fill: rgb(42, 63, 95); fill-opacity: 1; white-space: pre;">Recovered</text><g class="layers" style="opacity: 1;"><g class="legendfill"/><g class="legendlines"><path class="js-line" d="M5,0h30" style="fill: none; stroke: rgb(156, 164, 196); stroke-opacity: 1; stroke-width: 5px;"/></g><g class="legendsymbols"><g class="legendpoints"/></g></g><rect class="legendtoggle" pointer-events="all" x="0" y="-9.5" width="105.53125" height="19" style="cursor: pointer; fill: rgb(0, 0, 0); fill-opacity: 0;"/></g><g class="traces" transform="translate(0, 52.5)" style="opacity: 1;"><text class="legendtext user-select-none" text-anchor="start" x="40" y="4.680000000000001" style="font-family: 'Open Sans', verdana, arial, sans-serif; font-size: 12px; fill: rgb(42, 63, 95); fill-opacity: 1; white-space: pre;">Deceased</text><g class="layers" style="opacity: 0.8;"><g class="legendfill"/><g class="legendlines"><path class="js-line" d="M5,0h30" style="fill: none; stroke: rgb(56, 9, 21); stroke-opacity: 1; stroke-width: 5px;"/></g><g class="legendsymbols"><g class="legendpoints"/></g></g><rect class="legendtoggle" pointer-events="all" x="0" y="-9.5" width="100.390625" height="19" style="cursor: pointer; fill: rgb(0, 0, 0); fill-opacity: 0;"/></g><g class="traces" transform="translate(188.015625, 52.5)" style="opacity: 1;"><text class="legendtext user-select-none" text-anchor="start" x="40" y="4.680000000000001" style="font-family: 'Open Sans', verdana, arial, sans-serif; font-size: 12px; fill: rgb(42, 63, 95); fill-opacity: 1; white-space: pre;">Healthcare capacity (Q)</text><g class="layers" style="opacity: 1;"><g class="legendfill"/><g class="legendlines"><path class="js-line" d="M5,0h30" style="fill: none; stroke: rgb(204, 57, 123); stroke-opacity: 1; stroke-dasharray: 5px, 5px; stroke-width: 5px;"/></g><g class="legendsymbols"><g class="legendpoints"/></g></g><rect class="legendtoggle" pointer-events="all" x="0" y="-9.5" width="185.515625" height="19" style="cursor: pointer; fill: rgb(0, 0, 0); fill-opacity: 0;"/></g><g class="traces" transform="translate(376.03125, 52.5)" style="opacity: 1;"><text class="legendtext user-select-none" text-anchor="start" x="40" y="4.680000000000001" style="font-family: 'Open Sans', verdana, arial, sans-serif; font-size: 12px; fill: rgb(42, 63, 95); fill-opacity: 1; white-space: pre;">Infected (model)</text><g class="layers" style="opacity: 0.3;"><g class="legendfill"/><g class="legendlines"><path class="js-line" d="M5,0h30" style="fill: none; stroke: rgb(8, 109, 113); stroke-opacity: 1; stroke-width: 5px;"/></g><g class="legendsymbols"><g class="legendpoints"/></g></g><rect class="legendtoggle" pointer-events="all" x="0" y="-9.5" width="144.109375" height="19" style="cursor: pointer; fill: rgb(0, 0, 0); fill-opacity: 0;"/></g><g class="traces" transform="translate(0, 71.5)" style="opacity: 1;"><text class="legendtext user-select-none" text-anchor="start" x="40" y="4.680000000000001" style="font-family: 'Open Sans', verdana, arial, sans-serif; font-size: 12px; fill: rgb(42, 63, 95); fill-opacity: 1; white-space: pre;">Infected (real)</text><g class="layers" style="opacity: 0.6;"><g class="legendfill"/><g class="legendlines"><path class="js-line" d="M5,0h30" style="fill: none; stroke: rgb(8, 109, 113); stroke-opacity: 1; stroke-width: 5px;"/></g><g class="legendsymbols"><g class="legendpoints"/></g></g><rect class="legendtoggle" pointer-events="all" x="0" y="-9.5" width="130.015625" height="19" style="cursor: pointer; fill: rgb(0, 0, 0); fill-opacity: 0;"/></g></g></g><rect class="scrollbar" rx="20" ry="3" width="0" height="0" x="0" y="0" style="fill: rgb(128, 139, 164); fill-opacity: 1;"/></g><g class="g-gtitle"><text class="gtitle" x="405" y="80" text-anchor="middle" dy="0.7em" style="font-family: 'Open Sans', verdana, arial, sans-serif; font-size: 17px; fill: rgb(42, 63, 95); opacity: 1; font-weight: normal; white-space: pre;">Constant optimal control</text></g><g class="g-xtitle"/><g class="g-x2title"/><g class="g-x3title"/><g class="g-ytitle"><text class="ytitle" transform="rotate(-90,34.575,231.136052631579)" x="34.575" y="231.136052631579" text-anchor="middle" style="font-family: 'Open Sans', verdana, arial, sans-serif; font-size: 14px; fill: rgb(42, 63, 95); opacity: 1; font-weight: normal; white-space: pre;">Control</text></g><g class="g-y2title"><text class="y2title" transform="rotate(-90,31.840625000000003,418.12368421052633)" x="31.840625000000003" y="418.12368421052633" text-anchor="middle" style="font-family: 'Open Sans', verdana, arial, sans-serif; font-size: 14px; fill: rgb(42, 63, 95); opacity: 1; font-weight: normal; white-space: pre;">Compartments</text></g><g class="g-y3title"><text class="y3title" transform="rotate(-90,23.684375000000003,605.1113157894737)" x="23.684375000000003" y="605.1113157894737" text-anchor="middle" style="font-family: 'Open Sans', verdana, arial, sans-serif; font-size: 14px; fill: rgb(42, 63, 95); opacity: 1; font-weight: normal; white-space: pre;">Comparison</text></g></g></svg>