<svg class="main-svg" xmlns="http://www.w3.org/2000/svg" xmlns:xlink="http://www.w3.org/1999/xlink" width="900" height="800" style="" viewBox="0 0 900 800"><rect x="0" y="0" width="900" height="800" style="fill: rgb(255, 255, 255); fill-opacity: 1;"/><defs id="defs-6d02a1"><g class="clips"><clipPath id="clip6d02a1xyplot" class="plotclip"><rect width="732.6" height="83.77736842105266"/></clipPath><clipPath id="clip6d02a1x2y2plot" class="plotclip"><rect width="732.6" height="279.257894736842"/></clipPath><clipPath id="clip6d02a1x3y3plot" class="plotclip"><rect width="732.6" height="83.77736842105263"/></clipPath><clipPath class="axesclip" id="clip6d02a1x"><rect x="80" y="0" width="732.6" height="800"/></clipPath><clipPath class="axesclip" id="clip6d02a1y"><rect x="0" y="189.24736842105267" width="900" height="83.77736842105266"/></clipPath><clipPath class="axesclip" id="clip6d02a1xy"><rect x="80" y="189.24736842105267" width="732.6" height="83.77736842105266"/></clipPath><clipPath class="axesclip" id="clip6d02a1y2"><rect x="0" y="278.49473684210534" width="900" height="279.257894736842"/></clipPath><clipPath class="axesclip" id="clip6d02a1xy2"><rect x="80" y="278.49473684210534" width="732.6" height="279.257894736842"/></clipPath><clipPath class="axesclip" id="clip6d02a1y3"><rect x="0" y="563.2226315789474" width="900" height="83.77736842105263"/></clipPath><clipPath class="axesclip" id="clip6d02a1xy3"><rect x="80" y="563.2226315789474" width="732.6" height="83.77736842105263"/></clipPath><clipPath class="axesclip" id="clip6d02a1x2"><rect x="80" y="0" width="732.6" height="800"/></clipPath><clipPath class="axesclip" id="clip6d02a1x2y"><rect x="80" y="189.24736842105267" width="732.6" height="83.77736842105266"/></clipPath><clipPath class="axesclip" id="clip6d02a1x2y2"><rect x="80" y="278.49473684210534" width="732.6" height="279.257894736842"/></clipPath><clipPath class="axesclip" id="clip6d02a1x2y3"><rect x="80" y="563.2226315789474" width="732.6" height="83.77736842105263"/></clipPath><clipPath class="axesclip" id="clip6d02a1x3"><rect x="80" y="0" width="732.6" height="800"/></clipPath><clipPath class="axesclip" id="clip6d02a1x3y"><rect x="80" y="189.24736842105267" width="732.6" height="83.77736842105266"/></clipPath><clipPath class="axesclip" id="clip6d02a1x3y2"><rect x="80" y="278.49473684210534" width="732.6" height="279.257894736842"/></clipPath><clipPath class="axesclip" id="clip6d02a1x3y3"><rect x="80" y="563.2226315789474" width="732.6" height="83.77736842105263"/></clipPath></g><g class="gradients"/></defs><g class="bglayer"><rect class="bg" x="80" y="189.24736842105267" width="732.6" height="83.77736842105266" style="fill: rgb(229, 236, 246); fill-opacity: 1; stroke-width: 0;"/><rect class="bg" x="80" y="278.49473684210534" width="732.6" height="279.257894736842" style="fill: rgb(229, 236, 246); fill-opacity: 1; stroke-width: 0;"/><rect class="bg" x="80" y="563.2226315789474" width="732.6" height="83.77736842105263" style="fill: rgb(229, 236, 246); fill-opacity: 1; stroke-width: 0;"/></g><g class="layer-below"><g class="imagelayer"/><g class="shapelayer"/></g><g class="cartesianlayer"><g class="subplot xy"><g class="layer-subplot"><g class="shapelayer"/><g class="imagelayer"/></g><g class="gridlayer"><g class="x"><path class="xgrid crisp" transform="translate(171.32,0)" d="M0,189.24736842105267v83.77736842105266" style="stroke: rgb(255, 255, 255); stroke-opacity: 1; stroke-width: 1px;"/><path class="xgrid crisp" transform="translate(262.65,0)" d="M0,189.24736842105267v83.77736842105266" style="stroke: rgb(255, 255, 255); stroke-opacity: 1; stroke-width: 1px;"/><path class="xgrid crisp" transform="translate(354.98,0)" d="M0,189.24736842105267v83.77736842105266" style="stroke: rgb(255, 255, 255); stroke-opacity: 1; stroke-width: 1px;"/><path class="xgrid crisp" transform="translate(447.3,0)" d="M0,189.24736842105267v83.77736842105266" style="stroke: rgb(255, 255, 255); stroke-opacity: 1; stroke-width: 1px;"/><path class="xgrid crisp" transform="translate(537.62,0)" d="M0,189.24736842105267v83.77736842105266" style="stroke: rgb(255, 255, 255); stroke-opacity: 1; stroke-width: 1px;"/><path class="xgrid crisp" transform="translate(628.95,0)" d="M0,189.24736842105267v83.77736842105266" style="stroke: rgb(255, 255, 255); stroke-opacity: 1; stroke-width: 1px;"/><path class="xgrid crisp" transform="translate(721.28,0)" d="M0,189.24736842105267v83.77736842105266" style="stroke: rgb(255, 255, 255); stroke-opacity: 1; stroke-width: 1px;"/></g><g class="y"/></g><g class="zerolinelayer"><path class="yzl zl crisp" transform="translate(0,268.8373684210527)" d="M80,0h732.6" style="stroke: rgb(255, 255, 255); stroke-opacity: 1; stroke-width: 2px;"/></g><path class="xlines-below"/><path class="ylines-below"/><g class="overlines-below"/><g class="xaxislayer-below"/><g class="yaxislayer-below"/><g class="overaxes-below"/><g class="plot" transform="translate(80, 189.24736842105267)" clip-path="url('#clip6d02a1xyplot')"><g class="scatterlayer mlayer"><g class="trace scatter tracef3123f" style="stroke-miterlimit: 2; opacity: 1;"><g class="fills"/><g class="errorbars"/><g class="lines"><path class="js-line" d="M0,79.59L35.12,79.59L36.13,32.46L83.3,32.46L84.3,4.19L107.38,4.19L108.38,41.89L119.42,41.89L120.43,79.59L129.46,79.59L130.46,75.76L132.47,26.37L133.47,17.07L134.48,13.79L135.48,13.66L138.49,13.66L139.5,41.26L142.51,34.75L143.51,33.64L145.52,32.76L146.52,32.74L149.53,32.74L150.53,34.78L155.55,35.24L156.56,35.84L160.57,36.49L161.57,36.88L165.59,37.58L166.59,38.39L170.61,39.06L171.61,39.59L174.62,40.16L175.62,40.75L178.63,41.32L179.64,41.99L181.64,42.32L182.65,42.92L184.66,43.21L185.66,43.94L187.67,43.99L188.67,45.06L190.68,45.06L191.68,45.83L194.69,46.55L195.69,47.4L197.7,47.52L198.71,48.66L200.71,48.66L201.72,49.62L204.73,50.35L205.73,51.26L207.74,51.73L208.74,52.5L210.75,53.11L211.75,53.71L212.76,53.72L213.76,54.78L215.77,55.09L216.77,56.3L218.78,56.33L219.78,57.8L221.79,57.83L222.79,59.31L224.8,59.35L225.8,60.96L227.81,60.97L228.81,62.54L230.82,62.71L231.82,64.37L233.83,64.38L234.83,66.14L236.84,66.24L237.84,68.14L239.85,68.14L240.85,70.03L242.86,70.24L243.87,72.24L245.87,72.25L246.88,74.39L248.88,74.5L249.89,76.82L251.89,76.82L252.9,79.13L330.17,79.59L331.18,79.59L732.6,79.59" style="vector-effect: non-scaling-stroke; fill: none; stroke: rgb(145, 13, 0); stroke-opacity: 1; stroke-width: 1.5px; opacity: 1;"/></g><g class="points"/><g class="text"/></g></g></g><g class="overplot"/><path class="xlines-above crisp" d="M0,0" style="fill: none;"/><path class="ylines-above crisp" d="M0,0" style="fill: none;"/><g class="overlines-above"/><g class="xaxislayer-above"/><g class="yaxislayer-above"><g class="ytick"><text text-anchor="end" x="79" y="4.199999999999999" transform="translate(0,268.8373684210527)" style="font-family: 'Open Sans', verdana, arial, sans-serif; font-size: 12px; fill: rgb(42, 63, 95); fill-opacity: 1; white-space: pre;">0</text></g><g class="ytick"><text text-anchor="end" x="79" y="4.199999999999999" transform="translate(0,221.70736842105268)" style="font-family: 'Open Sans', verdana, arial, sans-serif; font-size: 12px; fill: rgb(42, 63, 95); fill-opacity: 1; white-space: pre;">0.5</text></g></g><g class="overaxes-above"/></g><g class="subplot x2y2"><g class="layer-subplot"><g class="shapelayer"/><g class="imagelayer"/></g><g class="gridlayer"><g class="x2"><path class="x2grid crisp" transform="translate(171.32,0)" d="M0,278.49473684210534v279.257894736842" style="stroke: rgb(255, 255, 255); stroke-opacity: 1; stroke-width: 1px;"/><path class="x2grid crisp" transform="translate(262.65,0)" d="M0,278.49473684210534v279.257894736842" style="stroke: rgb(255, 255, 255); stroke-opacity: 1; stroke-width: 1px;"/><path class="x2grid crisp" transform="translate(354.98,0)" d="M0,278.49473684210534v279.257894736842" style="stroke: rgb(255, 255, 255); stroke-opacity: 1; stroke-width: 1px;"/><path class="x2grid crisp" transform="translate(447.3,0)" d="M0,278.49473684210534v279.257894736842" style="stroke: rgb(255, 255, 255); stroke-opacity: 1; stroke-width: 1px;"/><path class="x2grid crisp" transform="translate(537.62,0)" d="M0,278.49473684210534v279.257894736842" style="stroke: rgb(255, 255, 255); stroke-opacity: 1; stroke-width: 1px;"/><path class="x2grid crisp" transform="translate(628.95,0)" d="M0,278.49473684210534v279.257894736842" style="stroke: rgb(255, 255, 255); stroke-opacity: 1; stroke-width: 1px;"/><path class="x2grid crisp" transform="translate(721.28,0)" d="M0,278.49473684210534v279.257894736842" style="stroke: rgb(255, 255, 255); stroke-opacity: 1; stroke-width: 1px;"/></g><g class="y2"/></g><g class="zerolinelayer"><path class="y2zl zl crisp" transform="translate(0,543.7847368421053)" d="M80,0h732.6" style="stroke: rgb(255, 255, 255); stroke-opacity: 1; stroke-width: 2px;"/></g><path class="xlines-below"/><path class="ylines-below"/><g class="overlines-below"/><g class="xaxislayer-below"/><g class="yaxislayer-below"/><g class="overaxes-below"/><g class="plot" transform="translate(80, 278.49473684210534)" clip-path="url('#clip6d02a1x2y2plot')"><g class="scatterlayer mlayer"><g class="trace scatter tracebe6a72" style="stroke-miterlimit: 2; opacity: 0.8;"><g class="fills"/><g class="errorbars"/><g class="lines"><path class="js-line" d="M0,265.29L25.09,264.63L26.09,264.44L30.11,262.92L31.11,262.23L34.12,258.74L35.12,256.85L38.14,250.76L39.14,249.56L46.16,240.66L47.17,239.09L52.19,229.76L53.19,227.56L58.21,214.7L59.21,211.71L65.23,190.69L66.24,186.65L73.26,154.3L74.26,149.17L84.3,95.58L85.3,97.35L88.31,138L89.32,152.45L93.33,197.84L94.33,206.17L98.35,230.5L99.35,234.83L103.37,247.42L104.37,249.66L108.38,256.13L109.39,256.81L111.4,256.45L112.4,255.96L118.42,251.87L119.42,251.02L121.43,248.36L122.43,245.28L125.45,230.08L126.45,222.71L129.46,190.45L130.46,175.25L133.47,132.3L134.48,131.08L136.48,143.07L137.49,151.61L140.5,173.81L141.5,174.22L145.52,170.42L146.52,170.18L149.53,170.55L150.53,170.89L153.54,171.06L154.55,171.02L229.82,171.08L230.82,171.05L258.92,171.83L259.92,172.37L263.94,176.06L264.94,177.33L269.96,185.35L270.96,187.22L281,208.03L282,210.13L291.03,227.48L292.04,229.17L299.06,239.52L300.06,240.78L307.09,248.25L308.09,249.14L315.12,254.25L316.12,254.84L324.15,258.61L325.15,258.98L335.19,261.73L336.19,261.93L349.24,263.71L350.24,263.8L373.32,264.9L374.33,264.93L428.52,265.28L429.52,265.28L732.6,265.29" style="vector-effect: non-scaling-stroke; fill: none; stroke: rgb(8, 109, 113); stroke-opacity: 1; stroke-width: 1.5px; opacity: 1;"/></g><g class="points"/><g class="text"/></g><g class="trace scatter tracec2eae8" style="stroke-miterlimit: 2; opacity: 0.8;"><g class="fills"/><g class="errorbars"/><g class="lines"><path class="js-line" d="M0,265.29L35.12,264.56L36.13,264.35L52.19,259.26L53.19,258.84L61.22,254.7L62.22,254.05L69.25,248.63L70.25,247.71L78.28,239.16L79.28,237.96L86.31,229.56L87.31,229.23L89.32,230.06L90.32,231.06L94.33,237.18L95.34,238.93L102.36,250.08L103.37,251.37L108.38,256.6L109.39,257.41L113.4,259.73L114.41,260.1L119.42,261.09L120.43,261.14L124.44,260.62L125.45,260.19L128.46,257.83L129.46,256.59L132.47,251.02L133.47,248.68L136.48,243.12L137.49,242.11L139.5,241.25L140.5,241.27L148.53,241.28L149.53,241.25L224.8,241.24L225.8,241.24L265.94,241.89L266.95,242.07L274.98,244.48L275.98,244.88L289.03,251.04L290.03,251.53L303.08,257.18L304.08,257.55L316.12,260.97L317.13,261.19L332.18,263.45L333.18,263.55L352.25,264.7L353.25,264.73L395.4,265.25L396.41,265.25L732.6,265.29" style="vector-effect: non-scaling-stroke; fill: none; stroke: rgb(204, 57, 123); stroke-opacity: 1; stroke-width: 1.5px; opacity: 1;"/></g><g class="points"/><g class="text"/></g><g class="trace scatter trace9063f6" style="stroke-miterlimit: 2; opacity: 0.8;"><g class="fills"/><g class="errorbars"/><g class="lines"><path class="js-line" d="M0,265.29L43.15,264.56L44.16,264.43L54.19,262.32L55.2,262.01L63.22,258.79L64.23,258.27L71.25,253.67L72.26,252.86L76.27,249.18L77.27,247.41L83.3,232.8L84.3,229.99L95.34,198.84L96.34,196.66L99.35,193.41L100.36,192.6L106.38,188.99L107.38,188.56L115.41,186.23L116.41,186.03L130.46,182.83L131.47,182.36L135.48,179.56L136.48,178.64L152.54,162.36L153.54,161.34L276.98,36.13L277.99,35.29L287.02,28.58L288.02,27.94L297.05,23.1L298.06,22.66L308.09,19.17L309.1,18.9L322.14,16.4L323.15,16.27L339.2,14.89L340.21,14.84L369.31,14.13L370.31,14.12L461.64,13.96L462.64,13.96L732.6,13.96" style="vector-effect: non-scaling-stroke; fill: none; stroke: rgb(56, 9, 21); stroke-opacity: 1; stroke-width: 1.5px; opacity: 1;"/></g><g class="points"/><g class="text"/></g><g class="trace scatter traceb781d9" style="stroke-miterlimit: 2; opacity: 1;"><g class="fills"/><g class="errorbars"/><g class="lines"><path class="js-line" d="M0,241.24L732.6,241.24" style="vector-effect: non-scaling-stroke; fill: none; stroke: rgb(204, 57, 123); stroke-opacity: 1; stroke-width: 1.5px; opacity: 1; stroke-dasharray: 3px, 3px;"/></g><g class="points"/><g class="text"/></g></g></g><g class="overplot"/><path class="xlines-above crisp" d="M0,0" style="fill: none;"/><path class="ylines-above crisp" d="M0,0" style="fill: none;"/><g class="overlines-above"/><g class="xaxislayer-above"/><g class="yaxislayer-above"><g class="y2tick"><text text-anchor="end" x="79" y="4.199999999999999" transform="translate(0,543.7847368421053)" style="font-family: 'Open Sans', verdana, arial, sans-serif; font-size: 12px; fill: rgb(42, 63, 95); fill-opacity: 1; white-space: pre;">0</text></g><g class="y2tick"><text text-anchor="end" x="79" y="4.199999999999999" transform="translate(0,423.49473684210534)" style="font-family: 'Open Sans', verdana, arial, sans-serif; font-size: 12px; fill: rgb(42, 63, 95); fill-opacity: 1; white-space: pre;">50k</text></g><g class="y2tick"><text text-anchor="end" x="79" y="4.199999999999999" transform="translate(0,303.1947368421053)" style="font-family: 'Open Sans', verdana, arial, sans-serif; font-size: 12px; fill: rgb(42, 63, 95); fill-opacity: 1; white-space: pre;">100k</text></g></g><g class="overaxes-above"/></g><g class="subplot x3y3"><g class="layer-subplot"><g class="shapelayer"/><g class="imagelayer"/></g><g class="gridlayer"><g class="x3"><path class="x3grid crisp" transform="translate(171.32,0)" d="M0,563.2226315789474v83.77736842105263" style="stroke: rgb(255, 255, 255); stroke-opacity: 1; stroke-width: 1px;"/><path class="x3grid crisp" transform="translate(262.65,0)" d="M0,563.2226315789474v83.77736842105263" style="stroke: rgb(255, 255, 255); stroke-opacity: 1; stroke-width: 1px;"/><path class="x3grid crisp" transform="translate(354.98,0)" d="M0,563.2226315789474v83.77736842105263" style="stroke: rgb(255, 255, 255); stroke-opacity: 1; stroke-width: 1px;"/><path class="x3grid crisp" transform="translate(447.3,0)" d="M0,563.2226315789474v83.77736842105263" style="stroke: rgb(255, 255, 255); stroke-opacity: 1; stroke-width: 1px;"/><path class="x3grid crisp" transform="translate(537.62,0)" d="M0,563.2226315789474v83.77736842105263" style="stroke: rgb(255, 255, 255); stroke-opacity: 1; stroke-width: 1px;"/><path class="x3grid crisp" transform="translate(628.95,0)" d="M0,563.2226315789474v83.77736842105263" style="stroke: rgb(255, 255, 255); stroke-opacity: 1; stroke-width: 1px;"/><path class="x3grid crisp" transform="translate(721.28,0)" d="M0,563.2226315789474v83.77736842105263" style="stroke: rgb(255, 255, 255); stroke-opacity: 1; stroke-width: 1px;"/></g><g class="y3"/></g><g class="zerolinelayer"><path class="y3zl zl crisp" transform="translate(0,642.8126315789474)" d="M80,0h732.6" style="stroke: rgb(255, 255, 255); stroke-opacity: 1; stroke-width: 2px;"/></g><path class="xlines-below"/><path class="ylines-below"/><g class="overlines-below"/><g class="xaxislayer-below"/><g class="yaxislayer-below"/><g class="overaxes-below"/><g class="plot" transform="translate(80, 563.2226315789474)" clip-path="url('#clip6d02a1x3y3plot')"><g class="scatterlayer mlayer"><g class="trace scatter tracee2a7ef" style="stroke-miterlimit: 2; opacity: 0.3;"><g class="fills"/><g class="errorbars"/><g class="lines"><path class="js-line" d="M1,79.59L25.09,78.97L26.09,78.79L30.11,77.39L31.11,76.76L34.12,73.54L35.12,71.8L36.13,69.56L37.13,73.49L44.16,69.43L45.16,68.79L52.19,63.16L53.19,62.18L60.21,53.81L61.22,52.4L68.24,41L69.25,39.18L84.3,11.25L85.3,52.44L88.31,59.04L89.32,61.4L93.33,68.78L94.33,70.13L98.35,74.04L99.35,74.73L104.37,77.1L105.37,77.41L108.38,78.13L109.39,75.59L113.4,74.98L114.41,74.69L120.43,72.55L121.43,66.63L123.44,61.3L124.44,57.54L127.45,41.02L128.46,33.28L131.47,4.19L132.47,22.78L134.48,46.58L135.48,51L139.5,58.58L140.5,40.76L142.51,44.35L143.51,45.2L146.52,46.39L147.52,46.55L150.53,47.23L151.54,46.1L156.56,46.56L157.56,46.32L163.58,46.6L164.58,46.37L169.6,46.64L170.61,46.41L175.62,46.59L176.63,46.41L181.64,46.56L182.65,46.56L186.66,46.36L187.67,46.54L191.68,46.66L192.68,46.43L198.71,46.69L199.71,46.3L203.72,46.59L204.73,46.43L208.74,46.56L209.74,46.4L213.76,46.65L214.76,46.36L219.78,46.74L220.78,46.3L225.8,46.75L226.8,46.29L231.82,46.73L232.83,46.29L237.84,46.77L238.85,46.27L242.86,46.57L243.87,46.76L245.87,46.53L246.88,46.8L248.88,46.56L249.89,46.81L251.89,46.53L252.9,46.82L254.9,46.58L255.91,46.8L260.93,48.8L261.93,49.35L269.96,54.79L270.96,55.55L287.02,66.93L288.02,67.51L297.05,71.87L298.06,72.26L308.09,75.31L309.1,75.53L322.14,77.64L323.15,77.74L340.21,78.9L341.21,78.94L385.37,79.54L386.37,79.54L732.6,79.59" style="vector-effect: non-scaling-stroke; fill: none; stroke: rgb(8, 109, 113); stroke-opacity: 1; stroke-width: 1.5px; opacity: 1;"/></g><g class="points"/><g class="text"/></g><g class="trace scatter tracebf201f" style="stroke-miterlimit: 2; opacity: 0.6;"><g class="fills"/><g class="errorbars"/><g class="lines"><path class="js-line" d="M1,79.59L24.09,78.97L25.09,78.79L29.1,77.38L30.11,76.76L33.12,73.54L34.12,71.79L35.12,69.57L36.13,73.48L51.18,63.16L52.19,62.19L59.21,53.81L60.21,52.4L67.24,41.01L68.24,39.18L83.3,11.25L84.3,52.44L87.31,59.02L88.31,61.41L92.33,68.79L93.33,70.12L97.35,74.04L98.35,74.74L103.37,77.08L104.37,77.42L107.38,78.12L108.38,75.59L112.4,74.97L113.4,74.7L119.42,72.55" style="vector-effect: non-scaling-stroke; fill: none; stroke: rgb(8, 109, 113); stroke-opacity: 1; stroke-width: 1.5px; opacity: 1;"/></g><g class="points"/><g class="text"/></g></g></g><g class="overplot"/><path class="xlines-above crisp" d="M0,0" style="fill: none;"/><path class="ylines-above crisp" d="M0,0" style="fill: none;"/><g class="overlines-above"/><g class="xaxislayer-above"><g class="x3tick"><text text-anchor="middle" x="0" y="660" transform="translate(80,0)" style="font-family: 'Open Sans', verdana, arial, sans-serif; font-size: 12px; fill: rgb(42, 63, 95); fill-opacity: 1; white-space: pre;">Jan 2020</text></g><g class="x3tick"><text text-anchor="middle" x="0" y="660" transform="translate(171.32,0)" style="font-family: 'Open Sans', verdana, arial, sans-serif; font-size: 12px; fill: rgb(42, 63, 95); fill-opacity: 1; white-space: pre;">Apr 2020</text></g><g class="x3tick"><text text-anchor="middle" x="0" y="660" transform="translate(262.65,0)" style="font-family: 'Open Sans', verdana, arial, sans-serif; font-size: 12px; fill: rgb(42, 63, 95); fill-opacity: 1; white-space: pre;">Jul 2020</text></g><g class="x3tick"><text text-anchor="middle" x="0" y="660" transform="translate(354.98,0)" style="font-family: 'Open Sans', verdana, arial, sans-serif; font-size: 12px; fill: rgb(42, 63, 95); fill-opacity: 1; white-space: pre;">Oct 2020</text></g><g class="x3tick"><text text-anchor="middle" x="0" y="660" transform="translate(447.3,0)" style="font-family: 'Open Sans', verdana, arial, sans-serif; font-size: 12px; fill: rgb(42, 63, 95); fill-opacity: 1; white-space: pre;">Jan 2021</text></g><g class="x3tick"><text text-anchor="middle" x="0" y="660" transform="translate(537.62,0)" style="font-family: 'Open Sans', verdana, arial, sans-serif; font-size: 12px; fill: rgb(42, 63, 95); fill-opacity: 1; white-space: pre;">Apr 2021</text></g><g class="x3tick"><text text-anchor="middle" x="0" y="660" transform="translate(628.95,0)" style="font-family: 'Open Sans', verdana, arial, sans-serif; font-size: 12px; fill: rgb(42, 63, 95); fill-opacity: 1; white-space: pre;">Jul 2021</text></g><g class="x3tick"><text text-anchor="middle" x="0" y="660" transform="translate(721.28,0)" style="font-family: 'Open Sans', verdana, arial, sans-serif; font-size: 12px; fill: rgb(42, 63, 95); fill-opacity: 1; white-space: pre;">Oct 2021</text></g></g><g class="yaxislayer-above"><g class="y3tick"><text text-anchor="end" x="79" y="4.199999999999999" transform="translate(0,642.8126315789474)" style="font-family: 'Open Sans', verdana, arial, sans-serif; font-size: 12px; fill: rgb(42, 63, 95); fill-opacity: 1; white-space: pre;">0</text></g><g class="y3tick"><text text-anchor="end" x="79" y="4.199999999999999" transform="translate(0,603.0326315789473)" style="font-family: 'Open Sans', verdana, arial, sans-serif; font-size: 12px; fill: rgb(42, 63, 95); fill-opacity: 1; white-space: pre;">2000</text></g><g class="y3tick"><text text-anchor="end" x="79" y="4.199999999999999" transform="translate(0,563.2626315789473)" style="font-family: 'Open Sans', verdana, arial, sans-serif; font-size: 12px; fill: rgb(42, 63, 95); fill-opacity: 1; white-space: pre;">4000</text></g></g><g class="overaxes-above"/></g></g><g class="polarlayer"/><g class="ternarylayer"/><g class="geolayer"/><g class="funnelarealayer"/><g class="pielayer"/><g class="treemaplayer"/><g class="sunburstlayer"/><g class="glimages"/><g class="table" overflow="visible" width="892" height="336" transform="translate(0,0)" style="box-sizing: content-box; position: absolute; left: 0px; overflow: visible; shape-rendering: crispedges; pointer-events: all;"><g class="table-control-view" transform="translate(80 100)" clip-path="url('#clip6d02a1_scrollAreaBottomClip_ad9f3ftrue')" style="box-sizing: content-box;"><rect class="scroll-background" fill="none" width="732" height="83"/><g class="y-column" transform="translate(0 0)" clip-path="url('#clip6d02a1_columnBoundaryClippath_ad9f3ftrue_0')"><g class="column-block" id="cells1" transform="translate(0 0)" style="cursor: default;"><g class="column-cells"><g class="column-cell" transform="translate(0 16)"><rect class="cell-rect" width="366" stroke-width="1" style="stroke: rgb(255, 255, 255); stroke-opacity: 1; fill: rgb(255, 255, 255); fill-opacity: 1;" height="20"/><g class="cell-text-holder" transform="translate(358 8)" text-anchor="end" style="shape-rendering: geometricprecision;"><text class="cell-text" dy="0.75em" x="0" y="0" style="cursor: auto; font-family: 'Open Sans', verdana, arial, sans-serif; font-size: 13px; fill: rgb(42, 63, 95); fill-opacity: 1; white-space: pre;">Control Strenght</text></g></g><g class="column-cell" transform="translate(0 36)"><rect class="cell-rect" width="366" stroke-width="1" style="stroke: rgb(255, 255, 255); stroke-opacity: 1; fill: rgb(255, 255, 255); fill-opacity: 1;" height="20"/><g class="cell-text-holder" transform="translate(358 8)" text-anchor="end" style="shape-rendering: geometricprecision;"><text class="cell-text" dy="0.75em" x="0" y="0" style="cursor: auto; font-family: 'Open Sans', verdana, arial, sans-serif; font-size: 13px; fill: rgb(42, 63, 95); fill-opacity: 1; white-space: pre;">Total Infected (% Population)</text></g></g><g class="column-cell" transform="translate(0 56)"><rect class="cell-rect" width="366" stroke-width="1" style="stroke: rgb(255, 255, 255); stroke-opacity: 1; fill: rgb(255, 255, 255); fill-opacity: 1;" height="20"/><g class="cell-text-holder" transform="translate(358 8)" text-anchor="end" style="shape-rendering: geometricprecision;"><text class="cell-text" dy="0.75em" x="0" y="0" style="cursor: auto; font-family: 'Open Sans', verdana, arial, sans-serif; font-size: 13px; fill: rgb(42, 63, 95); fill-opacity: 1; white-space: pre;">Total Deceased (% Infected)</text></g></g></g></g><g class="column-block" id="cells2" transform="translate(0 0)" style="cursor: default;"><g class="column-cells"/></g><g class="column-block" id="header" style="cursor: ew-resize;"><g class="column-cells"><g class="column-cell" transform="translate(0 0)"><rect class="cell-rect" width="366" stroke-width="1" height="16" style="stroke: rgb(255, 255, 255); stroke-opacity: 1; fill: rgb(255, 255, 255); fill-opacity: 1;"/><g class="cell-text-holder" transform="translate(183 8)" text-anchor="middle" style="shape-rendering: geometricprecision;"><text class="cell-text" dy="0.75em" style="cursor: auto; font-family: 'Open Sans', verdana, arial, sans-serif; font-size: 12px; fill: rgb(42, 63, 95); fill-opacity: 1;"/></g></g></g></g><g class="column-boundary"/><clipPath class="column-boundary-clippath" id="clip6d02a1_columnBoundaryClippath_ad9f3ftrue_0"><rect class="column-boundary-rect" fill="none" width="368" height="90" x="-1" y="-1"/></clipPath></g><g class="y-column" transform="translate(366 0)" clip-path="url('#clip6d02a1_columnBoundaryClippath_ad9f3ftrue_1')"><g class="column-block" id="cells1" transform="translate(0 0)" style="cursor: default;"><g class="column-cells"><g class="column-cell" transform="translate(0 16)"><rect class="cell-rect" width="366" stroke-width="1" style="stroke: rgb(255, 255, 255); stroke-opacity: 1; fill: rgb(255, 255, 255); fill-opacity: 1;" height="20"/><g class="cell-text-holder" transform="translate(8 8)" text-anchor="start" style="shape-rendering: geometricprecision;"><text class="cell-text" dy="0.75em" style="cursor: auto; font-family: 'Open Sans', verdana, arial, sans-serif; font-size: 13px; fill: rgb(42, 63, 95); fill-opacity: 1;">12.18%</text></g></g><g class="column-cell" transform="translate(0 36)"><rect class="cell-rect" width="366" stroke-width="1" style="stroke: rgb(255, 255, 255); stroke-opacity: 1; fill: rgb(255, 255, 255); fill-opacity: 1;" height="20"/><g class="cell-text-holder" transform="translate(8 8)" text-anchor="start" style="shape-rendering: geometricprecision;"><text class="cell-text" dy="0.75em" style="cursor: auto; font-family: 'Open Sans', verdana, arial, sans-serif; font-size: 13px; fill: rgb(42, 63, 95); fill-opacity: 1;">73.0%</text></g></g><g class="column-cell" transform="translate(0 56)"><rect class="cell-rect" width="366" stroke-width="1" style="stroke: rgb(255, 255, 255); stroke-opacity: 1; fill: rgb(255, 255, 255); fill-opacity: 1;" height="20"/><g class="cell-text-holder" transform="translate(8 8)" text-anchor="start" style="shape-rendering: geometricprecision;"><text class="cell-text" dy="0.75em" style="cursor: auto; font-family: 'Open Sans', verdana, arial, sans-serif; font-size: 13px; fill: rgb(42, 63, 95); fill-opacity: 1;">2.86%</text></g></g></g></g><g class="column-block" id="cells2" transform="translate(0 0)" style="cursor: default;"><g class="column-cells"/></g><g class="column-block" id="header" style="cursor: ew-resize;"><g class="column-cells"><g class="column-cell" transform="translate(0 0)"><rect class="cell-rect" width="366" stroke-width="1" height="16" style="stroke: rgb(255, 255, 255); stroke-opacity: 1; fill: rgb(255, 255, 255); fill-opacity: 1;"/><g class="cell-text-holder" transform="translate(183 8)" text-anchor="middle" style="shape-rendering: geometricprecision;"><text class="cell-text" dy="0.75em" style="cursor: auto; font-family: 'Open Sans', verdana, arial, sans-serif; font-size: 12px; fill: rgb(42, 63, 95); fill-opacity: 1;"/></g></g></g></g><g class="column-boundary"/><clipPath class="column-boundary-clippath" id="clip6d02a1_columnBoundaryClippath_ad9f3ftrue_1"><rect class="column-boundary-rect" fill="none" width="368" height="90" x="-1" y="-1"/></clipPath></g><clipPath class="scroll-area-clip" id="clip6d02a1_scrollAreaBottomClip_ad9f3ftrue"><rect class="scroll-area-clip-rect" x="-45" y="-5" fill="none" width="822" height="88"/></clipPath></g></g><defs id="topdefs-6d02a1"><g class="clips"/><clipPath id="legend6d02a1"><rect width="523" height="86" x="0" y="0"/></clipPath></defs><g class="layer-above"><g class="imagelayer"/><g class="shapelayer"/></g><g class="infolayer"><g class="legend" pointer-events="all" transform="translate(80, 701.7)"><rect class="bg" shape-rendering="crispEdges" width="523" height="86" x="0" y="0" style="stroke: rgb(68, 68, 68); stroke-opacity: 1; fill: rgb(0, 0, 0); fill-opacity: 0; stroke-width: 0px;"/><g class="scrollbox" transform="translate(0, 0)" clip-path="url('#legend6d02a1')"><g class="groups"><g class="traces" transform="translate(0, 14.5)" style="opacity: 1;"><text class="legendtext user-select-none" text-anchor="start" x="40" y="4.680000000000001" style="font-family: 'Open Sans', verdana, arial, sans-serif; font-size: 12px; fill: rgb(42, 63, 95); fill-opacity: 1; white-space: pre;">Control (u)</text><g class="layers" style="opacity: 1;"><g class="legendfill"/><g class="legendlines"><path class="js-line" d="M5,0h30" style="fill: none; stroke: rgb(145, 13, 0); stroke-opacity: 1; stroke-width: 5px;"/></g><g class="legendsymbols"><g class="legendpoints"/></g></g><rect class="legendtoggle" pointer-events="all" x="0" y="-9.5" width="108.90625" height="19" style="cursor: pointer; fill: rgb(0, 0, 0); fill-opacity: 0;"/></g><g class="traces" transform="translate(188.015625, 14.5)" style="opacity: 0.5;"><text class="legendtext user-select-none" text-anchor="start" x="40" y="4.680000000000001" style="font-family: 'Open Sans', verdana, arial, sans-serif; font-size: 12px; fill: rgb(42, 63, 95); fill-opacity: 1; white-space: pre;">Susceptible</text><g class="layers" style="opacity: 1;"><g class="legendfill"/><g class="legendlines"><path class="js-line" d="M5,0h30" style="fill: none; stroke: rgb(114, 159, 207); stroke-opacity: 1; stroke-width: 5px;"/></g><g class="legendsymbols"><g class="legendpoints"/></g></g><rect class="legendtoggle" pointer-events="all" x="0" y="-9.5" width="111.375" height="19" style="cursor: pointer; fill: rgb(0, 0, 0); fill-opacity: 0;"/></g><g class="traces" transform="translate(376.03125, 14.5)" style="opacity: 0.5;"><text class="legendtext user-select-none" text-anchor="start" x="40" y="4.680000000000001" style="font-family: 'Open Sans', verdana, arial, sans-serif; font-size: 12px; fill: rgb(42, 63, 95); fill-opacity: 1; white-space: pre;">Exposed</text><g class="layers" style="opacity: 0.8;"><g class="legendfill"/><g class="legendlines"><path class="js-line" d="M5,0h30" style="fill: none; stroke: rgb(52, 101, 164); stroke-opacity: 1; stroke-width: 5px;"/></g><g class="legendsymbols"><g class="legendpoints"/></g></g><rect class="legendtoggle" pointer-events="all" x="0" y="-9.5" width="92.828125" height="19" style="cursor: pointer; fill: rgb(0, 0, 0); fill-opacity: 0;"/></g><g class="traces" transform="translate(0, 33.5)" style="opacity: 1;"><text class="legendtext user-select-none" text-anchor="start" x="40" y="4.680000000000001" style="font-family: 'Open Sans', verdana, arial, sans-serif; font-size: 12px; fill: rgb(42, 63, 95); fill-opacity: 1; white-space: pre;">Infected</text><g class="layers" style="opacity: 0.8;"><g class="legendfill"/><g class="legendlines"><path class="js-line" d="M5,0h30" style="fill: none; stroke: rgb(8, 109, 113); stroke-opacity: 1; stroke-width: 5px;"/></g><g class="legendsymbols"><g class="legendpoints"/></g></g><rect class="legendtoggle" pointer-events="all" x="0" y="-9.5" width="92.125" height="19" style="cursor: pointer; fill: rgb(0, 0, 0); fill-opacity: 0;"/></g><g class="traces" transform="translate(188.015625, 33.5)" style="opacity: 1;"><text class="legendtext user-select-none" text-anchor="start" x="40" y="4.680000000000001" style="font-family: 'Open Sans', verdana, arial, sans-serif; font-size: 12px; fill: rgb(42, 63, 95); fill-opacity: 1; white-space: pre;">Hospitalized</text><g class="layers" style="opacity: 0.8;"><g class="legendfill"/><g class="legendlines"><path class="js-line" d="M5,0h30" style="fill: none; stroke: rgb(204, 57, 123); stroke-opacity: 1; stroke-width: 5px;"/></g><g class="legendsymbols"><g class="legendpoints"/></g></g><rect class="legendtoggle" pointer-events="all" x="0" y="-9.5" width="115.28125" height="19" style="cursor: pointer; fill: rgb(0, 0, 0); fill-opacity: 0;"/></g><g class="traces" transform="translate(376.03125, 33.5)" style="opacity: 0.5;"><text class="legendtext user-select-none" text-anchor="start" x="40" y="4.680000000000001" style="font-family: 'Open Sans', verdana, arial, sans-serif; font-size: 12px; fill: rgb(42, 63, 95); fill-opacity: 1; white-space: pre;">Recovered</text><g class="layers" style="opacity: 1;"><g class="legendfill"/><g class="legendlines"><path class="js-line" d="M5,0h30" style="fill: none; stroke: rgb(156, 164, 196); stroke-opacity: 1; stroke-width: 5px;"/></g><g class="legendsymbols"><g class="legendpoints"/></g></g><rect class="legendtoggle" pointer-events="all" x="0" y="-9.5" width="105.53125" height="19" style="cursor: pointer; fill: rgb(0, 0, 0); fill-opacity: 0;"/></g><g class="traces" transform="translate(0, 52.5)" style="opacity: 1;"><text class="legendtext user-select-none" text-anchor="start" x="40" y="4.680000000000001" style="font-family: 'Open Sans', verdana, arial, sans-serif; font-size: 12px; fill: rgb(42, 63, 95); fill-opacity: 1; white-space: pre;">Deceased</text><g class="layers" style="opacity: 0.8;"><g class="legendfill"/><g class="legendlines"><path class="js-line" d="M5,0h30" style="fill: none; stroke: rgb(56, 9, 21); stroke-opacity: 1; stroke-width: 5px;"/></g><g class="legendsymbols"><g class="legendpoints"/></g></g><rect class="legendtoggle" pointer-events="all" x="0" y="-9.5" width="100.390625" height="19" style="cursor: pointer; fill: rgb(0, 0, 0); fill-opacity: 0;"/></g><g class="traces" transform="translate(188.015625, 52.5)" style="opacity: 1;"><text class="legendtext user-select-none" text-anchor="start" x="40" y="4.680000000000001" style="font-family: 'Open Sans', verdana, arial, sans-serif; font-size: 12px; fill: rgb(42, 63, 95); fill-opacity: 1; white-space: pre;">Healthcare capacity (Q)</text><g class="layers" style="opacity: 1;"><g class="legendfill"/><g class="legendlines"><path class="js-line" d="M5,0h30" style="fill: none; stroke: rgb(204, 57, 123); stroke-opacity: 1; stroke-dasharray: 5px, 5px; stroke-width: 5px;"/></g><g class="legendsymbols"><g class="legendpoints"/></g></g><rect class="legendtoggle" pointer-events="all" x="0" y="-9.5" width="185.515625" height="19" style="cursor: pointer; fill: rgb(0, 0, 0); fill-opacity: 0;"/></g><g class="traces" transform="translate(376.03125, 52.5)" style="opacity: 1;"><text class="legendtext user-select-none" text-anchor="start" x="40" y="4.680000000000001" style="font-family: 'Open Sans', verdana, arial, sans-serif; font-size: 12px; fill: rgb(42, 63, 95); fill-opacity: 1; white-space: pre;">Infected (model)</text><g class="layers" style="opacity: 0.3;"><g class="legendfill"/><g class="legendlines"><path class="js-line" d="M5,0h30" style="fill: none; stroke: rgb(8, 109, 113); stroke-opacity: 1; stroke-width: 5px;"/></g><g class="legendsymbols"><g class="legendpoints"/></g></g><rect class="legendtoggle" pointer-events="all" x="0" y="-9.5" width="144.109375" height="19" style="cursor: pointer; fill: rgb(0, 0, 0); fill-opacity: 0;"/></g><g class="traces" transform="translate(0, 71.5)" style="opacity: 1;"><text class="legendtext user-select-none" text-anchor="start" x="40" y="4.680000000000001" style="font-family: 'Open Sans', verdana, arial, sans-serif; font-size: 12px; fill: rgb(42, 63, 95); fill-opacity: 1; white-space: pre;">Infected (real)</text><g class="layers" style="opacity: 0.6;"><g class="legendfill"/><g class="legendlines"><path class="js-line" d="M5,0h30" style="fill: none; stroke: rgb(8, 109, 113); stroke-opacity: 1; stroke-width: 5px;"/></g><g class="legendsymbols"><g class="legendpoints"/></g></g><rect class="legendtoggle" pointer-events="all" x="0" y="-9.5" width="130.015625" height="19" style="cursor: pointer; fill: rgb(0, 0, 0); fill-opacity: 0;"/></g></g></g><rect class="scrollbar" rx="20" ry="3" width="0" height="0" x="0" y="0" style="fill: rgb(128, 139, 164); fill-opacity: 1;"/></g><g class="g-gtitle"><text class="gtitle" x="405" y="80" text-anchor="middle" dy="0.7em" style="font-family: 'Open Sans', verdana, arial, sans-serif; font-size: 17px; fill: rgb(42, 63, 95); opacity: 1; font-weight: normal; white-space: pre;">From current to optimal control</text></g><g class="g-xtitle"/><g class="g-x2title"/><g class="g-x3title"/><g class="g-ytitle"><text class="ytitle" transform="rotate(-90,34.575,231.136052631579)" x="34.575" y="231.136052631579" text-anchor="middle" style="font-family: 'Open Sans', verdana, arial, sans-serif; font-size: 14px; fill: rgb(42, 63, 95); opacity: 1; font-weight: normal; white-space: pre;">Control</text></g><g class="g-y2title"><text class="y2title" transform="rotate(-90,24.200000000000003,418.12368421052633)" x="24.200000000000003" y="418.12368421052633" text-anchor="middle" style="font-family: 'Open Sans', verdana, arial, sans-serif; font-size: 14px; fill: rgb(42, 63, 95); opacity: 1; font-weight: normal; white-space: pre;">Compartments</text></g><g class="g-y3title"><text class="y3title" transform="rotate(-90,23.684375000000003,605.1113157894737)" x="23.684375000000003" y="605.1113157894737" text-anchor="middle" style="font-family: 'Open Sans', verdana, arial, sans-serif; font-size: 14px; fill: rgb(42, 63, 95); opacity: 1; font-weight: normal; white-space: pre;">Comparison</text></g></g></svg>