<svg class="main-svg" xmlns="http://www.w3.org/2000/svg" xmlns:xlink="http://www.w3.org/1999/xlink" width="900" height="800" style="" viewBox="0 0 900 800"><rect x="0" y="0" width="900" height="800" style="fill: rgb(255, 255, 255); fill-opacity: 1;"/><defs id="defs-1b4184"><g class="clips"><clipPath id="clip1b4184xyplot" class="plotclip"><rect width="732.6" height="83.77736842105266"/></clipPath><clipPath id="clip1b4184x2y2plot" class="plotclip"><rect width="732.6" height="279.257894736842"/></clipPath><clipPath id="clip1b4184x3y3plot" class="plotclip"><rect width="732.6" height="83.77736842105263"/></clipPath><clipPath class="axesclip" id="clip1b4184x"><rect x="80" y="0" width="732.6" height="800"/></clipPath><clipPath class="axesclip" id="clip1b4184y"><rect x="0" y="189.24736842105267" width="900" height="83.77736842105266"/></clipPath><clipPath class="axesclip" id="clip1b4184xy"><rect x="80" y="189.24736842105267" width="732.6" height="83.77736842105266"/></clipPath><clipPath class="axesclip" id="clip1b4184y2"><rect x="0" y="278.49473684210534" width="900" height="279.257894736842"/></clipPath><clipPath class="axesclip" id="clip1b4184xy2"><rect x="80" y="278.49473684210534" width="732.6" height="279.257894736842"/></clipPath><clipPath class="axesclip" id="clip1b4184y3"><rect x="0" y="563.2226315789474" width="900" height="83.77736842105263"/></clipPath><clipPath class="axesclip" id="clip1b4184xy3"><rect x="80" y="563.2226315789474" width="732.6" height="83.77736842105263"/></clipPath><clipPath class="axesclip" id="clip1b4184x2"><rect x="80" y="0" width="732.6" height="800"/></clipPath><clipPath class="axesclip" id="clip1b4184x2y"><rect x="80" y="189.24736842105267" width="732.6" height="83.77736842105266"/></clipPath><clipPath class="axesclip" id="clip1b4184x2y2"><rect x="80" y="278.49473684210534" width="732.6" height="279.257894736842"/></clipPath><clipPath class="axesclip" id="clip1b4184x2y3"><rect x="80" y="563.2226315789474" width="732.6" height="83.77736842105263"/></clipPath><clipPath class="axesclip" id="clip1b4184x3"><rect x="80" y="0" width="732.6" height="800"/></clipPath><clipPath class="axesclip" id="clip1b4184x3y"><rect x="80" y="189.24736842105267" width="732.6" height="83.77736842105266"/></clipPath><clipPath class="axesclip" id="clip1b4184x3y2"><rect x="80" y="278.49473684210534" width="732.6" height="279.257894736842"/></clipPath><clipPath class="axesclip" id="clip1b4184x3y3"><rect x="80" y="563.2226315789474" width="732.6" height="83.77736842105263"/></clipPath></g><g class="gradients"/></defs><g class="bglayer"><rect class="bg" x="80" y="189.24736842105267" width="732.6" height="83.77736842105266" style="fill: rgb(229, 236, 246); fill-opacity: 1; stroke-width: 0;"/><rect class="bg" x="80" y="278.49473684210534" width="732.6" height="279.257894736842" style="fill: rgb(229, 236, 246); fill-opacity: 1; stroke-width: 0;"/><rect class="bg" x="80" y="563.2226315789474" width="732.6" height="83.77736842105263" style="fill: rgb(229, 236, 246); fill-opacity: 1; stroke-width: 0;"/></g><g class="layer-below"><g class="imagelayer"/><g class="shapelayer"/></g><g class="cartesianlayer"><g class="subplot xy"><g class="layer-subplot"><g class="shapelayer"/><g class="imagelayer"/></g><g class="gridlayer"><g class="x"><path class="xgrid crisp" transform="translate(171.32,0)" d="M0,189.24736842105267v83.77736842105266" style="stroke: rgb(255, 255, 255); stroke-opacity: 1; stroke-width: 1px;"/><path class="xgrid crisp" transform="translate(262.65,0)" d="M0,189.24736842105267v83.77736842105266" style="stroke: rgb(255, 255, 255); stroke-opacity: 1; stroke-width: 1px;"/><path class="xgrid crisp" transform="translate(354.98,0)" d="M0,189.24736842105267v83.77736842105266" style="stroke: rgb(255, 255, 255); stroke-opacity: 1; stroke-width: 1px;"/><path class="xgrid crisp" transform="translate(447.3,0)" d="M0,189.24736842105267v83.77736842105266" style="stroke: rgb(255, 255, 255); stroke-opacity: 1; stroke-width: 1px;"/><path class="xgrid crisp" transform="translate(537.62,0)" d="M0,189.24736842105267v83.77736842105266" style="stroke: rgb(255, 255, 255); stroke-opacity: 1; stroke-width: 1px;"/><path class="xgrid crisp" transform="translate(628.95,0)" d="M0,189.24736842105267v83.77736842105266" style="stroke: rgb(255, 255, 255); stroke-opacity: 1; stroke-width: 1px;"/><path class="xgrid crisp" transform="translate(721.28,0)" d="M0,189.24736842105267v83.77736842105266" style="stroke: rgb(255, 255, 255); stroke-opacity: 1; stroke-width: 1px;"/></g><g class="y"/></g><g class="zerolinelayer"><path class="yzl zl crisp" transform="translate(0,254.17736842105268)" d="M80,0h732.6" style="stroke: rgb(255, 255, 255); stroke-opacity: 1; stroke-width: 2px;"/></g><path class="xlines-below"/><path class="ylines-below"/><g class="overlines-below"/><g class="xaxislayer-below"/><g class="yaxislayer-below"/><g class="overaxes-below"/><g class="plot" transform="translate(80, 189.24736842105267)" clip-path="url('#clip1b4184xyplot')"><g class="scatterlayer mlayer"><g class="trace scatter trace7918cf" style="stroke-miterlimit: 2; opacity: 1;"><g class="fills"/><g class="errorbars"/><g class="lines"><path class="js-line" d="M0,41.89L732.6,41.89" style="vector-effect: non-scaling-stroke; fill: none; stroke: rgb(145, 13, 0); stroke-opacity: 1; stroke-width: 1.5px; opacity: 1;"/></g><g class="points"/><g class="text"/></g></g></g><g class="overplot"/><path class="xlines-above crisp" d="M0,0" style="fill: none;"/><path class="ylines-above crisp" d="M0,0" style="fill: none;"/><g class="overlines-above"/><g class="xaxislayer-above"/><g class="yaxislayer-above"><g class="ytick"><text text-anchor="end" x="79" y="4.199999999999999" transform="translate(0,254.17736842105268)" style="font-family: 'Open Sans', verdana, arial, sans-serif; font-size: 12px; fill: rgb(42, 63, 95); fill-opacity: 1; white-space: pre;">0</text></g><g class="ytick"><text text-anchor="end" x="79" y="4.199999999999999" transform="translate(0,212.28736842105266)" style="font-family: 'Open Sans', verdana, arial, sans-serif; font-size: 12px; fill: rgb(42, 63, 95); fill-opacity: 1; white-space: pre;">1</text></g></g><g class="overaxes-above"/></g><g class="subplot x2y2"><g class="layer-subplot"><g class="shapelayer"/><g class="imagelayer"/></g><g class="gridlayer"><g class="x2"><path class="x2grid crisp" transform="translate(171.32,0)" d="M0,278.49473684210534v279.257894736842" style="stroke: rgb(255, 255, 255); stroke-opacity: 1; stroke-width: 1px;"/><path class="x2grid crisp" transform="translate(262.65,0)" d="M0,278.49473684210534v279.257894736842" style="stroke: rgb(255, 255, 255); stroke-opacity: 1; stroke-width: 1px;"/><path class="x2grid crisp" transform="translate(354.98,0)" d="M0,278.49473684210534v279.257894736842" style="stroke: rgb(255, 255, 255); stroke-opacity: 1; stroke-width: 1px;"/><path class="x2grid crisp" transform="translate(447.3,0)" d="M0,278.49473684210534v279.257894736842" style="stroke: rgb(255, 255, 255); stroke-opacity: 1; stroke-width: 1px;"/><path class="x2grid crisp" transform="translate(537.62,0)" d="M0,278.49473684210534v279.257894736842" style="stroke: rgb(255, 255, 255); stroke-opacity: 1; stroke-width: 1px;"/><path class="x2grid crisp" transform="translate(628.95,0)" d="M0,278.49473684210534v279.257894736842" style="stroke: rgb(255, 255, 255); stroke-opacity: 1; stroke-width: 1px;"/><path class="x2grid crisp" transform="translate(721.28,0)" d="M0,278.49473684210534v279.257894736842" style="stroke: rgb(255, 255, 255); stroke-opacity: 1; stroke-width: 1px;"/></g><g class="y2"/></g><g class="zerolinelayer"><path class="y2zl zl crisp" transform="translate(0,543.7847368421053)" d="M80,0h732.6" style="stroke: rgb(255, 255, 255); stroke-opacity: 1; stroke-width: 2px;"/></g><path class="xlines-below"/><path class="ylines-below"/><g class="overlines-below"/><g class="xaxislayer-below"/><g class="yaxislayer-below"/><g class="overaxes-below"/><g class="plot" transform="translate(80, 278.49473684210534)" clip-path="url('#clip1b4184x2y2plot')"><g class="scatterlayer mlayer"><g class="trace scatter tracecc9294" style="stroke-miterlimit: 2; opacity: 0.8;"><g class="fills"/><g class="errorbars"/><g class="lines"><path class="js-line" d="M0,265.29L137.49,264.54L138.49,264.51L164.58,263.04L165.59,262.95L183.65,260.43L184.66,260.23L197.7,256.75L198.71,256.4L208.74,252.04L209.74,251.51L218.78,245.65L219.78,244.87L227.81,237.48L228.81,236.39L235.84,227.65L236.84,226.22L243.87,214.8L244.87,212.95L252.9,196.02L253.9,193.62L261.93,172.19L262.93,169.22L271.97,140.1L272.97,136.63L295.05,61.01L296.05,58.21L302.07,44.11L303.08,42.27L307.09,36.55L308.09,35.55L311.1,33.67L312.11,33.41L315.12,33.76L316.12,34.25L319.13,36.81L320.14,38.02L324.15,44.53L325.15,46.55L330.17,58.68L331.18,61.46L339.2,86.83L340.21,90.27L362.29,165.13L363.29,168.1L372.32,192.21L373.32,194.59L381.35,211.43L382.36,213.28L389.38,224.74L390.39,226.18L398.41,236.13L399.42,237.2L407.45,244.49L408.45,245.27L417.48,251.09L418.49,251.63L428.52,256.02L429.52,256.37L441.57,259.71L442.57,259.93L458.63,262.43L459.63,262.54L479.7,264.05L480.71,264.1L522.86,265.07L523.86,265.08L619.2,265.29L620.2,265.29L732.6,265.29" style="vector-effect: non-scaling-stroke; fill: none; stroke: rgb(8, 109, 113); stroke-opacity: 1; stroke-width: 1.5px; opacity: 1;"/></g><g class="points"/><g class="text"/></g><g class="trace scatter trace18608f" style="stroke-miterlimit: 2; opacity: 0.8;"><g class="fills"/><g class="errorbars"/><g class="lines"><path class="js-line" d="M0,265.29L177.63,264.55L178.63,264.52L209.74,262.59L210.75,262.48L228.81,259.58L229.82,259.35L241.86,255.92L242.86,255.57L253.9,250.82L254.9,250.3L264.94,244.3L265.94,243.61L276.98,235.13L277.99,234.28L304.08,212.67L305.08,212.05L312.11,208.68L313.11,208.36L319.13,207.29L320.14,207.27L326.16,208.04L327.16,208.32L334.19,211.35L335.19,211.93L343.22,217.46L344.22,218.24L362.29,233.5L363.29,234.32L375.33,243.36L376.34,244.02L387.37,250.41L388.38,250.9L399.42,255.49L400.42,255.84L413.47,259.43L414.47,259.64L429.52,262.1L430.53,262.22L453.61,264.04L454.61,264.08L487.73,264.97L488.73,264.98L594.11,265.29L595.11,265.29L732.6,265.29" style="vector-effect: non-scaling-stroke; fill: none; stroke: rgb(204, 57, 123); stroke-opacity: 1; stroke-width: 1.5px; opacity: 1;"/></g><g class="points"/><g class="text"/></g><g class="trace scatter trace29da47" style="stroke-miterlimit: 2; opacity: 0.8;"><g class="fills"/><g class="errorbars"/><g class="lines"><path class="js-line" d="M0,265.29L176.63,264.55L177.63,264.51L204.73,262.96L205.73,262.86L222.79,260.47L223.79,260.28L236.84,256.89L237.84,256.55L247.88,252.39L248.88,251.88L257.92,246.41L258.92,245.69L267.95,238L268.95,237L276.98,227.82L277.99,226.52L286.02,214.76L287.02,213.12L296.05,196.67L297.05,194.66L307.09,172.84L308.09,170.51L325.15,129L326.16,126.55L340.21,94.16L341.21,92.03L351.25,72.65L352.25,70.91L361.28,56.89L362.29,55.51L370.31,45.74L371.32,44.67L380.35,36.34L381.35,35.55L390.39,29.51L391.39,28.95L401.42,24.27L402.43,23.88L413.47,20.48L414.47,20.23L428.52,17.6L429.52,17.46L450.6,15.5L451.6,15.44L480.71,14.43L481.71,14.41L595.11,13.97L596.12,13.97L732.6,13.96" style="vector-effect: non-scaling-stroke; fill: none; stroke: rgb(56, 9, 21); stroke-opacity: 1; stroke-width: 1.5px; opacity: 1;"/></g><g class="points"/><g class="text"/></g><g class="trace scatter trace933a21" style="stroke-miterlimit: 2; opacity: 1;"><g class="fills"/><g class="errorbars"/><g class="lines"><path class="js-line" d="M0,206.13L732.6,206.13" style="vector-effect: non-scaling-stroke; fill: none; stroke: rgb(204, 57, 123); stroke-opacity: 1; stroke-width: 1.5px; opacity: 1; stroke-dasharray: 3px, 3px;"/></g><g class="points"/><g class="text"/></g></g></g><g class="overplot"/><path class="xlines-above crisp" d="M0,0" style="fill: none;"/><path class="ylines-above crisp" d="M0,0" style="fill: none;"/><g class="overlines-above"/><g class="xaxislayer-above"/><g class="yaxislayer-above"><g class="y2tick"><text text-anchor="end" x="79" y="4.199999999999999" transform="translate(0,543.7847368421053)" style="font-family: 'Open Sans', verdana, arial, sans-serif; font-size: 12px; fill: rgb(42, 63, 95); fill-opacity: 1; white-space: pre;">0</text></g><g class="y2tick"><text text-anchor="end" x="79" y="4.199999999999999" transform="translate(0,425.46473684210537)" style="font-family: 'Open Sans', verdana, arial, sans-serif; font-size: 12px; fill: rgb(42, 63, 95); fill-opacity: 1; white-space: pre;">20k</text></g><g class="y2tick"><text text-anchor="end" x="79" y="4.199999999999999" transform="translate(0,307.1347368421053)" style="font-family: 'Open Sans', verdana, arial, sans-serif; font-size: 12px; fill: rgb(42, 63, 95); fill-opacity: 1; white-space: pre;">40k</text></g></g><g class="overaxes-above"/></g><g class="subplot x3y3"><g class="layer-subplot"><g class="shapelayer"/><g class="imagelayer"/></g><g class="gridlayer"><g class="x3"><path class="x3grid crisp" transform="translate(171.32,0)" d="M0,563.2226315789474v83.77736842105263" style="stroke: rgb(255, 255, 255); stroke-opacity: 1; stroke-width: 1px;"/><path class="x3grid crisp" transform="translate(262.65,0)" d="M0,563.2226315789474v83.77736842105263" style="stroke: rgb(255, 255, 255); stroke-opacity: 1; stroke-width: 1px;"/><path class="x3grid crisp" transform="translate(354.98,0)" d="M0,563.2226315789474v83.77736842105263" style="stroke: rgb(255, 255, 255); stroke-opacity: 1; stroke-width: 1px;"/><path class="x3grid crisp" transform="translate(447.3,0)" d="M0,563.2226315789474v83.77736842105263" style="stroke: rgb(255, 255, 255); stroke-opacity: 1; stroke-width: 1px;"/><path class="x3grid crisp" transform="translate(537.62,0)" d="M0,563.2226315789474v83.77736842105263" style="stroke: rgb(255, 255, 255); stroke-opacity: 1; stroke-width: 1px;"/><path class="x3grid crisp" transform="translate(628.95,0)" d="M0,563.2226315789474v83.77736842105263" style="stroke: rgb(255, 255, 255); stroke-opacity: 1; stroke-width: 1px;"/><path class="x3grid crisp" transform="translate(721.28,0)" d="M0,563.2226315789474v83.77736842105263" style="stroke: rgb(255, 255, 255); stroke-opacity: 1; stroke-width: 1px;"/></g><g class="y3"/></g><g class="zerolinelayer"><path class="y3zl zl crisp" transform="translate(0,642.8126315789474)" d="M80,0h732.6" style="stroke: rgb(255, 255, 255); stroke-opacity: 1; stroke-width: 2px;"/></g><path class="xlines-below"/><path class="ylines-below"/><g class="overlines-below"/><g class="xaxislayer-below"/><g class="yaxislayer-below"/><g class="overaxes-below"/><g class="plot" transform="translate(80, 563.2226315789474)" clip-path="url('#clip1b4184x3y3plot')"><g class="scatterlayer mlayer"><g class="trace scatter trace8e8ff0" style="stroke-miterlimit: 2; opacity: 0.3;"><g class="fills"/><g class="errorbars"/><g class="lines"><path class="js-line" d="M1,79.59L160.57,78.84L161.57,78.81L188.67,77.26L189.67,77.17L207.74,74.63L208.74,74.43L221.79,71.03L222.79,70.69L232.83,66.61L233.83,66.12L243.87,60.26L244.87,59.57L254.9,51.54L255.91,50.62L265.94,40.4L266.95,39.29L292.04,11.61L293.04,10.76L299.06,6.64L300.06,6.14L305.08,4.47L306.09,4.31L311.1,4.47L312.11,4.68L317.13,6.63L318.13,7.19L324.15,11.55L325.15,12.42L333.18,20.53L334.19,21.64L359.28,49.11L360.28,50.04L370.31,58.24L371.32,58.95L381.35,65.03L382.36,65.54L392.39,69.84L393.4,70.2L405.44,73.61L406.44,73.84L422.5,76.49L423.5,76.6L442.57,78.17L443.57,78.22L471.67,79.14L472.68,79.15L528.88,79.54L529.88,79.54L732.6,79.59" style="vector-effect: non-scaling-stroke; fill: none; stroke: rgb(8, 109, 113); stroke-opacity: 1; stroke-width: 1.5px; opacity: 1;"/></g><g class="points"/><g class="text"/></g><g class="trace scatter tracee81450" style="stroke-miterlimit: 2; opacity: 0.6;"><g class="fills"/><g class="errorbars"/><g class="lines"/><g class="points"/><g class="text"/></g></g></g><g class="overplot"/><path class="xlines-above crisp" d="M0,0" style="fill: none;"/><path class="ylines-above crisp" d="M0,0" style="fill: none;"/><g class="overlines-above"/><g class="xaxislayer-above"><g class="x3tick"><text text-anchor="middle" x="0" y="660" transform="translate(80,0)" style="font-family: 'Open Sans', verdana, arial, sans-serif; font-size: 12px; fill: rgb(42, 63, 95); fill-opacity: 1; white-space: pre;">Jan 2020</text></g><g class="x3tick"><text text-anchor="middle" x="0" y="660" transform="translate(171.32,0)" style="font-family: 'Open Sans', verdana, arial, sans-serif; font-size: 12px; fill: rgb(42, 63, 95); fill-opacity: 1; white-space: pre;">Apr 2020</text></g><g class="x3tick"><text text-anchor="middle" x="0" y="660" transform="translate(262.65,0)" style="font-family: 'Open Sans', verdana, arial, sans-serif; font-size: 12px; fill: rgb(42, 63, 95); fill-opacity: 1; white-space: pre;">Jul 2020</text></g><g class="x3tick"><text text-anchor="middle" x="0" y="660" transform="translate(354.98,0)" style="font-family: 'Open Sans', verdana, arial, sans-serif; font-size: 12px; fill: rgb(42, 63, 95); fill-opacity: 1; white-space: pre;">Oct 2020</text></g><g class="x3tick"><text text-anchor="middle" x="0" y="660" transform="translate(447.3,0)" style="font-family: 'Open Sans', verdana, arial, sans-serif; font-size: 12px; fill: rgb(42, 63, 95); fill-opacity: 1; white-space: pre;">Jan 2021</text></g><g class="x3tick"><text text-anchor="middle" x="0" y="660" transform="translate(537.62,0)" style="font-family: 'Open Sans', verdana, arial, sans-serif; font-size: 12px; fill: rgb(42, 63, 95); fill-opacity: 1; white-space: pre;">Apr 2021</text></g><g class="x3tick"><text text-anchor="middle" x="0" y="660" transform="translate(628.95,0)" style="font-family: 'Open Sans', verdana, arial, sans-serif; font-size: 12px; fill: rgb(42, 63, 95); fill-opacity: 1; white-space: pre;">Jul 2021</text></g><g class="x3tick"><text text-anchor="middle" x="0" y="660" transform="translate(721.28,0)" style="font-family: 'Open Sans', verdana, arial, sans-serif; font-size: 12px; fill: rgb(42, 63, 95); fill-opacity: 1; white-space: pre;">Oct 2021</text></g></g><g class="yaxislayer-above"><g class="y3tick"><text text-anchor="end" x="79" y="4.199999999999999" transform="translate(0,642.8126315789474)" style="font-family: 'Open Sans', verdana, arial, sans-serif; font-size: 12px; fill: rgb(42, 63, 95); fill-opacity: 1; white-space: pre;">0</text></g><g class="y3tick"><text text-anchor="end" x="79" y="4.199999999999999" transform="translate(0,620.3226315789474)" style="font-family: 'Open Sans', verdana, arial, sans-serif; font-size: 12px; fill: rgb(42, 63, 95); fill-opacity: 1; white-space: pre;">500</text></g><g class="y3tick"><text text-anchor="end" x="79" y="4.199999999999999" transform="translate(0,597.8326315789474)" style="font-family: 'Open Sans', verdana, arial, sans-serif; font-size: 12px; fill: rgb(42, 63, 95); fill-opacity: 1; white-space: pre;">1000</text></g><g class="y3tick"><text text-anchor="end" x="79" y="4.199999999999999" transform="translate(0,575.3526315789474)" style="font-family: 'Open Sans', verdana, arial, sans-serif; font-size: 12px; fill: rgb(42, 63, 95); fill-opacity: 1; white-space: pre;">1500</text></g></g><g class="overaxes-above"/></g></g><g class="polarlayer"/><g class="ternarylayer"/><g class="geolayer"/><g class="funnelarealayer"/><g class="pielayer"/><g class="treemaplayer"/><g class="sunburstlayer"/><g class="glimages"/><g class="table" overflow="visible" width="892" height="336" transform="translate(0,0)" style="box-sizing: content-box; position: absolute; left: 0px; overflow: visible; shape-rendering: crispedges; pointer-events: all;"><g class="table-control-view" transform="translate(80 100)" clip-path="url('#clip1b4184_scrollAreaBottomClip_235047true')" style="box-sizing: content-box;"><rect class="scroll-background" fill="none" width="732" height="83"/><g class="y-column" transform="translate(0 0)" clip-path="url('#clip1b4184_columnBoundaryClippath_235047true_0')"><g class="column-block" id="cells1" transform="translate(0 0)" style="cursor: default;"><g class="column-cells"><g class="column-cell" transform="translate(0 16)"><rect class="cell-rect" width="366" stroke-width="1" style="stroke: rgb(255, 255, 255); stroke-opacity: 1; fill: rgb(255, 255, 255); fill-opacity: 1;" height="20"/><g class="cell-text-holder" transform="translate(358 8)" text-anchor="end" style="shape-rendering: geometricprecision;"><text class="cell-text" dy="0.75em" x="0" y="0" style="cursor: auto; font-family: 'Open Sans', verdana, arial, sans-serif; font-size: 13px; fill: rgb(42, 63, 95); fill-opacity: 1; white-space: pre;">Control Strenght</text></g></g><g class="column-cell" transform="translate(0 36)"><rect class="cell-rect" width="366" stroke-width="1" style="stroke: rgb(255, 255, 255); stroke-opacity: 1; fill: rgb(255, 255, 255); fill-opacity: 1;" height="20"/><g class="cell-text-holder" transform="translate(358 8)" text-anchor="end" style="shape-rendering: geometricprecision;"><text class="cell-text" dy="0.75em" x="0" y="0" style="cursor: auto; font-family: 'Open Sans', verdana, arial, sans-serif; font-size: 13px; fill: rgb(42, 63, 95); fill-opacity: 1; white-space: pre;">Total Infected (% Population)</text></g></g><g class="column-cell" transform="translate(0 56)"><rect class="cell-rect" width="366" stroke-width="1" style="stroke: rgb(255, 255, 255); stroke-opacity: 1; fill: rgb(255, 255, 255); fill-opacity: 1;" height="20"/><g class="cell-text-holder" transform="translate(358 8)" text-anchor="end" style="shape-rendering: geometricprecision;"><text class="cell-text" dy="0.75em" x="0" y="0" style="cursor: auto; font-family: 'Open Sans', verdana, arial, sans-serif; font-size: 13px; fill: rgb(42, 63, 95); fill-opacity: 1; white-space: pre;">Total Deceased (% Infected)</text></g></g></g></g><g class="column-block" id="cells2" transform="translate(0 0)" style="cursor: default;"><g class="column-cells"/></g><g class="column-block" id="header" style="cursor: ew-resize;"><g class="column-cells"><g class="column-cell" transform="translate(0 0)"><rect class="cell-rect" width="366" stroke-width="1" height="16" style="stroke: rgb(255, 255, 255); stroke-opacity: 1; fill: rgb(255, 255, 255); fill-opacity: 1;"/><g class="cell-text-holder" transform="translate(183 8)" text-anchor="middle" style="shape-rendering: geometricprecision;"><text class="cell-text" dy="0.75em" style="cursor: auto; font-family: 'Open Sans', verdana, arial, sans-serif; font-size: 12px; fill: rgb(42, 63, 95); fill-opacity: 1;"/></g></g></g></g><g class="column-boundary"/><clipPath class="column-boundary-clippath" id="clip1b4184_columnBoundaryClippath_235047true_0"><rect class="column-boundary-rect" fill="none" width="368" height="90" x="-1" y="-1"/></clipPath></g><g class="y-column" transform="translate(366 0)" clip-path="url('#clip1b4184_columnBoundaryClippath_235047true_1')"><g class="column-block" id="cells1" transform="translate(0 0)" style="cursor: default;"><g class="column-cells"><g class="column-cell" transform="translate(0 16)"><rect class="cell-rect" width="366" stroke-width="1" style="stroke: rgb(255, 255, 255); stroke-opacity: 1; fill: rgb(255, 255, 255); fill-opacity: 1;" height="20"/><g class="cell-text-holder" transform="translate(8 8)" text-anchor="start" style="shape-rendering: geometricprecision;"><text class="cell-text" dy="0.75em" style="cursor: auto; font-family: 'Open Sans', verdana, arial, sans-serif; font-size: 13px; fill: rgb(42, 63, 95); fill-opacity: 1;">55.0%</text></g></g><g class="column-cell" transform="translate(0 36)"><rect class="cell-rect" width="366" stroke-width="1" style="stroke: rgb(255, 255, 255); stroke-opacity: 1; fill: rgb(255, 255, 255); fill-opacity: 1;" height="20"/><g class="cell-text-holder" transform="translate(8 8)" text-anchor="start" style="shape-rendering: geometricprecision;"><text class="cell-text" dy="0.75em" style="cursor: auto; font-family: 'Open Sans', verdana, arial, sans-serif; font-size: 13px; fill: rgb(42, 63, 95); fill-opacity: 1;">33.19%</text></g></g><g class="column-cell" transform="translate(0 56)"><rect class="cell-rect" width="366" stroke-width="1" style="stroke: rgb(255, 255, 255); stroke-opacity: 1; fill: rgb(255, 255, 255); fill-opacity: 1;" height="20"/><g class="cell-text-holder" transform="translate(8 8)" text-anchor="start" style="shape-rendering: geometricprecision;"><text class="cell-text" dy="0.75em" style="cursor: auto; font-family: 'Open Sans', verdana, arial, sans-serif; font-size: 13px; fill: rgb(42, 63, 95); fill-opacity: 1;">2.56%</text></g></g></g></g><g class="column-block" id="cells2" transform="translate(0 0)" style="cursor: default;"><g class="column-cells"/></g><g class="column-block" id="header" style="cursor: ew-resize;"><g class="column-cells"><g class="column-cell" transform="translate(0 0)"><rect class="cell-rect" width="366" stroke-width="1" height="16" style="stroke: rgb(255, 255, 255); stroke-opacity: 1; fill: rgb(255, 255, 255); fill-opacity: 1;"/><g class="cell-text-holder" transform="translate(183 8)" text-anchor="middle" style="shape-rendering: geometricprecision;"><text class="cell-text" dy="0.75em" style="cursor: auto; font-family: 'Open Sans', verdana, arial, sans-serif; font-size: 12px; fill: rgb(42, 63, 95); fill-opacity: 1;"/></g></g></g></g><g class="column-boundary"/><clipPath class="column-boundary-clippath" id="clip1b4184_columnBoundaryClippath_235047true_1"><rect class="column-boundary-rect" fill="none" width="368" height="90" x="-1" y="-1"/></clipPath></g><clipPath class="scroll-area-clip" id="clip1b4184_scrollAreaBottomClip_235047true"><rect class="scroll-area-clip-rect" x="-45" y="-5" fill="none" width="822" height="88"/></clipPath></g></g><defs id="topdefs-1b4184"><g class="clips"/><clipPath id="legend1b4184"><rect width="523" height="86" x="0" y="0"/></clipPath></defs><g class="layer-above"><g class="imagelayer"/><g class="shapelayer"/></g><g class="infolayer"><g class="legend" pointer-events="all" transform="translate(80, 701.7)"><rect class="bg" shape-rendering="crispEdges" width="523" height="86" x="0" y="0" style="stroke: rgb(68, 68, 68); stroke-opacity: 1; fill: rgb(0, 0, 0); fill-opacity: 0; stroke-width: 0px;"/><g class="scrollbox" transform="translate(0, 0)" clip-path="url('#legend1b4184')"><g class="groups"><g class="traces" transform="translate(0, 14.5)" style="opacity: 1;"><text class="legendtext user-select-none" text-anchor="start" x="40" y="4.680000000000001" style="font-family: 'Open Sans', verdana, arial, sans-serif; font-size: 12px; fill: rgb(42, 63, 95); fill-opacity: 1; white-space: pre;">Control (u)</text><g class="layers" style="opacity: 1;"><g class="legendfill"/><g class="legendlines"><path class="js-line" d="M5,0h30" style="fill: none; stroke: rgb(145, 13, 0); stroke-opacity: 1; stroke-width: 5px;"/></g><g class="legendsymbols"><g class="legendpoints"/></g></g><rect class="legendtoggle" pointer-events="all" x="0" y="-9.5" width="108.90625" height="19" style="cursor: pointer; fill: rgb(0, 0, 0); fill-opacity: 0;"/></g><g class="traces" transform="translate(188.015625, 14.5)" style="opacity: 0.5;"><text class="legendtext user-select-none" text-anchor="start" x="40" y="4.680000000000001" style="font-family: 'Open Sans', verdana, arial, sans-serif; font-size: 12px; fill: rgb(42, 63, 95); fill-opacity: 1; white-space: pre;">Susceptible</text><g class="layers" style="opacity: 1;"><g class="legendfill"/><g class="legendlines"><path class="js-line" d="M5,0h30" style="fill: none; stroke: rgb(114, 159, 207); stroke-opacity: 1; stroke-width: 5px;"/></g><g class="legendsymbols"><g class="legendpoints"/></g></g><rect class="legendtoggle" pointer-events="all" x="0" y="-9.5" width="111.375" height="19" style="cursor: pointer; fill: rgb(0, 0, 0); fill-opacity: 0;"/></g><g class="traces" transform="translate(376.03125, 14.5)" style="opacity: 0.5;"><text class="legendtext user-select-none" text-anchor="start" x="40" y="4.680000000000001" style="font-family: 'Open Sans', verdana, arial, sans-serif; font-size: 12px; fill: rgb(42, 63, 95); fill-opacity: 1; white-space: pre;">Exposed</text><g class="layers" style="opacity: 0.8;"><g class="legendfill"/><g class="legendlines"><path class="js-line" d="M5,0h30" style="fill: none; stroke: rgb(52, 101, 164); stroke-opacity: 1; stroke-width: 5px;"/></g><g class="legendsymbols"><g class="legendpoints"/></g></g><rect class="legendtoggle" pointer-events="all" x="0" y="-9.5" width="92.828125" height="19" style="cursor: pointer; fill: rgb(0, 0, 0); fill-opacity: 0;"/></g><g class="traces" transform="translate(0, 33.5)" style="opacity: 1;"><text class="legendtext user-select-none" text-anchor="start" x="40" y="4.680000000000001" style="font-family: 'Open Sans', verdana, arial, sans-serif; font-size: 12px; fill: rgb(42, 63, 95); fill-opacity: 1; white-space: pre;">Infected</text><g class="layers" style="opacity: 0.8;"><g class="legendfill"/><g class="legendlines"><path class="js-line" d="M5,0h30" style="fill: none; stroke: rgb(8, 109, 113); stroke-opacity: 1; stroke-width: 5px;"/></g><g class="legendsymbols"><g class="legendpoints"/></g></g><rect class="legendtoggle" pointer-events="all" x="0" y="-9.5" width="92.125" height="19" style="cursor: pointer; fill: rgb(0, 0, 0); fill-opacity: 0;"/></g><g class="traces" transform="translate(188.015625, 33.5)" style="opacity: 1;"><text class="legendtext user-select-none" text-anchor="start" x="40" y="4.680000000000001" style="font-family: 'Open Sans', verdana, arial, sans-serif; font-size: 12px; fill: rgb(42, 63, 95); fill-opacity: 1; white-space: pre;">Hospitalized</text><g class="layers" style="opacity: 0.8;"><g class="legendfill"/><g class="legendlines"><path class="js-line" d="M5,0h30" style="fill: none; stroke: rgb(204, 57, 123); stroke-opacity: 1; stroke-width: 5px;"/></g><g class="legendsymbols"><g class="legendpoints"/></g></g><rect class="legendtoggle" pointer-events="all" x="0" y="-9.5" width="115.28125" height="19" style="cursor: pointer; fill: rgb(0, 0, 0); fill-opacity: 0;"/></g><g class="traces" transform="translate(376.03125, 33.5)" style="opacity: 0.5;"><text class="legendtext user-select-none" text-anchor="start" x="40" y="4.680000000000001" style="font-family: 'Open Sans', verdana, arial, sans-serif; font-size: 12px; fill: rgb(42, 63, 95); fill-opacity: 1; white-space: pre;">Recovered</text><g class="layers" style="opacity: 1;"><g class="legendfill"/><g class="legendlines"><path class="js-line" d="M5,0h30" style="fill: none; stroke: rgb(156, 164, 196); stroke-opacity: 1; stroke-width: 5px;"/></g><g class="legendsymbols"><g class="legendpoints"/></g></g><rect class="legendtoggle" pointer-events="all" x="0" y="-9.5" width="105.53125" height="19" style="cursor: pointer; fill: rgb(0, 0, 0); fill-opacity: 0;"/></g><g class="traces" transform="translate(0, 52.5)" style="opacity: 1;"><text class="legendtext user-select-none" text-anchor="start" x="40" y="4.680000000000001" style="font-family: 'Open Sans', verdana, arial, sans-serif; font-size: 12px; fill: rgb(42, 63, 95); fill-opacity: 1; white-space: pre;">Deceased</text><g class="layers" style="opacity: 0.8;"><g class="legendfill"/><g class="legendlines"><path class="js-line" d="M5,0h30" style="fill: none; stroke: rgb(56, 9, 21); stroke-opacity: 1; stroke-width: 5px;"/></g><g class="legendsymbols"><g class="legendpoints"/></g></g><rect class="legendtoggle" pointer-events="all" x="0" y="-9.5" width="100.390625" height="19" style="cursor: pointer; fill: rgb(0, 0, 0); fill-opacity: 0;"/></g><g class="traces" transform="translate(188.015625, 52.5)" style="opacity: 1;"><text class="legendtext user-select-none" text-anchor="start" x="40" y="4.680000000000001" style="font-family: 'Open Sans', verdana, arial, sans-serif; font-size: 12px; fill: rgb(42, 63, 95); fill-opacity: 1; white-space: pre;">Healthcare capacity (Q)</text><g class="layers" style="opacity: 1;"><g class="legendfill"/><g class="legendlines"><path class="js-line" d="M5,0h30" style="fill: none; stroke: rgb(204, 57, 123); stroke-opacity: 1; stroke-dasharray: 5px, 5px; stroke-width: 5px;"/></g><g class="legendsymbols"><g class="legendpoints"/></g></g><rect class="legendtoggle" pointer-events="all" x="0" y="-9.5" width="185.515625" height="19" style="cursor: pointer; fill: rgb(0, 0, 0); fill-opacity: 0;"/></g><g class="traces" transform="translate(376.03125, 52.5)" style="opacity: 1;"><text class="legendtext user-select-none" text-anchor="start" x="40" y="4.680000000000001" style="font-family: 'Open Sans', verdana, arial, sans-serif; font-size: 12px; fill: rgb(42, 63, 95); fill-opacity: 1; white-space: pre;">Infected (model)</text><g class="layers" style="opacity: 0.3;"><g class="legendfill"/><g class="legendlines"><path class="js-line" d="M5,0h30" style="fill: none; stroke: rgb(8, 109, 113); stroke-opacity: 1; stroke-width: 5px;"/></g><g class="legendsymbols"><g class="legendpoints"/></g></g><rect class="legendtoggle" pointer-events="all" x="0" y="-9.5" width="144.109375" height="19" style="cursor: pointer; fill: rgb(0, 0, 0); fill-opacity: 0;"/></g><g class="traces" transform="translate(0, 71.5)" style="opacity: 1;"><text class="legendtext user-select-none" text-anchor="start" x="40" y="4.680000000000001" style="font-family: 'Open Sans', verdana, arial, sans-serif; font-size: 12px; fill: rgb(42, 63, 95); fill-opacity: 1; white-space: pre;">Infected (real)</text><g class="layers" style="opacity: 0.6;"><g class="legendfill"/><g class="legendlines"><path class="js-line" d="M5,0h30" style="fill: none; stroke: rgb(8, 109, 113); stroke-opacity: 1; stroke-width: 5px;"/></g><g class="legendsymbols"><g class="legendpoints"/></g></g><rect class="legendtoggle" pointer-events="all" x="0" y="-9.5" width="130.015625" height="19" style="cursor: pointer; fill: rgb(0, 0, 0); fill-opacity: 0;"/></g></g></g><rect class="scrollbar" rx="20" ry="3" width="0" height="0" x="0" y="0" style="fill: rgb(128, 139, 164); fill-opacity: 1;"/></g><g class="g-gtitle"><text class="gtitle" x="405" y="80" text-anchor="middle" dy="0.7em" style="font-family: 'Open Sans', verdana, arial, sans-serif; font-size: 17px; fill: rgb(42, 63, 95); opacity: 1; font-weight: normal; white-space: pre;">Constant control</text></g><g class="g-xtitle"/><g class="g-x2title"/><g class="g-x3title"/><g class="g-ytitle"><text class="ytitle" transform="rotate(-90,46.559375,231.136052631579)" x="46.559375" y="231.136052631579" text-anchor="middle" style="font-family: 'Open Sans', verdana, arial, sans-serif; font-size: 14px; fill: rgb(42, 63, 95); opacity: 1; font-weight: normal; white-space: pre;">Control</text></g><g class="g-y2title"><text class="y2title" transform="rotate(-90,31.840625000000003,418.12368421052633)" x="31.840625000000003" y="418.12368421052633" text-anchor="middle" style="font-family: 'Open Sans', verdana, arial, sans-serif; font-size: 14px; fill: rgb(42, 63, 95); opacity: 1; font-weight: normal; white-space: pre;">Compartments</text></g><g class="g-y3title"><text class="y3title" transform="rotate(-90,23.684375000000003,605.1113157894737)" x="23.684375000000003" y="605.1113157894737" text-anchor="middle" style="font-family: 'Open Sans', verdana, arial, sans-serif; font-size: 14px; fill: rgb(42, 63, 95); opacity: 1; font-weight: normal; white-space: pre;">Comparison</text></g></g></svg>