<svg class="main-svg" xmlns="http://www.w3.org/2000/svg" xmlns:xlink="http://www.w3.org/1999/xlink" width="900" height="800" style="" viewBox="0 0 900 800"><rect x="0" y="0" width="900" height="800" style="fill: rgb(255, 255, 255); fill-opacity: 1;"/><defs id="defs-3c950b"><g class="clips"><clipPath id="clip3c950bxyplot" class="plotclip"><rect width="732.6" height="83.77736842105266"/></clipPath><clipPath id="clip3c950bx2y2plot" class="plotclip"><rect width="732.6" height="279.257894736842"/></clipPath><clipPath id="clip3c950bx3y3plot" class="plotclip"><rect width="732.6" height="83.77736842105263"/></clipPath><clipPath class="axesclip" id="clip3c950bx"><rect x="80" y="0" width="732.6" height="800"/></clipPath><clipPath class="axesclip" id="clip3c950by"><rect x="0" y="189.24736842105267" width="900" height="83.77736842105266"/></clipPath><clipPath class="axesclip" id="clip3c950bxy"><rect x="80" y="189.24736842105267" width="732.6" height="83.77736842105266"/></clipPath><clipPath class="axesclip" id="clip3c950by2"><rect x="0" y="278.49473684210534" width="900" height="279.257894736842"/></clipPath><clipPath class="axesclip" id="clip3c950bxy2"><rect x="80" y="278.49473684210534" width="732.6" height="279.257894736842"/></clipPath><clipPath class="axesclip" id="clip3c950by3"><rect x="0" y="563.2226315789474" width="900" height="83.77736842105263"/></clipPath><clipPath class="axesclip" id="clip3c950bxy3"><rect x="80" y="563.2226315789474" width="732.6" height="83.77736842105263"/></clipPath><clipPath class="axesclip" id="clip3c950bx2"><rect x="80" y="0" width="732.6" height="800"/></clipPath><clipPath class="axesclip" id="clip3c950bx2y"><rect x="80" y="189.24736842105267" width="732.6" height="83.77736842105266"/></clipPath><clipPath class="axesclip" id="clip3c950bx2y2"><rect x="80" y="278.49473684210534" width="732.6" height="279.257894736842"/></clipPath><clipPath class="axesclip" id="clip3c950bx2y3"><rect x="80" y="563.2226315789474" width="732.6" height="83.77736842105263"/></clipPath><clipPath class="axesclip" id="clip3c950bx3"><rect x="80" y="0" width="732.6" height="800"/></clipPath><clipPath class="axesclip" id="clip3c950bx3y"><rect x="80" y="189.24736842105267" width="732.6" height="83.77736842105266"/></clipPath><clipPath class="axesclip" id="clip3c950bx3y2"><rect x="80" y="278.49473684210534" width="732.6" height="279.257894736842"/></clipPath><clipPath class="axesclip" id="clip3c950bx3y3"><rect x="80" y="563.2226315789474" width="732.6" height="83.77736842105263"/></clipPath></g><g class="gradients"/></defs><g class="bglayer"><rect class="bg" x="80" y="189.24736842105267" width="732.6" height="83.77736842105266" style="fill: rgb(229, 236, 246); fill-opacity: 1; stroke-width: 0;"/><rect class="bg" x="80" y="278.49473684210534" width="732.6" height="279.257894736842" style="fill: rgb(229, 236, 246); fill-opacity: 1; stroke-width: 0;"/><rect class="bg" x="80" y="563.2226315789474" width="732.6" height="83.77736842105263" style="fill: rgb(229, 236, 246); fill-opacity: 1; stroke-width: 0;"/></g><g class="layer-below"><g class="imagelayer"/><g class="shapelayer"/></g><g class="cartesianlayer"><g class="subplot xy"><g class="layer-subplot"><g class="shapelayer"/><g class="imagelayer"/></g><g class="gridlayer"><g class="x"><path class="xgrid crisp" transform="translate(171.32,0)" d="M0,189.24736842105267v83.77736842105266" style="stroke: rgb(255, 255, 255); stroke-opacity: 1; stroke-width: 1px;"/><path class="xgrid crisp" transform="translate(262.65,0)" d="M0,189.24736842105267v83.77736842105266" style="stroke: rgb(255, 255, 255); stroke-opacity: 1; stroke-width: 1px;"/><path class="xgrid crisp" transform="translate(354.98,0)" d="M0,189.24736842105267v83.77736842105266" style="stroke: rgb(255, 255, 255); stroke-opacity: 1; stroke-width: 1px;"/><path class="xgrid crisp" transform="translate(447.3,0)" d="M0,189.24736842105267v83.77736842105266" style="stroke: rgb(255, 255, 255); stroke-opacity: 1; stroke-width: 1px;"/><path class="xgrid crisp" transform="translate(537.62,0)" d="M0,189.24736842105267v83.77736842105266" style="stroke: rgb(255, 255, 255); stroke-opacity: 1; stroke-width: 1px;"/><path class="xgrid crisp" transform="translate(628.95,0)" d="M0,189.24736842105267v83.77736842105266" style="stroke: rgb(255, 255, 255); stroke-opacity: 1; stroke-width: 1px;"/><path class="xgrid crisp" transform="translate(721.28,0)" d="M0,189.24736842105267v83.77736842105266" style="stroke: rgb(255, 255, 255); stroke-opacity: 1; stroke-width: 1px;"/></g><g class="y"/></g><g class="zerolinelayer"><path class="yzl zl crisp" transform="translate(0,268.8373684210527)" d="M80,0h732.6" style="stroke: rgb(255, 255, 255); stroke-opacity: 1; stroke-width: 2px;"/></g><path class="xlines-below"/><path class="ylines-below"/><g class="overlines-below"/><g class="xaxislayer-below"/><g class="yaxislayer-below"/><g class="overaxes-below"/><g class="plot" transform="translate(80, 189.24736842105267)" clip-path="url('#clip3c950bxyplot')"><g class="scatterlayer mlayer"><g class="trace scatter traceb0ffbf" style="stroke-miterlimit: 2; opacity: 1;"><g class="fills"/><g class="errorbars"/><g class="lines"><path class="js-line" d="M0,79.59L42.15,79.59L43.15,4.19L85.3,4.19L86.31,13.74L128.46,13.74L129.46,26.62L171.61,26.62L172.61,46.64L214.76,46.64L215.77,79.59L732.6,79.59" style="vector-effect: non-scaling-stroke; fill: none; stroke: rgb(145, 13, 0); stroke-opacity: 1; stroke-width: 1.5px; opacity: 1;"/></g><g class="points"/><g class="text"/></g></g></g><g class="overplot"/><path class="xlines-above crisp" d="M0,0" style="fill: none;"/><path class="ylines-above crisp" d="M0,0" style="fill: none;"/><g class="overlines-above"/><g class="xaxislayer-above"/><g class="yaxislayer-above"><g class="ytick"><text text-anchor="end" x="79" y="4.199999999999999" transform="translate(0,268.8373684210527)" style="font-family: 'Open Sans', verdana, arial, sans-serif; font-size: 12px; fill: rgb(42, 63, 95); fill-opacity: 1; white-space: pre;">0</text></g><g class="ytick"><text text-anchor="end" x="79" y="4.199999999999999" transform="translate(0,243.43736842105267)" style="font-family: 'Open Sans', verdana, arial, sans-serif; font-size: 12px; fill: rgb(42, 63, 95); fill-opacity: 1; white-space: pre;">0.2</text></g><g class="ytick"><text text-anchor="end" x="79" y="4.199999999999999" transform="translate(0,218.03736842105266)" style="font-family: 'Open Sans', verdana, arial, sans-serif; font-size: 12px; fill: rgb(42, 63, 95); fill-opacity: 1; white-space: pre;">0.4</text></g><g class="ytick"><text text-anchor="end" x="79" y="4.199999999999999" transform="translate(0,192.64736842105268)" style="font-family: 'Open Sans', verdana, arial, sans-serif; font-size: 12px; fill: rgb(42, 63, 95); fill-opacity: 1; white-space: pre;">0.6</text></g></g><g class="overaxes-above"/></g><g class="subplot x2y2"><g class="layer-subplot"><g class="shapelayer"/><g class="imagelayer"/></g><g class="gridlayer"><g class="x2"><path class="x2grid crisp" transform="translate(171.32,0)" d="M0,278.49473684210534v279.257894736842" style="stroke: rgb(255, 255, 255); stroke-opacity: 1; stroke-width: 1px;"/><path class="x2grid crisp" transform="translate(262.65,0)" d="M0,278.49473684210534v279.257894736842" style="stroke: rgb(255, 255, 255); stroke-opacity: 1; stroke-width: 1px;"/><path class="x2grid crisp" transform="translate(354.98,0)" d="M0,278.49473684210534v279.257894736842" style="stroke: rgb(255, 255, 255); stroke-opacity: 1; stroke-width: 1px;"/><path class="x2grid crisp" transform="translate(447.3,0)" d="M0,278.49473684210534v279.257894736842" style="stroke: rgb(255, 255, 255); stroke-opacity: 1; stroke-width: 1px;"/><path class="x2grid crisp" transform="translate(537.62,0)" d="M0,278.49473684210534v279.257894736842" style="stroke: rgb(255, 255, 255); stroke-opacity: 1; stroke-width: 1px;"/><path class="x2grid crisp" transform="translate(628.95,0)" d="M0,278.49473684210534v279.257894736842" style="stroke: rgb(255, 255, 255); stroke-opacity: 1; stroke-width: 1px;"/><path class="x2grid crisp" transform="translate(721.28,0)" d="M0,278.49473684210534v279.257894736842" style="stroke: rgb(255, 255, 255); stroke-opacity: 1; stroke-width: 1px;"/></g><g class="y2"/></g><g class="zerolinelayer"><path class="y2zl zl crisp" transform="translate(0,543.7847368421053)" d="M80,0h732.6" style="stroke: rgb(255, 255, 255); stroke-opacity: 1; stroke-width: 2px;"/></g><path class="xlines-below"/><path class="ylines-below"/><g class="overlines-below"/><g class="xaxislayer-below"/><g class="yaxislayer-below"/><g class="overaxes-below"/><g class="plot" transform="translate(80, 278.49473684210534)" clip-path="url('#clip3c950bx2y2plot')"><g class="scatterlayer mlayer"><g class="trace scatter trace9764a0" style="stroke-miterlimit: 2; opacity: 0.8;"><g class="fills"/><g class="errorbars"/><g class="lines"><path class="js-line" d="M0,265.29L25.09,264.55L26.09,264.34L30.11,262.65L31.11,261.88L34.12,257.99L35.12,255.88L37.13,249.67L38.14,245.18L40.14,232L41.15,222.51L45.16,174.13L46.16,170.53L49.17,165.42L50.18,164.29L55.2,159.92L56.2,159.27L61.22,157.17L62.22,156.99L66.24,157.07L67.24,157.29L72.26,159.59L73.26,160.28L78.28,164.72L79.28,165.79L87.31,175.4L88.31,174.84L101.36,160.76L102.36,160.14L106.38,158.58L107.38,158.41L111.4,158.71L112.4,159.01L116.41,161.13L117.42,161.88L122.43,166.76L123.44,167.94L130.46,176.93L131.47,176.25L143.51,161.08L144.51,160.32L148.53,158.34L149.53,158.13L153.54,158.41L154.55,158.76L158.56,161.26L159.57,162.14L164.58,167.91L165.59,169.3L173.62,181.52L174.62,180.68L180.64,170.06L181.64,168.39L186.66,161.6L187.67,160.59L191.68,157.92L192.68,157.61L195.69,157.55L196.7,157.82L199.71,159.49L200.71,160.32L204.73,164.89L205.73,166.31L211.75,176.69L212.76,178.65L216.77,185.74L217.77,184.68L222.79,173.74L223.79,171.58L228.81,162.56L229.82,161.19L233.83,157.52L234.83,157.08L237.84,156.96L238.85,157.31L241.86,159.53L242.86,160.64L246.88,166.66L247.88,168.52L253.9,181.71L254.9,184.14L270.96,221.87L271.97,223.85L278.99,235.91L279.99,237.37L287.02,246.01L288.02,247.03L295.05,252.89L296.05,253.57L304.08,257.86L305.08,258.28L315.12,261.37L316.12,261.59L329.17,263.57L330.17,263.67L348.24,264.74L349.24,264.77L389.38,265.25L390.39,265.25L732.6,265.29" style="vector-effect: non-scaling-stroke; fill: none; stroke: rgb(8, 109, 113); stroke-opacity: 1; stroke-width: 1.5px; opacity: 1;"/></g><g class="points"/><g class="text"/></g><g class="trace scatter trace50df28" style="stroke-miterlimit: 2; opacity: 0.8;"><g class="fills"/><g class="errorbars"/><g class="lines"><path class="js-line" d="M0,265.29L34.12,264.66L35.12,264.47L39.14,263.03L40.14,262.38L43.15,259.1L44.16,257.38L49.17,249.34L50.18,248.12L55.2,243.59L56.2,242.93L62.22,240.11L63.22,239.8L70.25,238.56L71.25,238.5L79.28,238.88L80.28,239.02L94.33,240.96L95.34,240.86L116.41,238.47L117.42,238.51L126.45,239.76L127.45,239.99L135.48,241.34L136.48,241.29L145.52,239.79L146.52,239.59L156.56,238.46L157.56,238.45L165.59,239.29L166.59,239.5L178.63,242.21L179.64,242.14L187.67,240.48L188.67,240.22L198.71,238.5L199.71,238.46L206.73,239.02L207.74,239.22L215.77,241.73L216.77,242.13L220.78,242.95L221.79,242.93L227.81,241.7L228.81,241.4L239.85,238.65L240.85,238.57L246.88,238.85L247.88,239.04L254.9,241.32L255.91,241.76L266.95,247.7L267.95,248.28L283,256.01L284.01,256.43L295.05,260.14L296.05,260.4L309.1,262.86L310.1,263L328.16,264.47L329.17,264.52L364.29,265.2L365.3,265.2L448.59,265.29L449.6,265.29L732.6,265.29" style="vector-effect: non-scaling-stroke; fill: none; stroke: rgb(204, 57, 123); stroke-opacity: 1; stroke-width: 1.5px; opacity: 1;"/></g><g class="points"/><g class="text"/></g><g class="trace scatter trace94029d" style="stroke-miterlimit: 2; opacity: 0.8;"><g class="fills"/><g class="errorbars"/><g class="lines"><path class="js-line" d="M0,265.29L41.15,264.67L42.15,264.49L47.17,262.62L48.17,262.03L54.19,257.41L55.2,256.5L65.23,246.16L66.24,245.05L98.35,210.02L99.35,208.96L117.42,188.79L118.42,187.65L135.48,169.27L136.48,168.25L153.54,149.85L154.55,148.71L174.62,126.67L175.62,125.67L193.69,107.04L194.69,105.92L218.78,79.68L219.78,78.72L235.84,62.5L236.84,61.39L259.92,36.49L260.93,35.58L269.96,28.48L270.96,27.82L279.99,22.86L281,22.41L291.03,18.94L292.04,18.67L304.08,16.37L305.08,16.24L321.14,14.87L322.14,14.82L351.25,14.12L352.25,14.11L441.57,13.96L442.57,13.96L732.6,13.96" style="vector-effect: non-scaling-stroke; fill: none; stroke: rgb(56, 9, 21); stroke-opacity: 1; stroke-width: 1.5px; opacity: 1;"/></g><g class="points"/><g class="text"/></g><g class="trace scatter trace0d5f47" style="stroke-miterlimit: 2; opacity: 1;"><g class="fills"/><g class="errorbars"/><g class="lines"><path class="js-line" d="M0,238.45L732.6,238.45" style="vector-effect: non-scaling-stroke; fill: none; stroke: rgb(204, 57, 123); stroke-opacity: 1; stroke-width: 1.5px; opacity: 1; stroke-dasharray: 3px, 3px;"/></g><g class="points"/><g class="text"/></g></g></g><g class="overplot"/><path class="xlines-above crisp" d="M0,0" style="fill: none;"/><path class="ylines-above crisp" d="M0,0" style="fill: none;"/><g class="overlines-above"/><g class="xaxislayer-above"/><g class="yaxislayer-above"><g class="y2tick"><text text-anchor="end" x="79" y="4.199999999999999" transform="translate(0,543.7847368421053)" style="font-family: 'Open Sans', verdana, arial, sans-serif; font-size: 12px; fill: rgb(42, 63, 95); fill-opacity: 1; white-space: pre;">0</text></g><g class="y2tick"><text text-anchor="end" x="79" y="4.199999999999999" transform="translate(0,409.5747368421054)" style="font-family: 'Open Sans', verdana, arial, sans-serif; font-size: 12px; fill: rgb(42, 63, 95); fill-opacity: 1; white-space: pre;">50k</text></g></g><g class="overaxes-above"/></g><g class="subplot x3y3"><g class="layer-subplot"><g class="shapelayer"/><g class="imagelayer"/></g><g class="gridlayer"><g class="x3"><path class="x3grid crisp" transform="translate(171.32,0)" d="M0,563.2226315789474v83.77736842105263" style="stroke: rgb(255, 255, 255); stroke-opacity: 1; stroke-width: 1px;"/><path class="x3grid crisp" transform="translate(262.65,0)" d="M0,563.2226315789474v83.77736842105263" style="stroke: rgb(255, 255, 255); stroke-opacity: 1; stroke-width: 1px;"/><path class="x3grid crisp" transform="translate(354.98,0)" d="M0,563.2226315789474v83.77736842105263" style="stroke: rgb(255, 255, 255); stroke-opacity: 1; stroke-width: 1px;"/><path class="x3grid crisp" transform="translate(447.3,0)" d="M0,563.2226315789474v83.77736842105263" style="stroke: rgb(255, 255, 255); stroke-opacity: 1; stroke-width: 1px;"/><path class="x3grid crisp" transform="translate(537.62,0)" d="M0,563.2226315789474v83.77736842105263" style="stroke: rgb(255, 255, 255); stroke-opacity: 1; stroke-width: 1px;"/><path class="x3grid crisp" transform="translate(628.95,0)" d="M0,563.2226315789474v83.77736842105263" style="stroke: rgb(255, 255, 255); stroke-opacity: 1; stroke-width: 1px;"/><path class="x3grid crisp" transform="translate(721.28,0)" d="M0,563.2226315789474v83.77736842105263" style="stroke: rgb(255, 255, 255); stroke-opacity: 1; stroke-width: 1px;"/></g><g class="y3"/></g><g class="zerolinelayer"><path class="y3zl zl crisp" transform="translate(0,642.8126315789474)" d="M80,0h732.6" style="stroke: rgb(255, 255, 255); stroke-opacity: 1; stroke-width: 2px;"/></g><path class="xlines-below"/><path class="ylines-below"/><g class="overlines-below"/><g class="xaxislayer-below"/><g class="yaxislayer-below"/><g class="overaxes-below"/><g class="plot" transform="translate(80, 563.2226315789474)" clip-path="url('#clip3c950bx3y3plot')"><g class="scatterlayer mlayer"><g class="trace scatter trace90be20" style="stroke-miterlimit: 2; opacity: 0.3;"><g class="fills"/><g class="errorbars"/><g class="lines"><path class="js-line" d="M1,79.59L25.09,78.91L26.09,78.71L30.11,77.17L31.11,76.47L34.12,72.91L35.12,70.99L37.13,65.35L38.14,61.29L40.14,49.42L41.15,40.94L43.15,16.53L44.16,48.59L46.16,44.69L47.17,43.96L52.19,42.37L53.19,42.19L60.21,41.71L61.22,41.76L69.25,43.14L70.25,43.43L79.28,46.97L80.28,47.45L86.31,50.56L87.31,45.63L90.32,44.96L91.32,44.6L99.35,42.5L100.36,42.37L107.38,42.41L108.38,42.54L115.41,44.35L116.41,44.72L125.45,48.99L126.45,49.55L129.46,51.26L130.46,45.78L133.47,45L134.48,44.59L141.5,42.44L142.51,42.28L148.53,42.15L149.53,42.27L156.56,44.18L157.56,44.58L165.59,48.78L166.59,49.39L172.61,53.26L173.62,46.71L176.63,45.7L177.63,45.17L184.66,42.35L185.66,42.13L190.68,41.79L191.68,41.88L197.7,43.47L198.71,43.9L205.73,47.88L206.73,48.55L215.77,55.21L216.77,47.36L218.78,46.69L219.78,46.06L226.8,42.27L227.81,41.96L232.83,41.47L233.83,41.59L238.85,43.2L239.85,43.72L245.87,47.8L246.88,48.6L268.95,66.55L269.96,67.18L278.99,71.79L279.99,72.2L291.03,75.57L292.04,75.79L305.08,77.79L306.09,77.89L324.15,79L325.15,79.03L355.26,79.5L356.26,79.5L440.56,79.59L441.57,79.59L732.6,79.59" style="vector-effect: non-scaling-stroke; fill: none; stroke: rgb(8, 109, 113); stroke-opacity: 1; stroke-width: 1.5px; opacity: 1;"/></g><g class="points"/><g class="text"/></g><g class="trace scatter trace67ef26" style="stroke-miterlimit: 2; opacity: 0.6;"><g class="fills"/><g class="errorbars"/><g class="lines"><path class="js-line" d="M1,79.59L24.09,78.91L25.09,78.71L29.1,77.15L30.11,76.47L33.12,72.92L34.12,70.99L35.12,68.53L36.13,72.85L43.15,68.38L44.16,67.67L50.18,62.49L51.18,61.46L57.2,54.09L58.21,52.66L65.23,40.88L66.24,38.97L77.27,15.84L78.28,13.73L83.3,4.19L84.3,49.63L87.31,56.9L88.31,59.53L92.33,67.67L93.33,69.14L97.35,73.47L98.35,74.23L103.37,76.82L104.37,77.2L107.38,77.96L108.38,75.18L111.4,74.78L112.4,74.5L119.42,71.82" style="vector-effect: non-scaling-stroke; fill: none; stroke: rgb(8, 109, 113); stroke-opacity: 1; stroke-width: 1.5px; opacity: 1;"/></g><g class="points"/><g class="text"/></g></g></g><g class="overplot"/><path class="xlines-above crisp" d="M0,0" style="fill: none;"/><path class="ylines-above crisp" d="M0,0" style="fill: none;"/><g class="overlines-above"/><g class="xaxislayer-above"><g class="x3tick"><text text-anchor="middle" x="0" y="660" transform="translate(80,0)" style="font-family: 'Open Sans', verdana, arial, sans-serif; font-size: 12px; fill: rgb(42, 63, 95); fill-opacity: 1; white-space: pre;">Jan 2020</text></g><g class="x3tick"><text text-anchor="middle" x="0" y="660" transform="translate(171.32,0)" style="font-family: 'Open Sans', verdana, arial, sans-serif; font-size: 12px; fill: rgb(42, 63, 95); fill-opacity: 1; white-space: pre;">Apr 2020</text></g><g class="x3tick"><text text-anchor="middle" x="0" y="660" transform="translate(262.65,0)" style="font-family: 'Open Sans', verdana, arial, sans-serif; font-size: 12px; fill: rgb(42, 63, 95); fill-opacity: 1; white-space: pre;">Jul 2020</text></g><g class="x3tick"><text text-anchor="middle" x="0" y="660" transform="translate(354.98,0)" style="font-family: 'Open Sans', verdana, arial, sans-serif; font-size: 12px; fill: rgb(42, 63, 95); fill-opacity: 1; white-space: pre;">Oct 2020</text></g><g class="x3tick"><text text-anchor="middle" x="0" y="660" transform="translate(447.3,0)" style="font-family: 'Open Sans', verdana, arial, sans-serif; font-size: 12px; fill: rgb(42, 63, 95); fill-opacity: 1; white-space: pre;">Jan 2021</text></g><g class="x3tick"><text text-anchor="middle" x="0" y="660" transform="translate(537.62,0)" style="font-family: 'Open Sans', verdana, arial, sans-serif; font-size: 12px; fill: rgb(42, 63, 95); fill-opacity: 1; white-space: pre;">Apr 2021</text></g><g class="x3tick"><text text-anchor="middle" x="0" y="660" transform="translate(628.95,0)" style="font-family: 'Open Sans', verdana, arial, sans-serif; font-size: 12px; fill: rgb(42, 63, 95); fill-opacity: 1; white-space: pre;">Jul 2021</text></g><g class="x3tick"><text text-anchor="middle" x="0" y="660" transform="translate(721.28,0)" style="font-family: 'Open Sans', verdana, arial, sans-serif; font-size: 12px; fill: rgb(42, 63, 95); fill-opacity: 1; white-space: pre;">Oct 2021</text></g></g><g class="yaxislayer-above"><g class="y3tick"><text text-anchor="end" x="79" y="4.199999999999999" transform="translate(0,642.8126315789474)" style="font-family: 'Open Sans', verdana, arial, sans-serif; font-size: 12px; fill: rgb(42, 63, 95); fill-opacity: 1; white-space: pre;">0</text></g><g class="y3tick"><text text-anchor="end" x="79" y="4.199999999999999" transform="translate(0,620.8626315789473)" style="font-family: 'Open Sans', verdana, arial, sans-serif; font-size: 12px; fill: rgb(42, 63, 95); fill-opacity: 1; white-space: pre;">1000</text></g><g class="y3tick"><text text-anchor="end" x="79" y="4.199999999999999" transform="translate(0,598.9226315789474)" style="font-family: 'Open Sans', verdana, arial, sans-serif; font-size: 12px; fill: rgb(42, 63, 95); fill-opacity: 1; white-space: pre;">2000</text></g><g class="y3tick"><text text-anchor="end" x="79" y="4.199999999999999" transform="translate(0,576.9826315789473)" style="font-family: 'Open Sans', verdana, arial, sans-serif; font-size: 12px; fill: rgb(42, 63, 95); fill-opacity: 1; white-space: pre;">3000</text></g></g><g class="overaxes-above"/></g></g><g class="polarlayer"/><g class="ternarylayer"/><g class="geolayer"/><g class="funnelarealayer"/><g class="pielayer"/><g class="treemaplayer"/><g class="sunburstlayer"/><g class="glimages"/><g class="table" overflow="visible" width="892" height="336" transform="translate(0,0)" style="box-sizing: content-box; position: absolute; left: 0px; overflow: visible; shape-rendering: crispedges; pointer-events: all;"><g class="table-control-view" transform="translate(80 100)" clip-path="url('#clip3c950b_scrollAreaBottomClip_36c9a4true')" style="box-sizing: content-box;"><rect class="scroll-background" fill="none" width="732" height="83"/><g class="y-column" transform="translate(0 0)" clip-path="url('#clip3c950b_columnBoundaryClippath_36c9a4true_0')"><g class="column-block" id="cells1" transform="translate(0 0)" style="cursor: default;"><g class="column-cells"><g class="column-cell" transform="translate(0 16)"><rect class="cell-rect" width="366" stroke-width="1" style="stroke: rgb(255, 255, 255); stroke-opacity: 1; fill: rgb(255, 255, 255); fill-opacity: 1;" height="20"/><g class="cell-text-holder" transform="translate(358 8)" text-anchor="end" style="shape-rendering: geometricprecision;"><text class="cell-text" dy="0.75em" x="0" y="0" style="cursor: auto; font-family: 'Open Sans', verdana, arial, sans-serif; font-size: 13px; fill: rgb(42, 63, 95); fill-opacity: 1; white-space: pre;">Control Strenght</text></g></g><g class="column-cell" transform="translate(0 36)"><rect class="cell-rect" width="366" stroke-width="1" style="stroke: rgb(255, 255, 255); stroke-opacity: 1; fill: rgb(255, 255, 255); fill-opacity: 1;" height="20"/><g class="cell-text-holder" transform="translate(358 8)" text-anchor="end" style="shape-rendering: geometricprecision;"><text class="cell-text" dy="0.75em" x="0" y="0" style="cursor: auto; font-family: 'Open Sans', verdana, arial, sans-serif; font-size: 13px; fill: rgb(42, 63, 95); fill-opacity: 1; white-space: pre;">Total Infected (% Population)</text></g></g><g class="column-cell" transform="translate(0 56)"><rect class="cell-rect" width="366" stroke-width="1" style="stroke: rgb(255, 255, 255); stroke-opacity: 1; fill: rgb(255, 255, 255); fill-opacity: 1;" height="20"/><g class="cell-text-holder" transform="translate(358 8)" text-anchor="end" style="shape-rendering: geometricprecision;"><text class="cell-text" dy="0.75em" x="0" y="0" style="cursor: auto; font-family: 'Open Sans', verdana, arial, sans-serif; font-size: 13px; fill: rgb(42, 63, 95); fill-opacity: 1; white-space: pre;">Total Deceased (% Infected)</text></g></g></g></g><g class="column-block" id="cells2" transform="translate(0 0)" style="cursor: default;"><g class="column-cells"/></g><g class="column-block" id="header" style="cursor: ew-resize;"><g class="column-cells"><g class="column-cell" transform="translate(0 0)"><rect class="cell-rect" width="366" stroke-width="1" height="16" style="stroke: rgb(255, 255, 255); stroke-opacity: 1; fill: rgb(255, 255, 255); fill-opacity: 1;"/><g class="cell-text-holder" transform="translate(183 8)" text-anchor="middle" style="shape-rendering: geometricprecision;"><text class="cell-text" dy="0.75em" style="cursor: auto; font-family: 'Open Sans', verdana, arial, sans-serif; font-size: 12px; fill: rgb(42, 63, 95); fill-opacity: 1;"/></g></g></g></g><g class="column-boundary"/><clipPath class="column-boundary-clippath" id="clip3c950b_columnBoundaryClippath_36c9a4true_0"><rect class="column-boundary-rect" fill="none" width="368" height="90" x="-1" y="-1"/></clipPath></g><g class="y-column" transform="translate(366 0)" clip-path="url('#clip3c950b_columnBoundaryClippath_36c9a4true_1')"><g class="column-block" id="cells1" transform="translate(0 0)" style="cursor: default;"><g class="column-cells"><g class="column-cell" transform="translate(0 16)"><rect class="cell-rect" width="366" stroke-width="1" style="stroke: rgb(255, 255, 255); stroke-opacity: 1; fill: rgb(255, 255, 255); fill-opacity: 1;" height="20"/><g class="cell-text-holder" transform="translate(8 8)" text-anchor="start" style="shape-rendering: geometricprecision;"><text class="cell-text" dy="0.75em" style="cursor: auto; font-family: 'Open Sans', verdana, arial, sans-serif; font-size: 13px; fill: rgb(42, 63, 95); fill-opacity: 1;">10.55%</text></g></g><g class="column-cell" transform="translate(0 36)"><rect class="cell-rect" width="366" stroke-width="1" style="stroke: rgb(255, 255, 255); stroke-opacity: 1; fill: rgb(255, 255, 255); fill-opacity: 1;" height="20"/><g class="cell-text-holder" transform="translate(8 8)" text-anchor="start" style="shape-rendering: geometricprecision;"><text class="cell-text" dy="0.75em" style="cursor: auto; font-family: 'Open Sans', verdana, arial, sans-serif; font-size: 13px; fill: rgb(42, 63, 95); fill-opacity: 1;">73.15%</text></g></g><g class="column-cell" transform="translate(0 56)"><rect class="cell-rect" width="366" stroke-width="1" style="stroke: rgb(255, 255, 255); stroke-opacity: 1; fill: rgb(255, 255, 255); fill-opacity: 1;" height="20"/><g class="cell-text-holder" transform="translate(8 8)" text-anchor="start" style="shape-rendering: geometricprecision;"><text class="cell-text" dy="0.75em" style="cursor: auto; font-family: 'Open Sans', verdana, arial, sans-serif; font-size: 13px; fill: rgb(42, 63, 95); fill-opacity: 1;">2.56%</text></g></g></g></g><g class="column-block" id="cells2" transform="translate(0 0)" style="cursor: default;"><g class="column-cells"/></g><g class="column-block" id="header" style="cursor: ew-resize;"><g class="column-cells"><g class="column-cell" transform="translate(0 0)"><rect class="cell-rect" width="366" stroke-width="1" height="16" style="stroke: rgb(255, 255, 255); stroke-opacity: 1; fill: rgb(255, 255, 255); fill-opacity: 1;"/><g class="cell-text-holder" transform="translate(183 8)" text-anchor="middle" style="shape-rendering: geometricprecision;"><text class="cell-text" dy="0.75em" style="cursor: auto; font-family: 'Open Sans', verdana, arial, sans-serif; font-size: 12px; fill: rgb(42, 63, 95); fill-opacity: 1;"/></g></g></g></g><g class="column-boundary"/><clipPath class="column-boundary-clippath" id="clip3c950b_columnBoundaryClippath_36c9a4true_1"><rect class="column-boundary-rect" fill="none" width="368" height="90" x="-1" y="-1"/></clipPath></g><clipPath class="scroll-area-clip" id="clip3c950b_scrollAreaBottomClip_36c9a4true"><rect class="scroll-area-clip-rect" x="-45" y="-5" fill="none" width="822" height="88"/></clipPath></g></g><defs id="topdefs-3c950b"><g class="clips"/><clipPath id="legend3c950b"><rect width="523" height="86" x="0" y="0"/></clipPath></defs><g class="layer-above"><g class="imagelayer"/><g class="shapelayer"/></g><g class="infolayer"><g class="legend" pointer-events="all" transform="translate(80, 701.7)"><rect class="bg" shape-rendering="crispEdges" width="523" height="86" x="0" y="0" style="stroke: rgb(68, 68, 68); stroke-opacity: 1; fill: rgb(0, 0, 0); fill-opacity: 0; stroke-width: 0px;"/><g class="scrollbox" transform="translate(0, 0)" clip-path="url('#legend3c950b')"><g class="groups"><g class="traces" transform="translate(0, 14.5)" style="opacity: 1;"><text class="legendtext user-select-none" text-anchor="start" x="40" y="4.680000000000001" style="font-family: 'Open Sans', verdana, arial, sans-serif; font-size: 12px; fill: rgb(42, 63, 95); fill-opacity: 1; white-space: pre;">Control (u)</text><g class="layers" style="opacity: 1;"><g class="legendfill"/><g class="legendlines"><path class="js-line" d="M5,0h30" style="fill: none; stroke: rgb(145, 13, 0); stroke-opacity: 1; stroke-width: 5px;"/></g><g class="legendsymbols"><g class="legendpoints"/></g></g><rect class="legendtoggle" pointer-events="all" x="0" y="-9.5" width="108.90625" height="19" style="cursor: pointer; fill: rgb(0, 0, 0); fill-opacity: 0;"/></g><g class="traces" transform="translate(188.015625, 14.5)" style="opacity: 0.5;"><text class="legendtext user-select-none" text-anchor="start" x="40" y="4.680000000000001" style="font-family: 'Open Sans', verdana, arial, sans-serif; font-size: 12px; fill: rgb(42, 63, 95); fill-opacity: 1; white-space: pre;">Susceptible</text><g class="layers" style="opacity: 1;"><g class="legendfill"/><g class="legendlines"><path class="js-line" d="M5,0h30" style="fill: none; stroke: rgb(114, 159, 207); stroke-opacity: 1; stroke-width: 5px;"/></g><g class="legendsymbols"><g class="legendpoints"/></g></g><rect class="legendtoggle" pointer-events="all" x="0" y="-9.5" width="111.375" height="19" style="cursor: pointer; fill: rgb(0, 0, 0); fill-opacity: 0;"/></g><g class="traces" transform="translate(376.03125, 14.5)" style="opacity: 0.5;"><text class="legendtext user-select-none" text-anchor="start" x="40" y="4.680000000000001" style="font-family: 'Open Sans', verdana, arial, sans-serif; font-size: 12px; fill: rgb(42, 63, 95); fill-opacity: 1; white-space: pre;">Exposed</text><g class="layers" style="opacity: 0.8;"><g class="legendfill"/><g class="legendlines"><path class="js-line" d="M5,0h30" style="fill: none; stroke: rgb(52, 101, 164); stroke-opacity: 1; stroke-width: 5px;"/></g><g class="legendsymbols"><g class="legendpoints"/></g></g><rect class="legendtoggle" pointer-events="all" x="0" y="-9.5" width="92.828125" height="19" style="cursor: pointer; fill: rgb(0, 0, 0); fill-opacity: 0;"/></g><g class="traces" transform="translate(0, 33.5)" style="opacity: 1;"><text class="legendtext user-select-none" text-anchor="start" x="40" y="4.680000000000001" style="font-family: 'Open Sans', verdana, arial, sans-serif; font-size: 12px; fill: rgb(42, 63, 95); fill-opacity: 1; white-space: pre;">Infected</text><g class="layers" style="opacity: 0.8;"><g class="legendfill"/><g class="legendlines"><path class="js-line" d="M5,0h30" style="fill: none; stroke: rgb(8, 109, 113); stroke-opacity: 1; stroke-width: 5px;"/></g><g class="legendsymbols"><g class="legendpoints"/></g></g><rect class="legendtoggle" pointer-events="all" x="0" y="-9.5" width="92.125" height="19" style="cursor: pointer; fill: rgb(0, 0, 0); fill-opacity: 0;"/></g><g class="traces" transform="translate(188.015625, 33.5)" style="opacity: 1;"><text class="legendtext user-select-none" text-anchor="start" x="40" y="4.680000000000001" style="font-family: 'Open Sans', verdana, arial, sans-serif; font-size: 12px; fill: rgb(42, 63, 95); fill-opacity: 1; white-space: pre;">Hospitalized</text><g class="layers" style="opacity: 0.8;"><g class="legendfill"/><g class="legendlines"><path class="js-line" d="M5,0h30" style="fill: none; stroke: rgb(204, 57, 123); stroke-opacity: 1; stroke-width: 5px;"/></g><g class="legendsymbols"><g class="legendpoints"/></g></g><rect class="legendtoggle" pointer-events="all" x="0" y="-9.5" width="115.28125" height="19" style="cursor: pointer; fill: rgb(0, 0, 0); fill-opacity: 0;"/></g><g class="traces" transform="translate(376.03125, 33.5)" style="opacity: 0.5;"><text class="legendtext user-select-none" text-anchor="start" x="40" y="4.680000000000001" style="font-family: 'Open Sans', verdana, arial, sans-serif; font-size: 12px; fill: rgb(42, 63, 95); fill-opacity: 1; white-space: pre;">Recovered</text><g class="layers" style="opacity: 1;"><g class="legendfill"/><g class="legendlines"><path class="js-line" d="M5,0h30" style="fill: none; stroke: rgb(156, 164, 196); stroke-opacity: 1; stroke-width: 5px;"/></g><g class="legendsymbols"><g class="legendpoints"/></g></g><rect class="legendtoggle" pointer-events="all" x="0" y="-9.5" width="105.53125" height="19" style="cursor: pointer; fill: rgb(0, 0, 0); fill-opacity: 0;"/></g><g class="traces" transform="translate(0, 52.5)" style="opacity: 1;"><text class="legendtext user-select-none" text-anchor="start" x="40" y="4.680000000000001" style="font-family: 'Open Sans', verdana, arial, sans-serif; font-size: 12px; fill: rgb(42, 63, 95); fill-opacity: 1; white-space: pre;">Deceased</text><g class="layers" style="opacity: 0.8;"><g class="legendfill"/><g class="legendlines"><path class="js-line" d="M5,0h30" style="fill: none; stroke: rgb(56, 9, 21); stroke-opacity: 1; stroke-width: 5px;"/></g><g class="legendsymbols"><g class="legendpoints"/></g></g><rect class="legendtoggle" pointer-events="all" x="0" y="-9.5" width="100.390625" height="19" style="cursor: pointer; fill: rgb(0, 0, 0); fill-opacity: 0;"/></g><g class="traces" transform="translate(188.015625, 52.5)" style="opacity: 1;"><text class="legendtext user-select-none" text-anchor="start" x="40" y="4.680000000000001" style="font-family: 'Open Sans', verdana, arial, sans-serif; font-size: 12px; fill: rgb(42, 63, 95); fill-opacity: 1; white-space: pre;">Healthcare capacity (Q)</text><g class="layers" style="opacity: 1;"><g class="legendfill"/><g class="legendlines"><path class="js-line" d="M5,0h30" style="fill: none; stroke: rgb(204, 57, 123); stroke-opacity: 1; stroke-dasharray: 5px, 5px; stroke-width: 5px;"/></g><g class="legendsymbols"><g class="legendpoints"/></g></g><rect class="legendtoggle" pointer-events="all" x="0" y="-9.5" width="185.515625" height="19" style="cursor: pointer; fill: rgb(0, 0, 0); fill-opacity: 0;"/></g><g class="traces" transform="translate(376.03125, 52.5)" style="opacity: 1;"><text class="legendtext user-select-none" text-anchor="start" x="40" y="4.680000000000001" style="font-family: 'Open Sans', verdana, arial, sans-serif; font-size: 12px; fill: rgb(42, 63, 95); fill-opacity: 1; white-space: pre;">Infected (model)</text><g class="layers" style="opacity: 0.3;"><g class="legendfill"/><g class="legendlines"><path class="js-line" d="M5,0h30" style="fill: none; stroke: rgb(8, 109, 113); stroke-opacity: 1; stroke-width: 5px;"/></g><g class="legendsymbols"><g class="legendpoints"/></g></g><rect class="legendtoggle" pointer-events="all" x="0" y="-9.5" width="144.109375" height="19" style="cursor: pointer; fill: rgb(0, 0, 0); fill-opacity: 0;"/></g><g class="traces" transform="translate(0, 71.5)" style="opacity: 1;"><text class="legendtext user-select-none" text-anchor="start" x="40" y="4.680000000000001" style="font-family: 'Open Sans', verdana, arial, sans-serif; font-size: 12px; fill: rgb(42, 63, 95); fill-opacity: 1; white-space: pre;">Infected (real)</text><g class="layers" style="opacity: 0.6;"><g class="legendfill"/><g class="legendlines"><path class="js-line" d="M5,0h30" style="fill: none; stroke: rgb(8, 109, 113); stroke-opacity: 1; stroke-width: 5px;"/></g><g class="legendsymbols"><g class="legendpoints"/></g></g><rect class="legendtoggle" pointer-events="all" x="0" y="-9.5" width="130.015625" height="19" style="cursor: pointer; fill: rgb(0, 0, 0); fill-opacity: 0;"/></g></g></g><rect class="scrollbar" rx="20" ry="3" width="0" height="0" x="0" y="0" style="fill: rgb(128, 139, 164); fill-opacity: 1;"/></g><g class="g-gtitle"><text class="gtitle" x="405" y="80" text-anchor="middle" dy="0.7em" style="font-family: 'Open Sans', verdana, arial, sans-serif; font-size: 17px; fill: rgb(42, 63, 95); opacity: 1; font-weight: normal; white-space: pre;">Realistic optimal control</text></g><g class="g-xtitle"/><g class="g-x2title"/><g class="g-x3title"/><g class="g-ytitle"><text class="ytitle" transform="rotate(-90,34.575,231.136052631579)" x="34.575" y="231.136052631579" text-anchor="middle" style="font-family: 'Open Sans', verdana, arial, sans-serif; font-size: 14px; fill: rgb(42, 63, 95); opacity: 1; font-weight: normal; white-space: pre;">Control</text></g><g class="g-y2title"><text class="y2title" transform="rotate(-90,31.840625000000003,418.12368421052633)" x="31.840625000000003" y="418.12368421052633" text-anchor="middle" style="font-family: 'Open Sans', verdana, arial, sans-serif; font-size: 14px; fill: rgb(42, 63, 95); opacity: 1; font-weight: normal; white-space: pre;">Compartments</text></g><g class="g-y3title"><text class="y3title" transform="rotate(-90,23.684375000000003,605.1113157894737)" x="23.684375000000003" y="605.1113157894737" text-anchor="middle" style="font-family: 'Open Sans', verdana, arial, sans-serif; font-size: 14px; fill: rgb(42, 63, 95); opacity: 1; font-weight: normal; white-space: pre;">Comparison</text></g></g></svg>